<?xml version="1.0" encoding="UTF-8"?>
<svg xmlns="http://www.w3.org/2000/svg" xmlns:xlink="http://www.w3.org/1999/xlink" version="1.2" >
<font id="VolvoSansWebMedium">
<font-face  font-family="Volvo Sans Web" units-per-em="1000" ascent="750" descent="-250" font-style="normal" font-weight="500" font-stretch="normal" cap-height="706" x-height="500" underline-position="-75" underline-thickness="50" />
<missing-glyph  horiz-adv-x="500" d="M12 950 L487 950 L487 -250 L12 -250 L12 950 Z " />
<glyph glyph-name=".null" d="" />
<glyph glyph-name="nonmarkingreturn" unicode="&#xd;" horiz-adv-x="271" d="" />
<glyph glyph-name="space" unicode="&#x20;" horiz-adv-x="271" d="" />
<glyph glyph-name="A" unicode="A" horiz-adv-x="630" d="M239 706 L389 706 L630 0 L489 0 L448 138 L183 138 L142 0 L0 0 L239 706 Z M413 254 L316 579 L218 254 L413 254 Z " />
<glyph glyph-name="B" unicode="B" horiz-adv-x="683" d="M75 706 L380 706 Q403 706 427.5 704.5 Q452 703 476 696 Q500 689 522.5 676 Q545 663 565 641 Q578 626 591 600.5 Q604 575 605 537 L605 534 Q605 527 603.5 511 Q602 495 595 475.5 Q588 456 573.5 436 Q559 416 534 402 Q520 394 505.5 391 Q491 388 488 387 Q509 384 535 372 Q561 360 584 338 Q607 316 622.5 282.5 Q638 249 638 202 L638 200 Q638 193 637.5 180.5 Q637 168 633 152 Q629 136 621.5 117.5 Q614 99 601 81 Q579 51 551.5 35 Q524 19 495 11 Q466 3 436.5 1.5 Q407 0 380 0 L75 0 L75 706 Z M251 422 Q306 422 350 423.5 Q394 425 413 433 Q417 435 428 440.5 Q439 446 451 460 Q465 476 467 491 Q469 506 469 511 L469 512 Q469 526 463.5 540 Q458 554 445 567 Q424 588 393 593 Q362 598 334 598 L206 598 L206 422 L251 422 Z M368 114 Q400 114 428.5 119 Q457 124 479 147 Q490 158 496.5 174 Q503 190 503 215 Q503 242 493 259.5 Q483 277 471 288 Q457 301 439.5 308 Q422 315 404 318.5 Q386 322 369 322.5 Q352 323 338 323 L206 323 L206 114 L368 114 Z " />
<glyph glyph-name="C" unicode="C" horiz-adv-x="698" d="M682 197 L678 187 Q658 137 631 102.5 Q604 68 574 45 Q544 22 513.5 9.5 Q483 -3 456 -9 Q429 -15 407.5 -16.5 Q386 -18 374 -18 Q314 -18 273 -3 Q232 12 207 27 Q150 62 118 109.5 Q86 157 70.5 204 Q55 251 51 291 Q47 331 47 351 L47 365 Q47 372 47.5 386.5 Q48 401 50.5 420 Q53 439 57.5 461 Q62 483 70 506 Q91 563 124.5 604.5 Q158 646 199.5 672.5 Q241 699 288.5 711.5 Q336 724 384 724 Q429 724 466 714.5 Q503 705 532.5 689 Q562 673 584 652.5 Q606 632 621 610 Q632 594 640.5 577 Q649 560 655 545.5 Q661 531 664.5 520 Q668 509 669 506 L538 472 Q536 488 527.5 511 Q519 534 501 554 Q483 574 454.5 588.5 Q426 603 384 603 Q350 603 315.5 589.5 Q281 576 253 546.5 Q225 517 207.5 471 Q190 425 190 360 Q190 294 206.5 246 Q223 198 250 167.5 Q277 137 312 122 Q347 107 384 107 Q427 107 458 123.5 Q489 140 509.5 163 Q530 186 541.5 210 Q553 234 557 249 L682 197 Z " />
<glyph glyph-name="D" unicode="D" horiz-adv-x="720" d="M75 706 L328 706 Q377 706 409 701.5 Q441 697 462 690 Q504 676 542.5 648 Q581 620 610 577 Q639 534 656 476.5 Q673 419 673 346 Q673 277 658.5 228 Q644 179 629 150 Q599 94 558.5 64 Q518 34 474 19.5 Q430 5 384.5 2.5 Q339 0 300 0 L75 0 L75 706 Z M263 119 Q317 119 351.5 121 Q386 123 410 130 Q473 147 503 198.5 Q533 250 533 347 L533 360 Q533 376 529.5 407.5 Q526 439 511.5 473 Q497 507 468.5 536.5 Q440 566 390 579 Q372 584 345 585.5 Q318 587 277 587 L207 587 L207 119 L263 119 Z " />
<glyph glyph-name="E" unicode="E" horiz-adv-x="612" d="M75 706 L577 706 L577 588 L205 588 L205 422 L546 422 L546 308 L205 308 L205 119 L602 119 L602 0 L75 0 L75 706 Z " />
<glyph glyph-name="F" unicode="F" horiz-adv-x="546" d="M75 706 L542 706 L542 588 L206 588 L206 412 L501 412 L501 299 L206 299 L206 0 L75 0 L75 706 Z " />
<glyph glyph-name="G" unicode="G" horiz-adv-x="751" d="M573 60 Q566 54 561 49.5 Q556 45 548 39 Q522 18 496.5 6.5 Q471 -5 449.5 -10.5 Q428 -16 410.5 -17 Q393 -18 382 -18 L377 -18 Q298 -18 236.5 11.5 Q175 41 133 89.5 Q91 138 69 202.5 Q47 267 47 338 L47 346 Q47 362 50.5 402 Q54 442 70.5 491 Q87 540 121.5 590.5 Q156 641 218 678 Q246 694 272.5 703.5 Q299 713 322 717.5 Q345 722 362 723 Q379 724 388 724 Q425 724 464 715.5 Q503 707 539.5 687.5 Q576 668 609 636.5 Q642 605 666 560 Q674 546 679 533 Q684 520 686 516 L560 466 Q558 470 552.5 485.5 Q547 501 538 517 Q529 532 516 547.5 Q503 563 484.5 576 Q466 589 441 597 Q416 605 384 605 Q327 605 290 580 Q253 555 231 517 Q209 479 200 434.5 Q191 390 191 351 Q191 285 209 238.5 Q227 192 255.5 163 Q284 134 319 120.5 Q354 107 389 107 Q413 107 437.5 112.5 Q462 118 484.5 131 Q507 144 524.5 165 Q542 186 553 217 Q560 236 561.5 249.5 Q563 263 565 270 L389 270 L389 386 L686 386 L686 0 L573 0 L573 60 Z " />
<glyph glyph-name="H" unicode="H" horiz-adv-x="719" d="M75 706 L208 706 L208 440 L511 440 L511 706 L644 706 L644 0 L511 0 L511 321 L208 321 L208 0 L75 0 L75 706 Z " />
<glyph glyph-name="I" unicode="I" horiz-adv-x="280" d="M75 706 L205 706 L205 0 L75 0 L75 706 Z " />
<glyph glyph-name="J" unicode="J" horiz-adv-x="376" d="M5 124 Q13 122 32.5 118 Q52 114 75 114 Q96 114 112.5 118.5 Q129 123 137 128 Q153 138 162 149.5 Q171 161 175 176 Q179 191 180 210.5 Q181 230 181 255 L181 706 L311 706 L311 207 Q311 166 309 143.5 Q307 121 300 101 Q286 64 260.5 41.5 Q235 19 204.5 6.5 Q174 -6 142.5 -10.5 Q111 -15 87 -15 Q57 -15 38 -12 Q19 -9 5 -6 L5 124 Z " />
<glyph glyph-name="K" unicode="K" horiz-adv-x="647" d="M75 706 L206 706 L206 382 L489 706 L644 706 L413 440 L660 0 L509 0 L321 332 L206 200 L206 0 L75 0 L75 706 Z " />
<glyph glyph-name="L" unicode="L" horiz-adv-x="488" d="M75 706 L208 706 L208 120 L488 120 L488 0 L75 0 L75 706 Z " />
<glyph glyph-name="M" unicode="M" horiz-adv-x="807" d="M75 706 L267 706 L405 182 L541 706 L732 706 L732 0 L603 0 L616 580 L463 0 L344 0 L191 580 L204 0 L75 0 L75 706 Z " />
<glyph glyph-name="N" unicode="N" horiz-adv-x="696" d="M75 706 L194 706 L507 208 L491 706 L621 706 L621 0 L505 0 L196 495 L204 0 L75 0 L75 706 Z " />
<glyph glyph-name="O" unicode="O" horiz-adv-x="771" d="M238 14 Q205 30 171 59.5 Q137 89 109.5 131 Q82 173 64.5 228 Q47 283 47 350 Q47 412 61 462.5 Q75 513 97 553 Q119 593 147 622 Q175 651 204 670 Q231 688 276.5 706 Q322 724 388 724 Q433 724 480 711 Q527 698 572 669 Q602 649 629.5 620 Q657 591 678 552 Q699 513 711.5 463.5 Q724 414 724 353 Q724 285 704 219 Q693 186 671 145 Q649 104 611 67.5 Q573 31 517.5 6.5 Q462 -18 386 -18 Q333 -18 297 -7.5 Q261 3 238 14 Z M388 105 Q418 105 453.5 116.5 Q489 128 519.5 155.5 Q550 183 570.5 228 Q591 273 591 339 Q591 362 588.5 385.5 Q586 409 581 432 Q576 450 565 478.5 Q554 507 532 535 Q510 563 475 583 Q440 603 388 603 Q353 603 316.5 590.5 Q280 578 250.5 549 Q221 520 202 473 Q183 426 183 358 Q183 290 201.5 242 Q220 194 249.5 163.5 Q279 133 315.5 119 Q352 105 388 105 Z " />
<glyph glyph-name="P" unicode="P" horiz-adv-x="623" d="M75 706 L313 706 Q340 706 371 704.5 Q402 703 433 695 Q464 687 494.5 669.5 Q525 652 551 620 Q569 597 579 574 Q589 551 593.5 530.5 Q598 510 599 495.5 Q600 481 600 475 Q600 441 592 404.5 Q584 368 561 334 Q538 301 509.5 282 Q481 263 450.5 254 Q420 245 389.5 242.5 Q359 240 334 240 L207 240 L207 0 L75 0 L75 706 Z M302 348 Q363 348 398 361 Q433 374 452 415 Q461 435 462.5 453.5 Q464 472 464 477 Q464 500 459 516 Q454 532 447 542 Q426 574 393.5 583.5 Q361 593 308 593 L207 593 L207 348 L302 348 Z " />
<glyph glyph-name="Q" unicode="Q" horiz-adv-x="768" d="M754 -28 Q730 -23 706 -11.5 Q682 0 662 13.5 Q642 27 626.5 39.5 Q611 52 604 60 Q552 16 491.5 -1 Q431 -18 379 -18 Q313 -18 267.5 0 Q222 18 194 37 Q151 66 123 104 Q95 142 78 183.5 Q61 225 54 267 Q47 309 47 345 Q47 420 68.5 488.5 Q90 557 133.5 609.5 Q177 662 241.5 693 Q306 724 392 724 Q472 724 533.5 694.5 Q595 665 637 615 Q679 565 700 499 Q721 433 721 361 Q721 358 720 336 Q719 314 713.5 282.5 Q708 251 698 215.5 Q688 180 670 151 Q676 137 689.5 127 Q703 117 718.5 110.5 Q734 104 749.5 100.5 Q765 97 774 97 Q780 97 783.5 97.5 Q787 98 791 99 L754 -28 Z M272 150 Q290 135 318.5 121.5 Q347 108 389 108 Q443 108 479.5 132.5 Q516 157 538 194 Q560 231 569.5 274 Q579 317 579 354 Q579 376 576.5 397.5 Q574 419 568 441 Q549 511 499 554.5 Q449 598 383 598 Q339 598 308 581.5 Q277 565 256 541.5 Q235 518 222.5 494 Q210 470 205 455 Q193 420 190.5 391.5 Q188 363 188 350 Q188 327 191.5 301 Q195 275 204.5 248.5 Q214 222 230 196.5 Q246 171 272 150 Z " />
<glyph glyph-name="R" unicode="R" horiz-adv-x="640" d="M75 706 L335 706 Q362 706 391 704 Q420 702 448.5 693 Q477 684 504 667 Q531 650 554 620 Q579 588 588 553 Q597 518 597 486 Q597 440 583.5 405.5 Q570 371 549.5 347 Q529 323 504.5 308.5 Q480 294 458 288 L615 0 L464 0 L325 262 L206 262 L206 0 L75 0 L75 706 Z M298 372 Q321 372 350 374 Q379 376 404 387 Q429 398 446 420.5 Q463 443 463 484 Q463 521 448 542.5 Q433 564 412 575 Q391 586 368.5 589 Q346 592 331 592 L206 592 L206 372 L298 372 Z " />
<glyph glyph-name="S" unicode="S" horiz-adv-x="667" d="M129 210 Q136 201 138 197.5 Q140 194 151 181 Q179 150 226 127 Q273 104 346 104 Q412 104 448 128.5 Q484 153 484 196 Q484 211 479 224 Q474 237 459 250 Q450 258 435 264 Q420 270 404 274.5 Q388 279 372.5 282.5 Q357 286 348 288 L264 307 Q256 309 237.5 312.5 Q219 316 195.5 323.5 Q172 331 147.5 344.5 Q123 358 102.5 379 Q82 400 69 430.5 Q56 461 56 504 Q56 513 59 541.5 Q62 570 80 602 Q111 657 175 690.5 Q239 724 336 724 Q367 724 400.5 719 Q434 714 467.5 701 Q501 688 533.5 666.5 Q566 645 596 611 Q603 603 608 596 Q613 589 620 581 L511 500 Q506 508 501 515.5 Q496 523 484 537 Q462 562 425.5 583.5 Q389 605 331 605 Q271 605 233 581 Q195 557 195 519 Q195 498 205 484.5 Q215 471 232 462 Q249 453 273 447 Q297 441 325 435 L398 419 Q401 418 409.5 416.5 Q418 415 429.5 412 Q441 409 454 405 Q467 401 479 397 Q529 379 558.5 355.5 Q588 332 603 306.5 Q618 281 622.5 256.5 Q627 232 627 213 Q627 155 605.5 115.5 Q584 76 554 51 Q524 26 492 13 Q460 0 439 -5 Q423 -9 394 -13.5 Q365 -18 326 -18 L322 -18 Q310 -18 282.5 -16.5 Q255 -15 219.5 -6 Q184 3 144 21 Q104 39 68 72 Q47 91 34 109 Q21 127 18 133 L129 210 Z " />
<glyph glyph-name="T" unicode="T" horiz-adv-x="539" d="M202 587 L10 587 L10 706 L529 706 L529 587 L334 587 L334 0 L202 0 L202 587 Z " />
<glyph glyph-name="U" unicode="U" horiz-adv-x="699" d="M65 706 L198 706 L198 255 Q198 231 200.5 214 Q203 197 207 188 Q217 162 234 146.5 Q251 131 271 123 Q291 115 312 112.5 Q333 110 350 110 Q368 110 389 113 Q410 116 430 125 Q450 134 467.5 150.5 Q485 167 494 194 Q499 210 500.5 228.5 Q502 247 502 279 L502 706 L634 706 L634 299 L634 255 Q634 227 632.5 198 Q631 169 623 146 Q612 111 588.5 81 Q565 51 529.5 29 Q494 7 447.5 -5.5 Q401 -18 344 -18 Q287 -18 241.5 -5 Q196 8 162 30.5 Q128 53 106 83.5 Q84 114 74 149 Q67 173 66 204 Q65 235 65 286 L65 706 Z " />
<glyph glyph-name="V" unicode="V" horiz-adv-x="587" d="M0 706 L139 706 L297 149 L451 706 L587 706 L386 0 L208 0 L0 706 Z " />
<glyph glyph-name="W" unicode="W" horiz-adv-x="811" d="M0 706 L135 706 L231 168 L341 706 L464 706 L576 168 L675 706 L811 706 L656 0 L502 0 L403 491 L301 0 L147 0 L0 706 Z " />
<glyph glyph-name="X" unicode="X" horiz-adv-x="630" d="M237 383 L34 706 L186 706 L314 504 L437 706 L590 706 L391 383 L630 0 L479 0 L314 261 L153 0 L0 0 L237 383 Z " />
<glyph glyph-name="Y" unicode="Y" horiz-adv-x="605" d="M236 279 L0 706 L150 706 L303 414 L457 706 L605 706 L367 279 L367 0 L236 0 L236 279 Z " />
<glyph glyph-name="Z" unicode="Z" horiz-adv-x="604" d="M24 108 L410 588 L57 588 L57 706 L575 706 L575 594 L204 119 L575 119 L575 0 L24 0 L24 108 Z " />
<glyph glyph-name="Agrave" unicode="&#xc0;" horiz-adv-x="630" d="M239 706 L389 706 L630 0 L489 0 L448 138 L183 138 L142 0 L0 0 L239 706 Z M413 254 L316 579 L218 254 L413 254 Z M167 895 L309 895 L363 774 L274 774 L167 895 Z " />
<glyph glyph-name="Aacute" unicode="&#xc1;" horiz-adv-x="630" d="M239 706 L389 706 L630 0 L489 0 L448 138 L183 138 L142 0 L0 0 L239 706 Z M413 254 L316 579 L218 254 L413 254 Z M303 895 L446 895 L339 775 L249 775 L303 895 Z " />
<glyph glyph-name="Acircumflex" unicode="&#xc2;" horiz-adv-x="630" d="M239 706 L389 706 L630 0 L489 0 L448 138 L183 138 L142 0 L0 0 L239 706 Z M413 254 L316 579 L218 254 L413 254 Z M255 895 L373 895 L478 773 L356 773 L314 829 L272 773 L154 773 L255 895 Z " />
<glyph glyph-name="Atilde" unicode="&#xc3;" horiz-adv-x="630" d="M239 706 L389 706 L630 0 L489 0 L448 138 L183 138 L142 0 L0 0 L239 706 Z M413 254 L316 579 L218 254 L413 254 Z M130 769 Q132 783 133.5 793.5 Q135 804 140 818 Q143 826 149.5 839 Q156 852 167.5 864.5 Q179 877 195 886 Q211 895 234 895 Q247 895 262 891.5 Q277 888 289.5 884 Q302 880 311.5 876 Q321 872 323 871 Q324 871 329.5 869 Q335 867 342.5 864 Q350 861 359 859 Q368 857 375 857 Q387 857 393.5 862 Q400 867 404 873 Q408 879 409.5 885.5 Q411 892 412 895 L490 895 Q490 894 487.5 874 Q485 854 475 830.5 Q465 807 445 787.5 Q425 768 389 768 Q375 768 360 771.5 Q345 775 332.5 779 Q320 783 310.5 787 Q301 791 298 792 Q295 794 277.5 800 Q260 806 243 806 Q232 806 225.5 800.5 Q219 795 215 788.5 Q211 782 209.5 776 Q208 770 208 769 L130 769 Z " />
<glyph glyph-name="Adieresis" unicode="&#xc4;" horiz-adv-x="630" d="M239 706 L389 706 L630 0 L489 0 L448 138 L183 138 L142 0 L0 0 L239 706 Z M413 254 L316 579 L218 254 L413 254 Z M358 895 L472 895 L472 772 L358 772 L358 895 Z M158 895 L271 895 L271 772 L158 772 L158 895 Z " />
<glyph glyph-name="Amacron" unicode="&#x100;" horiz-adv-x="630" d="M239 706 L389 706 L630 0 L489 0 L448 138 L183 138 L142 0 L0 0 L239 706 Z M413 254 L316 579 L218 254 L413 254 Z M142 868 L483 868 L483 778 L142 778 L142 868 Z " />
<glyph glyph-name="Abreve" unicode="&#x102;" horiz-adv-x="630" d="M239 706 L389 706 L630 0 L489 0 L448 138 L183 138 L142 0 L0 0 L239 706 Z M413 254 L316 579 L218 254 L413 254 Z M254 896 Q255 888 258 879 Q261 870 268 862 Q275 854 286 848.5 Q297 843 315 843 Q333 843 343.5 849 Q354 855 360.5 863 Q367 871 369.5 880.5 Q372 890 374 896 L460 896 Q456 880 448 857.5 Q440 835 423.5 814.5 Q407 794 379.5 779.5 Q352 765 309 765 Q268 765 241.5 780.5 Q215 796 199 817.5 Q183 839 176 861 Q169 883 166 896 L254 896 Z " />
<glyph glyph-name="Aring" unicode="&#xc5;" horiz-adv-x="630" d="M239 706 L389 706 L630 0 L489 0 L448 138 L183 138 L142 0 L0 0 L239 706 Z M413 254 L316 579 L218 254 L413 254 Z M212 862 Q212 883 220 901.5 Q228 920 241.5 933.5 Q255 947 273.5 955 Q292 963 313 963 Q334 963 352.5 955 Q371 947 384.5 933.5 Q398 920 406 901.5 Q414 883 414 862 Q414 841 406 822.5 Q398 804 384.5 790.5 Q371 777 352.5 769 Q334 761 313 761 Q292 761 273.5 769 Q255 777 241.5 790.5 Q228 804 220 822.5 Q212 841 212 862 Z M313 820 Q330 820 342.5 832.5 Q355 845 355 862 Q355 879 342.5 891.5 Q330 904 313 904 Q296 904 283.5 891.5 Q271 879 271 862 Q271 845 283.5 832.5 Q296 820 313 820 Z " />
<glyph glyph-name="Aogonek" unicode="&#x104;" horiz-adv-x="630" d="M239 706 L389 706 L630 0 L597 0 Q581 -20 568 -36 Q555 -52 555 -73 Q555 -84 560 -90.5 Q565 -97 572 -100 Q579 -103 587 -104 Q595 -105 601 -105 L637 -105 L637 -197 L563 -197 Q541 -197 515.5 -192 Q490 -187 470 -161 Q459 -146 457 -132.5 Q455 -119 455 -114 Q455 -94 468 -66 Q481 -38 513 0 L489 0 L448 138 L183 138 L142 0 L0 0 L239 706 Z M413 254 L316 579 L218 254 L413 254 Z " />
<glyph glyph-name="AE" unicode="&#xc6;" horiz-adv-x="1012" d="M408 706 L987 706 L987 588 L619 588 L619 420 L939 420 L939 304 L619 304 L619 120 L1002 120 L1002 0 L486 0 L486 165 L238 165 L144 0 L-10 0 L408 706 Z M486 284 L486 607 L305 284 L486 284 Z " />
<glyph glyph-name="Cacute" unicode="&#x106;" horiz-adv-x="698" d="M682 197 L678 187 Q658 137 631 102.5 Q604 68 574 45 Q544 22 513.5 9.5 Q483 -3 456 -9 Q429 -15 407.5 -16.5 Q386 -18 374 -18 Q314 -18 273 -3 Q232 12 207 27 Q150 62 118 109.5 Q86 157 70.5 204 Q55 251 51 291 Q47 331 47 351 L47 365 Q47 372 47.5 386.5 Q48 401 50.5 420 Q53 439 57.5 461 Q62 483 70 506 Q91 563 124.5 604.5 Q158 646 199.5 672.5 Q241 699 288.5 711.5 Q336 724 384 724 Q429 724 466 714.5 Q503 705 532.5 689 Q562 673 584 652.5 Q606 632 621 610 Q632 594 640.5 577 Q649 560 655 545.5 Q661 531 664.5 520 Q668 509 669 506 L538 472 Q536 488 527.5 511 Q519 534 501 554 Q483 574 454.5 588.5 Q426 603 384 603 Q350 603 315.5 589.5 Q281 576 253 546.5 Q225 517 207.5 471 Q190 425 190 360 Q190 294 206.5 246 Q223 198 250 167.5 Q277 137 312 122 Q347 107 384 107 Q427 107 458 123.5 Q489 140 509.5 163 Q530 186 541.5 210 Q553 234 557 249 L682 197 Z M369 895 L512 895 L405 775 L315 775 L369 895 Z " />
<glyph glyph-name="Ccaron" unicode="&#x10c;" horiz-adv-x="698" d="M682 197 L678 187 Q658 137 631 102.5 Q604 68 574 45 Q544 22 513.5 9.5 Q483 -3 456 -9 Q429 -15 407.5 -16.5 Q386 -18 374 -18 Q314 -18 273 -3 Q232 12 207 27 Q150 62 118 109.5 Q86 157 70.5 204 Q55 251 51 291 Q47 331 47 351 L47 365 Q47 372 47.5 386.5 Q48 401 50.5 420 Q53 439 57.5 461 Q62 483 70 506 Q91 563 124.5 604.5 Q158 646 199.5 672.5 Q241 699 288.5 711.5 Q336 724 384 724 Q429 724 466 714.5 Q503 705 532.5 689 Q562 673 584 652.5 Q606 632 621 610 Q632 594 640.5 577 Q649 560 655 545.5 Q661 531 664.5 520 Q668 509 669 506 L538 472 Q536 488 527.5 511 Q519 534 501 554 Q483 574 454.5 588.5 Q426 603 384 603 Q350 603 315.5 589.5 Q281 576 253 546.5 Q225 517 207.5 471 Q190 425 190 360 Q190 294 206.5 246 Q223 198 250 167.5 Q277 137 312 122 Q347 107 384 107 Q427 107 458 123.5 Q489 140 509.5 163 Q530 186 541.5 210 Q553 234 557 249 L682 197 Z M219 895 L338 895 L381 838 L423 895 L541 895 L441 771 L323 771 L219 895 Z " />
<glyph glyph-name="Ccedilla" unicode="&#xc7;" horiz-adv-x="698" d="M275 -154 Q281 -155 285.5 -155 Q290 -155 292 -155 Q303 -155 314.5 -154 Q326 -153 335 -150.5 Q344 -148 350 -143 Q356 -138 356 -130 Q356 -112 335 -108.5 Q314 -105 290 -105 Q276 -105 270 -107 L270 -92 L342 -16 Q295 -12 261.5 1 Q228 14 207 27 Q150 62 118 109.5 Q86 157 70.5 204 Q55 251 51 291 Q47 331 47 351 L47 365 Q47 372 47.5 386.5 Q48 401 50.5 420 Q53 439 57.5 461 Q62 483 70 506 Q91 563 124.5 604.5 Q158 646 199.5 672.5 Q241 699 288.5 711.5 Q336 724 384 724 Q429 724 466 714.5 Q503 705 532.5 689 Q562 673 584 652.5 Q606 632 621 610 Q632 594 640.5 577 Q649 560 655 545.5 Q661 531 664.5 520 Q668 509 669 506 L538 472 Q536 488 527.5 511 Q519 534 501 554 Q483 574 454.5 588.5 Q426 603 384 603 Q350 603 315.5 589.5 Q281 576 253 546.5 Q225 517 207.5 471 Q190 425 190 360 Q190 294 206.5 246 Q223 198 250 167.5 Q277 137 312 122 Q347 107 384 107 Q427 107 458 123.5 Q489 140 509.5 163 Q530 186 541.5 210 Q553 234 557 249 L682 197 L678 187 Q651 119 612 79 Q573 39 532 18 Q491 -3 453.5 -10 Q416 -17 392 -18 L370 -46 L378 -46 Q389 -46 405 -48.5 Q421 -51 435.5 -58 Q450 -65 460.5 -77.5 Q471 -90 471 -109 Q471 -126 464.5 -136.5 Q458 -147 453 -152 Q441 -164 422.5 -171 Q404 -178 384.5 -181.5 Q365 -185 347 -185.5 Q329 -186 317 -186 Q303 -186 292 -186 Q281 -186 275 -185 L275 -154 Z " />
<glyph glyph-name="Dcaron" unicode="&#x10e;" horiz-adv-x="720" d="M75 706 L328 706 Q377 706 409 701.5 Q441 697 462 690 Q504 676 542.5 648 Q581 620 610 577 Q639 534 656 476.5 Q673 419 673 346 Q673 277 658.5 228 Q644 179 629 150 Q599 94 558.5 64 Q518 34 474 19.5 Q430 5 384.5 2.5 Q339 0 300 0 L75 0 L75 706 Z M263 119 Q317 119 351.5 121 Q386 123 410 130 Q473 147 503 198.5 Q533 250 533 347 L533 360 Q533 376 529.5 407.5 Q526 439 511.5 473 Q497 507 468.5 536.5 Q440 566 390 579 Q372 584 345 585.5 Q318 587 277 587 L207 587 L207 119 L263 119 Z M147 895 L266 895 L309 838 L351 895 L469 895 L369 771 L251 771 L147 895 Z " />
<glyph glyph-name="Dcroat" unicode="&#x110;" horiz-adv-x="720" d="M75 326 L7 326 L7 416 L75 416 L75 706 L328 706 Q377 706 409 701.5 Q441 697 462 690 Q504 676 542.5 648 Q581 620 610 577 Q639 534 656 476.5 Q673 419 673 346 Q673 277 658.5 228 Q644 179 629 150 Q599 94 558.5 64 Q518 34 474 19.5 Q430 5 384.5 2.5 Q339 0 300 0 L75 0 L75 326 Z M263 119 Q317 119 351.5 121 Q386 123 410 130 Q473 147 503 198.5 Q533 250 533 347 L533 360 Q533 376 529.5 407.5 Q526 439 511.5 473 Q497 507 468.5 536.5 Q440 566 390 579 Q372 584 345 585.5 Q318 587 277 587 L207 587 L207 416 L361 416 L361 326 L207 326 L207 119 L263 119 Z " />
<glyph glyph-name="Egrave" unicode="&#xc8;" horiz-adv-x="612" d="M75 706 L577 706 L577 588 L205 588 L205 422 L546 422 L546 308 L205 308 L205 119 L602 119 L602 0 L75 0 L75 706 Z M211 895 L353 895 L407 774 L318 774 L211 895 Z " />
<glyph glyph-name="Eacute" unicode="&#xc9;" horiz-adv-x="612" d="M75 706 L577 706 L577 588 L205 588 L205 422 L546 422 L546 308 L205 308 L205 119 L602 119 L602 0 L75 0 L75 706 Z M334 895 L477 895 L370 775 L280 775 L334 895 Z " />
<glyph glyph-name="Ecircumflex" unicode="&#xca;" horiz-adv-x="612" d="M75 706 L577 706 L577 588 L205 588 L205 422 L546 422 L546 308 L205 308 L205 119 L602 119 L602 0 L75 0 L75 706 Z M267 895 L385 895 L490 773 L368 773 L326 829 L284 773 L166 773 L267 895 Z " />
<glyph glyph-name="Ecaron" unicode="&#x11a;" horiz-adv-x="612" d="M75 706 L577 706 L577 588 L205 588 L205 422 L546 422 L546 308 L205 308 L205 119 L602 119 L602 0 L75 0 L75 706 Z M159 895 L278 895 L321 838 L363 895 L481 895 L381 771 L263 771 L159 895 Z " />
<glyph glyph-name="Edieresis" unicode="&#xcb;" horiz-adv-x="612" d="M75 706 L577 706 L577 588 L205 588 L205 422 L546 422 L546 308 L205 308 L205 119 L602 119 L602 0 L75 0 L75 706 Z M380 895 L494 895 L494 772 L380 772 L380 895 Z M180 895 L293 895 L293 772 L180 772 L180 895 Z " />
<glyph glyph-name="Emacron" unicode="&#x112;" horiz-adv-x="612" d="M75 706 L577 706 L577 588 L205 588 L205 422 L546 422 L546 308 L205 308 L205 119 L602 119 L602 0 L75 0 L75 706 Z M150 868 L491 868 L491 778 L150 778 L150 868 Z " />
<glyph glyph-name="Edotaccent" unicode="&#x116;" horiz-adv-x="612" d="M75 706 L577 706 L577 588 L205 588 L205 422 L546 422 L546 308 L205 308 L205 119 L602 119 L602 0 L75 0 L75 706 Z M269 892 L403 892 L403 772 L269 772 L269 892 Z " />
<glyph glyph-name="Eogonek" unicode="&#x118;" horiz-adv-x="612" d="M75 706 L577 706 L577 588 L205 588 L205 422 L546 422 L546 308 L205 308 L205 119 L602 119 L602 0 L556 0 Q540 -20 527 -36 Q514 -52 514 -73 Q514 -84 519 -90.5 Q524 -97 531 -100 Q538 -103 546 -104 Q554 -105 560 -105 L596 -105 L596 -197 L522 -197 Q500 -197 474.5 -192 Q449 -187 429 -161 Q418 -146 416 -132.5 Q414 -119 414 -114 Q414 -94 427 -66 Q440 -38 472 0 L75 0 L75 706 Z " />
<glyph glyph-name="Gbreve" unicode="&#x11e;" horiz-adv-x="751" d="M573 60 Q566 54 561 49.5 Q556 45 548 39 Q522 18 496.5 6.5 Q471 -5 449.5 -10.5 Q428 -16 410.5 -17 Q393 -18 382 -18 L377 -18 Q298 -18 236.5 11.5 Q175 41 133 89.5 Q91 138 69 202.5 Q47 267 47 338 L47 346 Q47 362 50.5 402 Q54 442 70.5 491 Q87 540 121.5 590.5 Q156 641 218 678 Q246 694 272.5 703.5 Q299 713 322 717.5 Q345 722 362 723 Q379 724 388 724 Q425 724 464 715.5 Q503 707 539.5 687.5 Q576 668 609 636.5 Q642 605 666 560 Q674 546 679 533 Q684 520 686 516 L560 466 Q558 470 552.5 485.5 Q547 501 538 517 Q529 532 516 547.5 Q503 563 484.5 576 Q466 589 441 597 Q416 605 384 605 Q327 605 290 580 Q253 555 231 517 Q209 479 200 434.5 Q191 390 191 351 Q191 285 209 238.5 Q227 192 255.5 163 Q284 134 319 120.5 Q354 107 389 107 Q413 107 437.5 112.5 Q462 118 484.5 131 Q507 144 524.5 165 Q542 186 553 217 Q560 236 561.5 249.5 Q563 263 565 270 L389 270 L389 386 L686 386 L686 0 L573 0 L573 60 Z M332 896 Q333 888 336 879 Q339 870 346 862 Q353 854 364 848.5 Q375 843 393 843 Q411 843 421.5 849 Q432 855 438.5 863 Q445 871 447.5 880.5 Q450 890 452 896 L538 896 Q534 880 526 857.5 Q518 835 501.5 814.5 Q485 794 457.5 779.5 Q430 765 387 765 Q346 765 319.5 780.5 Q293 796 277 817.5 Q261 839 254 861 Q247 883 244 896 L332 896 Z " />
<glyph glyph-name="Gcommaaccent" unicode="&#x122;" horiz-adv-x="751" d="M573 60 Q566 54 561 49.5 Q556 45 548 39 Q522 18 496.5 6.5 Q471 -5 449.5 -10.5 Q428 -16 410.5 -17 Q393 -18 382 -18 L377 -18 Q298 -18 236.5 11.5 Q175 41 133 89.5 Q91 138 69 202.5 Q47 267 47 338 L47 346 Q47 362 50.5 402 Q54 442 70.5 491 Q87 540 121.5 590.5 Q156 641 218 678 Q246 694 272.5 703.5 Q299 713 322 717.5 Q345 722 362 723 Q379 724 388 724 Q425 724 464 715.5 Q503 707 539.5 687.5 Q576 668 609 636.5 Q642 605 666 560 Q674 546 679 533 Q684 520 686 516 L560 466 Q558 470 552.5 485.5 Q547 501 538 517 Q529 532 516 547.5 Q503 563 484.5 576 Q466 589 441 597 Q416 605 384 605 Q327 605 290 580 Q253 555 231 517 Q209 479 200 434.5 Q191 390 191 351 Q191 285 209 238.5 Q227 192 255.5 163 Q284 134 319 120.5 Q354 107 389 107 Q413 107 437.5 112.5 Q462 118 484.5 131 Q507 144 524.5 165 Q542 186 553 217 Q560 236 561.5 249.5 Q563 263 565 270 L389 270 L389 386 L686 386 L686 0 L573 0 L573 60 Z M326 -189 Q352 -178 361 -163.5 Q370 -149 374 -130 L332 -130 L332 -59 L425 -59 L425 -106 Q425 -124 422.5 -141.5 Q420 -159 411.5 -174 Q403 -189 388.5 -201.5 Q374 -214 350 -223 L326 -189 Z " />
<glyph glyph-name="Igrave" unicode="&#xcc;" horiz-adv-x="280" d="M75 706 L205 706 L205 0 L75 0 L75 706 Z M18 895 L160 895 L214 774 L125 774 L18 895 Z " />
<glyph glyph-name="Iacute" unicode="&#xcd;" horiz-adv-x="280" d="M75 706 L205 706 L205 0 L75 0 L75 706 Z M122 895 L265 895 L158 775 L68 775 L122 895 Z " />
<glyph glyph-name="Icircumflex" unicode="&#xce;" horiz-adv-x="280" d="M75 706 L205 706 L205 0 L75 0 L75 706 Z M79 895 L197 895 L302 773 L180 773 L138 829 L96 773 L-22 773 L79 895 Z " />
<glyph glyph-name="Idieresis" unicode="&#xcf;" horiz-adv-x="280" d="M75 706 L205 706 L205 0 L75 0 L75 706 Z M183 895 L297 895 L297 772 L183 772 L183 895 Z M-17 895 L96 895 L96 772 L-17 772 L-17 895 Z " />
<glyph glyph-name="Imacron" unicode="&#x12a;" horiz-adv-x="280" d="M75 706 L205 706 L205 0 L75 0 L75 706 Z M-31 868 L310 868 L310 778 L-31 778 L-31 868 Z " />
<glyph glyph-name="Idotaccent" unicode="&#x130;" horiz-adv-x="280" d="M75 706 L205 706 L205 0 L75 0 L75 706 Z M73 892 L207 892 L207 772 L73 772 L73 892 Z " />
<glyph glyph-name="Iogonek" unicode="&#x12e;" horiz-adv-x="280" d="M150 -197 Q128 -197 102.5 -192 Q77 -187 57 -161 Q46 -146 44 -132.5 Q42 -119 42 -114 Q42 -94 55 -66 Q68 -38 100 0 L75 0 L75 706 L205 706 L205 0 L184 0 Q168 -20 155 -36 Q142 -52 142 -73 Q142 -84 147 -90.5 Q152 -97 159 -100 Q166 -103 174 -104 Q182 -105 188 -105 L224 -105 L224 -197 L150 -197 Z " />
<glyph glyph-name="Kcommaaccent" unicode="&#x136;" horiz-adv-x="647" d="M75 706 L206 706 L206 382 L489 706 L644 706 L413 440 L660 0 L509 0 L321 332 L206 200 L206 0 L75 0 L75 706 Z M274 -189 Q300 -178 309 -163.5 Q318 -149 322 -130 L280 -130 L280 -59 L373 -59 L373 -106 Q373 -124 370.5 -141.5 Q368 -159 359.5 -174 Q351 -189 336.5 -201.5 Q322 -214 298 -223 L274 -189 Z " />
<glyph glyph-name="Lacute" unicode="&#x139;" horiz-adv-x="488" d="M75 706 L208 706 L208 120 L488 120 L488 0 L75 0 L75 706 Z M239 895 L382 895 L275 775 L185 775 L239 895 Z " />
<glyph glyph-name="Lcaron" unicode="&#x13d;" horiz-adv-x="488" d="M75 706 L208 706 L208 120 L488 120 L488 0 L75 0 L75 706 Z M287 522 Q319 535 330 558 Q341 581 342 616 L295 616 L295 706 L392 706 L392 616 Q392 570 375 538 Q358 506 311 488 L287 522 Z " />
<glyph glyph-name="Lcommaaccent" unicode="&#x13b;" horiz-adv-x="488" d="M75 706 L208 706 L208 120 L488 120 L488 0 L75 0 L75 706 Z M194 -189 Q220 -178 229 -163.5 Q238 -149 242 -130 L200 -130 L200 -59 L293 -59 L293 -106 Q293 -124 290.5 -141.5 Q288 -159 279.5 -174 Q271 -189 256.5 -201.5 Q242 -214 218 -223 L194 -189 Z " />
<glyph glyph-name="Lslash" unicode="&#x141;" horiz-adv-x="488" d="M75 146 L21 85 L21 219 L75 280 L75 706 L208 706 L208 429 L346 584 L346 450 L208 295 L208 120 L488 120 L488 0 L75 0 L75 146 Z " />
<glyph glyph-name="Nacute" unicode="&#x143;" horiz-adv-x="696" d="M75 706 L194 706 L507 208 L491 706 L621 706 L621 0 L505 0 L196 495 L204 0 L75 0 L75 706 Z M338 895 L481 895 L374 775 L284 775 L338 895 Z " />
<glyph glyph-name="Ncaron" unicode="&#x147;" horiz-adv-x="696" d="M75 706 L194 706 L507 208 L491 706 L621 706 L621 0 L505 0 L196 495 L204 0 L75 0 L75 706 Z M196 895 L315 895 L358 838 L400 895 L518 895 L418 771 L300 771 L196 895 Z " />
<glyph glyph-name="Ntilde" unicode="&#xd1;" horiz-adv-x="696" d="M75 706 L194 706 L507 208 L491 706 L621 706 L621 0 L505 0 L196 495 L204 0 L75 0 L75 706 Z M174 769 Q176 783 177.5 793.5 Q179 804 184 818 Q187 826 193.5 839 Q200 852 211.5 864.5 Q223 877 239 886 Q255 895 278 895 Q291 895 306 891.5 Q321 888 333.5 884 Q346 880 355.5 876 Q365 872 367 871 Q368 871 373.5 869 Q379 867 386.5 864 Q394 861 403 859 Q412 857 419 857 Q431 857 437.5 862 Q444 867 448 873 Q452 879 453.5 885.5 Q455 892 456 895 L534 895 Q534 894 531.5 874 Q529 854 519 830.5 Q509 807 489 787.5 Q469 768 433 768 Q419 768 404 771.5 Q389 775 376.5 779 Q364 783 354.5 787 Q345 791 342 792 Q339 794 321.5 800 Q304 806 287 806 Q276 806 269.5 800.5 Q263 795 259 788.5 Q255 782 253.5 776 Q252 770 252 769 L174 769 Z " />
<glyph glyph-name="Ncommaaccent" unicode="&#x145;" horiz-adv-x="696" d="M75 706 L194 706 L507 208 L491 706 L621 706 L621 0 L505 0 L196 495 L204 0 L75 0 L75 706 Z M298 -189 Q324 -178 333 -163.5 Q342 -149 346 -130 L304 -130 L304 -59 L397 -59 L397 -106 Q397 -124 394.5 -141.5 Q392 -159 383.5 -174 Q375 -189 360.5 -201.5 Q346 -214 322 -223 L298 -189 Z " />
<glyph glyph-name="Ograve" unicode="&#xd2;" horiz-adv-x="771" d="M238 14 Q205 30 171 59.5 Q137 89 109.5 131 Q82 173 64.5 228 Q47 283 47 350 Q47 412 61 462.5 Q75 513 97 553 Q119 593 147 622 Q175 651 204 670 Q231 688 276.5 706 Q322 724 388 724 Q433 724 480 711 Q527 698 572 669 Q602 649 629.5 620 Q657 591 678 552 Q699 513 711.5 463.5 Q724 414 724 353 Q724 285 704 219 Q693 186 671 145 Q649 104 611 67.5 Q573 31 517.5 6.5 Q462 -18 386 -18 Q333 -18 297 -7.5 Q261 3 238 14 Z M388 105 Q418 105 453.5 116.5 Q489 128 519.5 155.5 Q550 183 570.5 228 Q591 273 591 339 Q591 362 588.5 385.5 Q586 409 581 432 Q576 450 565 478.5 Q554 507 532 535 Q510 563 475 583 Q440 603 388 603 Q353 603 316.5 590.5 Q280 578 250.5 549 Q221 520 202 473 Q183 426 183 358 Q183 290 201.5 242 Q220 194 249.5 163.5 Q279 133 315.5 119 Q352 105 388 105 Z M263 895 L405 895 L459 774 L370 774 L263 895 Z " />
<glyph glyph-name="Oacute" unicode="&#xd3;" horiz-adv-x="771" d="M238 14 Q205 30 171 59.5 Q137 89 109.5 131 Q82 173 64.5 228 Q47 283 47 350 Q47 412 61 462.5 Q75 513 97 553 Q119 593 147 622 Q175 651 204 670 Q231 688 276.5 706 Q322 724 388 724 Q433 724 480 711 Q527 698 572 669 Q602 649 629.5 620 Q657 591 678 552 Q699 513 711.5 463.5 Q724 414 724 353 Q724 285 704 219 Q693 186 671 145 Q649 104 611 67.5 Q573 31 517.5 6.5 Q462 -18 386 -18 Q333 -18 297 -7.5 Q261 3 238 14 Z M388 105 Q418 105 453.5 116.5 Q489 128 519.5 155.5 Q550 183 570.5 228 Q591 273 591 339 Q591 362 588.5 385.5 Q586 409 581 432 Q576 450 565 478.5 Q554 507 532 535 Q510 563 475 583 Q440 603 388 603 Q353 603 316.5 590.5 Q280 578 250.5 549 Q221 520 202 473 Q183 426 183 358 Q183 290 201.5 242 Q220 194 249.5 163.5 Q279 133 315.5 119 Q352 105 388 105 Z M371 895 L514 895 L407 775 L317 775 L371 895 Z " />
<glyph glyph-name="Ocircumflex" unicode="&#xd4;" horiz-adv-x="771" d="M238 14 Q205 30 171 59.5 Q137 89 109.5 131 Q82 173 64.5 228 Q47 283 47 350 Q47 412 61 462.5 Q75 513 97 553 Q119 593 147 622 Q175 651 204 670 Q231 688 276.5 706 Q322 724 388 724 Q433 724 480 711 Q527 698 572 669 Q602 649 629.5 620 Q657 591 678 552 Q699 513 711.5 463.5 Q724 414 724 353 Q724 285 704 219 Q693 186 671 145 Q649 104 611 67.5 Q573 31 517.5 6.5 Q462 -18 386 -18 Q333 -18 297 -7.5 Q261 3 238 14 Z M388 105 Q418 105 453.5 116.5 Q489 128 519.5 155.5 Q550 183 570.5 228 Q591 273 591 339 Q591 362 588.5 385.5 Q586 409 581 432 Q576 450 565 478.5 Q554 507 532 535 Q510 563 475 583 Q440 603 388 603 Q353 603 316.5 590.5 Q280 578 250.5 549 Q221 520 202 473 Q183 426 183 358 Q183 290 201.5 242 Q220 194 249.5 163.5 Q279 133 315.5 119 Q352 105 388 105 Z M322 895 L440 895 L545 773 L423 773 L381 829 L339 773 L221 773 L322 895 Z " />
<glyph glyph-name="Otilde" unicode="&#xd5;" horiz-adv-x="771" d="M238 14 Q205 30 171 59.5 Q137 89 109.5 131 Q82 173 64.5 228 Q47 283 47 350 Q47 412 61 462.5 Q75 513 97 553 Q119 593 147 622 Q175 651 204 670 Q231 688 276.5 706 Q322 724 388 724 Q433 724 480 711 Q527 698 572 669 Q602 649 629.5 620 Q657 591 678 552 Q699 513 711.5 463.5 Q724 414 724 353 Q724 285 704 219 Q693 186 671 145 Q649 104 611 67.5 Q573 31 517.5 6.5 Q462 -18 386 -18 Q333 -18 297 -7.5 Q261 3 238 14 Z M388 105 Q418 105 453.5 116.5 Q489 128 519.5 155.5 Q550 183 570.5 228 Q591 273 591 339 Q591 362 588.5 385.5 Q586 409 581 432 Q576 450 565 478.5 Q554 507 532 535 Q510 563 475 583 Q440 603 388 603 Q353 603 316.5 590.5 Q280 578 250.5 549 Q221 520 202 473 Q183 426 183 358 Q183 290 201.5 242 Q220 194 249.5 163.5 Q279 133 315.5 119 Q352 105 388 105 Z M217 769 Q219 783 220.5 793.5 Q222 804 227 818 Q230 826 236.5 839 Q243 852 254.5 864.5 Q266 877 282 886 Q298 895 321 895 Q334 895 349 891.5 Q364 888 376.5 884 Q389 880 398.5 876 Q408 872 410 871 Q411 871 416.5 869 Q422 867 429.5 864 Q437 861 446 859 Q455 857 462 857 Q474 857 480.5 862 Q487 867 491 873 Q495 879 496.5 885.5 Q498 892 499 895 L577 895 Q577 894 574.5 874 Q572 854 562 830.5 Q552 807 532 787.5 Q512 768 476 768 Q462 768 447 771.5 Q432 775 419.5 779 Q407 783 397.5 787 Q388 791 385 792 Q382 794 364.5 800 Q347 806 330 806 Q319 806 312.5 800.5 Q306 795 302 788.5 Q298 782 296.5 776 Q295 770 295 769 L217 769 Z " />
<glyph glyph-name="Odieresis" unicode="&#xd6;" horiz-adv-x="771" d="M238 14 Q205 30 171 59.5 Q137 89 109.5 131 Q82 173 64.5 228 Q47 283 47 350 Q47 412 61 462.5 Q75 513 97 553 Q119 593 147 622 Q175 651 204 670 Q231 688 276.5 706 Q322 724 388 724 Q433 724 480 711 Q527 698 572 669 Q602 649 629.5 620 Q657 591 678 552 Q699 513 711.5 463.5 Q724 414 724 353 Q724 285 704 219 Q693 186 671 145 Q649 104 611 67.5 Q573 31 517.5 6.5 Q462 -18 386 -18 Q333 -18 297 -7.5 Q261 3 238 14 Z M388 105 Q418 105 453.5 116.5 Q489 128 519.5 155.5 Q550 183 570.5 228 Q591 273 591 339 Q591 362 588.5 385.5 Q586 409 581 432 Q576 450 565 478.5 Q554 507 532 535 Q510 563 475 583 Q440 603 388 603 Q353 603 316.5 590.5 Q280 578 250.5 549 Q221 520 202 473 Q183 426 183 358 Q183 290 201.5 242 Q220 194 249.5 163.5 Q279 133 315.5 119 Q352 105 388 105 Z M420 895 L534 895 L534 772 L420 772 L420 895 Z M220 895 L333 895 L333 772 L220 772 L220 895 Z " />
<glyph glyph-name="Omacron" unicode="&#x14c;" horiz-adv-x="771" d="M238 14 Q205 30 171 59.5 Q137 89 109.5 131 Q82 173 64.5 228 Q47 283 47 350 Q47 412 61 462.5 Q75 513 97 553 Q119 593 147 622 Q175 651 204 670 Q231 688 276.5 706 Q322 724 388 724 Q433 724 480 711 Q527 698 572 669 Q602 649 629.5 620 Q657 591 678 552 Q699 513 711.5 463.5 Q724 414 724 353 Q724 285 704 219 Q693 186 671 145 Q649 104 611 67.5 Q573 31 517.5 6.5 Q462 -18 386 -18 Q333 -18 297 -7.5 Q261 3 238 14 Z M388 105 Q418 105 453.5 116.5 Q489 128 519.5 155.5 Q550 183 570.5 228 Q591 273 591 339 Q591 362 588.5 385.5 Q586 409 581 432 Q576 450 565 478.5 Q554 507 532 535 Q510 563 475 583 Q440 603 388 603 Q353 603 316.5 590.5 Q280 578 250.5 549 Q221 520 202 473 Q183 426 183 358 Q183 290 201.5 242 Q220 194 249.5 163.5 Q279 133 315.5 119 Q352 105 388 105 Z M215 868 L556 868 L556 778 L215 778 L215 868 Z " />
<glyph glyph-name="Ohungarumlaut" unicode="&#x150;" horiz-adv-x="771" d="M238 14 Q205 30 171 59.5 Q137 89 109.5 131 Q82 173 64.5 228 Q47 283 47 350 Q47 412 61 462.5 Q75 513 97 553 Q119 593 147 622 Q175 651 204 670 Q231 688 276.5 706 Q322 724 388 724 Q433 724 480 711 Q527 698 572 669 Q602 649 629.5 620 Q657 591 678 552 Q699 513 711.5 463.5 Q724 414 724 353 Q724 285 704 219 Q693 186 671 145 Q649 104 611 67.5 Q573 31 517.5 6.5 Q462 -18 386 -18 Q333 -18 297 -7.5 Q261 3 238 14 Z M388 105 Q418 105 453.5 116.5 Q489 128 519.5 155.5 Q550 183 570.5 228 Q591 273 591 339 Q591 362 588.5 385.5 Q586 409 581 432 Q576 450 565 478.5 Q554 507 532 535 Q510 563 475 583 Q440 603 388 603 Q353 603 316.5 590.5 Q280 578 250.5 549 Q221 520 202 473 Q183 426 183 358 Q183 290 201.5 242 Q220 194 249.5 163.5 Q279 133 315.5 119 Q352 105 388 105 Z M519 775 L429 775 L483 895 L626 895 L519 775 Z M335 775 L245 775 L299 895 L442 895 L335 775 Z " />
<glyph glyph-name="Oslash" unicode="&#xd8;" horiz-adv-x="771" d="M22 99 L92 161 Q72 199 59.5 246 Q47 293 47 350 Q47 412 61 462.5 Q75 513 97 553 Q119 593 147 622 Q175 651 204 670 Q231 688 276.5 706 Q322 724 388 724 Q433 724 480 711 Q527 698 572 669 Q596 652 620 630 L680 683 L739 616 L674 558 Q697 519 710.5 468 Q724 417 724 353 Q724 285 704 219 Q693 186 671 145 Q649 104 611 67.5 Q573 31 517.5 6.5 Q462 -18 386 -18 Q333 -18 297 -7.5 Q261 3 238 14 Q214 26 189.5 44.5 Q165 63 142 89 L79 33 L22 99 Z M524 544 Q502 569 469 586 Q436 603 388 603 Q353 603 316.5 590.5 Q280 578 250.5 549 Q221 520 202 473 Q183 426 183 358 Q183 302 197 255 L524 544 Z M240 175 Q270 138 309.5 121.5 Q349 105 388 105 Q418 105 453.5 116.5 Q489 128 519.5 155.5 Q550 183 570.5 228 Q591 273 591 339 Q591 362 588.5 385.5 Q586 409 581 432 Q578 447 570 467 L240 175 Z " />
<glyph glyph-name="OE" unicode="&#x152;" horiz-adv-x="1087" d="M551 25 Q537 18 521.5 10.5 Q506 3 485.5 -3.5 Q465 -10 438.5 -14 Q412 -18 377 -18 Q311 -18 259.5 3 Q208 24 170.5 56.5 Q133 89 108.5 126.5 Q84 164 72 197 Q63 221 57.5 244.5 Q52 268 50 288 Q48 308 47.5 323 Q47 338 47 346 Q47 401 58 441.5 Q69 482 77 504 Q98 557 131.5 598 Q165 639 206 667 Q247 695 293 709.5 Q339 724 386 724 Q443 724 482.5 708.5 Q522 693 551 676 L551 706 L1055 706 L1055 586 L682 586 L682 417 L1007 417 L1007 303 L682 303 L682 119 L1077 119 L1077 0 L551 0 L551 25 Z M551 454 Q551 479 550 496 Q549 513 544 523 Q537 537 523.5 550.5 Q510 564 491 575 Q472 586 448 592.5 Q424 599 397 599 Q361 599 323.5 585 Q286 571 256 540 Q226 509 207 460.5 Q188 412 188 343 L188 334 Q188 320 191 292 Q194 264 206 232 Q218 200 243 168.5 Q268 137 312 117 Q327 110 341.5 106.5 Q356 103 368.5 101.5 Q381 100 390.5 99.5 Q400 99 404 99 Q450 99 482 114 Q514 129 532 151 Q543 165 546.5 174 Q550 183 551 188 L551 454 Z " />
<glyph glyph-name="Racute" unicode="&#x154;" horiz-adv-x="640" d="M75 706 L335 706 Q362 706 391 704 Q420 702 448.5 693 Q477 684 504 667 Q531 650 554 620 Q579 588 588 553 Q597 518 597 486 Q597 440 583.5 405.5 Q570 371 549.5 347 Q529 323 504.5 308.5 Q480 294 458 288 L615 0 L464 0 L325 262 L206 262 L206 0 L75 0 L75 706 Z M298 372 Q321 372 350 374 Q379 376 404 387 Q429 398 446 420.5 Q463 443 463 484 Q463 521 448 542.5 Q433 564 412 575 Q391 586 368.5 589 Q346 592 331 592 L206 592 L206 372 L298 372 Z M279 895 L422 895 L315 775 L225 775 L279 895 Z " />
<glyph glyph-name="Rcaron" unicode="&#x158;" horiz-adv-x="640" d="M75 706 L335 706 Q362 706 391 704 Q420 702 448.5 693 Q477 684 504 667 Q531 650 554 620 Q579 588 588 553 Q597 518 597 486 Q597 440 583.5 405.5 Q570 371 549.5 347 Q529 323 504.5 308.5 Q480 294 458 288 L615 0 L464 0 L325 262 L206 262 L206 0 L75 0 L75 706 Z M298 372 Q321 372 350 374 Q379 376 404 387 Q429 398 446 420.5 Q463 443 463 484 Q463 521 448 542.5 Q433 564 412 575 Q391 586 368.5 589 Q346 592 331 592 L206 592 L206 372 L298 372 Z M123 895 L242 895 L285 838 L327 895 L445 895 L345 771 L227 771 L123 895 Z " />
<glyph glyph-name="Rcommaaccent" unicode="&#x156;" horiz-adv-x="640" d="M75 706 L335 706 Q362 706 391 704 Q420 702 448.5 693 Q477 684 504 667 Q531 650 554 620 Q579 588 588 553 Q597 518 597 486 Q597 440 583.5 405.5 Q570 371 549.5 347 Q529 323 504.5 308.5 Q480 294 458 288 L615 0 L464 0 L325 262 L206 262 L206 0 L75 0 L75 706 Z M298 372 Q321 372 350 374 Q379 376 404 387 Q429 398 446 420.5 Q463 443 463 484 Q463 521 448 542.5 Q433 564 412 575 Q391 586 368.5 589 Q346 592 331 592 L206 592 L206 372 L298 372 Z M270 -189 Q296 -178 305 -163.5 Q314 -149 318 -130 L276 -130 L276 -59 L369 -59 L369 -106 Q369 -124 366.5 -141.5 Q364 -159 355.5 -174 Q347 -189 332.5 -201.5 Q318 -214 294 -223 L270 -189 Z " />
<glyph glyph-name="Sacute" unicode="&#x15a;" horiz-adv-x="667" d="M129 210 Q136 201 138 197.5 Q140 194 151 181 Q179 150 226 127 Q273 104 346 104 Q412 104 448 128.5 Q484 153 484 196 Q484 211 479 224 Q474 237 459 250 Q450 258 435 264 Q420 270 404 274.5 Q388 279 372.5 282.5 Q357 286 348 288 L264 307 Q256 309 237.5 312.5 Q219 316 195.5 323.5 Q172 331 147.5 344.5 Q123 358 102.5 379 Q82 400 69 430.5 Q56 461 56 504 Q56 513 59 541.5 Q62 570 80 602 Q111 657 175 690.5 Q239 724 336 724 Q367 724 400.5 719 Q434 714 467.5 701 Q501 688 533.5 666.5 Q566 645 596 611 Q603 603 608 596 Q613 589 620 581 L511 500 Q506 508 501 515.5 Q496 523 484 537 Q462 562 425.5 583.5 Q389 605 331 605 Q271 605 233 581 Q195 557 195 519 Q195 498 205 484.5 Q215 471 232 462 Q249 453 273 447 Q297 441 325 435 L398 419 Q401 418 409.5 416.5 Q418 415 429.5 412 Q441 409 454 405 Q467 401 479 397 Q529 379 558.5 355.5 Q588 332 603 306.5 Q618 281 622.5 256.5 Q627 232 627 213 Q627 155 605.5 115.5 Q584 76 554 51 Q524 26 492 13 Q460 0 439 -5 Q423 -9 394 -13.5 Q365 -18 326 -18 L322 -18 Q310 -18 282.5 -16.5 Q255 -15 219.5 -6 Q184 3 144 21 Q104 39 68 72 Q47 91 34 109 Q21 127 18 133 L129 210 Z M308 895 L451 895 L344 775 L254 775 L308 895 Z " />
<glyph glyph-name="Scaron" unicode="&#x160;" horiz-adv-x="667" d="M129 210 Q136 201 138 197.5 Q140 194 151 181 Q179 150 226 127 Q273 104 346 104 Q412 104 448 128.5 Q484 153 484 196 Q484 211 479 224 Q474 237 459 250 Q450 258 435 264 Q420 270 404 274.5 Q388 279 372.5 282.5 Q357 286 348 288 L264 307 Q256 309 237.5 312.5 Q219 316 195.5 323.5 Q172 331 147.5 344.5 Q123 358 102.5 379 Q82 400 69 430.5 Q56 461 56 504 Q56 513 59 541.5 Q62 570 80 602 Q111 657 175 690.5 Q239 724 336 724 Q367 724 400.5 719 Q434 714 467.5 701 Q501 688 533.5 666.5 Q566 645 596 611 Q603 603 608 596 Q613 589 620 581 L511 500 Q506 508 501 515.5 Q496 523 484 537 Q462 562 425.5 583.5 Q389 605 331 605 Q271 605 233 581 Q195 557 195 519 Q195 498 205 484.5 Q215 471 232 462 Q249 453 273 447 Q297 441 325 435 L398 419 Q401 418 409.5 416.5 Q418 415 429.5 412 Q441 409 454 405 Q467 401 479 397 Q529 379 558.5 355.5 Q588 332 603 306.5 Q618 281 622.5 256.5 Q627 232 627 213 Q627 155 605.5 115.5 Q584 76 554 51 Q524 26 492 13 Q460 0 439 -5 Q423 -9 394 -13.5 Q365 -18 326 -18 L322 -18 Q310 -18 282.5 -16.5 Q255 -15 219.5 -6 Q184 3 144 21 Q104 39 68 72 Q47 91 34 109 Q21 127 18 133 L129 210 Z M180 895 L299 895 L342 838 L384 895 L502 895 L402 771 L284 771 L180 895 Z " />
<glyph glyph-name="Scedilla" unicode="&#x15e;" horiz-adv-x="667" d="M238 -154 Q244 -155 248.5 -155 Q253 -155 255 -155 Q266 -155 277.5 -154 Q289 -153 298 -150.5 Q307 -148 313 -143 Q319 -138 319 -130 Q319 -112 298 -108.5 Q277 -105 253 -105 Q239 -105 233 -107 L233 -92 L304 -18 Q286 -17 259 -13.5 Q232 -10 199.5 -0.5 Q167 9 133 26 Q99 43 68 72 Q47 91 34 109 Q21 127 18 133 L129 210 Q136 201 138 197.5 Q140 194 151 181 Q179 150 226 127 Q273 104 346 104 Q412 104 448 128.5 Q484 153 484 196 Q484 211 479 224 Q474 237 459 250 Q450 258 435 264 Q420 270 404 274.5 Q388 279 372.5 282.5 Q357 286 348 288 L264 307 Q256 309 237.5 312.5 Q219 316 195.5 323.5 Q172 331 147.5 344.5 Q123 358 102.5 379 Q82 400 69 430.5 Q56 461 56 504 Q56 513 59 541.5 Q62 570 80 602 Q111 657 175 690.5 Q239 724 336 724 Q367 724 400.5 719 Q434 714 467.5 701 Q501 688 533.5 666.5 Q566 645 596 611 Q603 603 608 596 Q613 589 620 581 L511 500 Q506 508 501 515.5 Q496 523 484 537 Q462 562 425.5 583.5 Q389 605 331 605 Q271 605 233 581 Q195 557 195 519 Q195 498 205 484.5 Q215 471 232 462 Q249 453 273 447 Q297 441 325 435 L398 419 Q401 418 409.5 416.5 Q418 415 429.5 412 Q441 409 454 405 Q467 401 479 397 Q529 379 558.5 355.5 Q588 332 603 306.5 Q618 281 622.5 256.5 Q627 232 627 213 Q627 155 605.5 115.5 Q584 76 554 51 Q524 26 492 13 Q460 0 439 -5 Q426 -8 405 -11.5 Q384 -15 355 -17 L333 -46 L341 -46 Q352 -46 368 -48.5 Q384 -51 398.5 -58 Q413 -65 423.5 -77.5 Q434 -90 434 -109 Q434 -126 427.5 -136.5 Q421 -147 416 -152 Q404 -164 385.5 -171 Q367 -178 347.5 -181.5 Q328 -185 310 -185.5 Q292 -186 280 -186 Q266 -186 255 -186 Q244 -186 238 -185 L238 -154 Z " />
<glyph glyph-name="Scommaaccent" unicode="&#x218;" horiz-adv-x="667" d="M129 210 Q136 201 138 197.5 Q140 194 151 181 Q179 150 226 127 Q273 104 346 104 Q412 104 448 128.5 Q484 153 484 196 Q484 211 479 224 Q474 237 459 250 Q450 258 435 264 Q420 270 404 274.5 Q388 279 372.5 282.5 Q357 286 348 288 L264 307 Q256 309 237.5 312.5 Q219 316 195.5 323.5 Q172 331 147.5 344.5 Q123 358 102.5 379 Q82 400 69 430.5 Q56 461 56 504 Q56 513 59 541.5 Q62 570 80 602 Q111 657 175 690.5 Q239 724 336 724 Q367 724 400.5 719 Q434 714 467.5 701 Q501 688 533.5 666.5 Q566 645 596 611 Q603 603 608 596 Q613 589 620 581 L511 500 Q506 508 501 515.5 Q496 523 484 537 Q462 562 425.5 583.5 Q389 605 331 605 Q271 605 233 581 Q195 557 195 519 Q195 498 205 484.5 Q215 471 232 462 Q249 453 273 447 Q297 441 325 435 L398 419 Q401 418 409.5 416.5 Q418 415 429.5 412 Q441 409 454 405 Q467 401 479 397 Q529 379 558.5 355.5 Q588 332 603 306.5 Q618 281 622.5 256.5 Q627 232 627 213 Q627 155 605.5 115.5 Q584 76 554 51 Q524 26 492 13 Q460 0 439 -5 Q423 -9 394 -13.5 Q365 -18 326 -18 L322 -18 Q310 -18 282.5 -16.5 Q255 -15 219.5 -6 Q184 3 144 21 Q104 39 68 72 Q47 91 34 109 Q21 127 18 133 L129 210 Z M284 -189 Q310 -178 319 -163.5 Q328 -149 332 -130 L290 -130 L290 -59 L383 -59 L383 -106 Q383 -124 380.5 -141.5 Q378 -159 369.5 -174 Q361 -189 346.5 -201.5 Q332 -214 308 -223 L284 -189 Z " />
<glyph glyph-name="Tcaron" unicode="&#x164;" horiz-adv-x="539" d="M202 587 L10 587 L10 706 L529 706 L529 587 L334 587 L334 0 L202 0 L202 587 Z M108 895 L227 895 L270 838 L312 895 L430 895 L330 771 L212 771 L108 895 Z " />
<glyph glyph-name="Tcommaaccent" unicode="&#x162;" horiz-adv-x="539" d="M202 587 L10 587 L10 706 L529 706 L529 587 L334 587 L334 0 L294 0 L259 -46 L267 -46 Q278 -46 294 -48.5 Q310 -51 324.5 -58 Q339 -65 349.5 -77.5 Q360 -90 360 -109 Q360 -126 353.5 -136.5 Q347 -147 342 -152 Q330 -164 311.5 -171 Q293 -178 273.5 -181.5 Q254 -185 236 -185.5 Q218 -186 206 -186 Q192 -186 181 -186 Q170 -186 164 -185 L164 -154 Q170 -155 174.5 -155 Q179 -155 181 -155 Q192 -155 203.5 -154 Q215 -153 224 -150.5 Q233 -148 239 -143 Q245 -138 245 -130 Q245 -112 224 -108.5 Q203 -105 179 -105 Q165 -105 159 -107 L159 -92 L247 0 L202 0 L202 587 Z " />
<glyph glyph-name="uni021A" unicode="&#x21a;" horiz-adv-x="539" d="M202 587 L10 587 L10 706 L529 706 L529 587 L334 587 L334 0 L202 0 L202 587 Z M217 -189 Q243 -178 252 -163.5 Q261 -149 265 -130 L223 -130 L223 -59 L316 -59 L316 -106 Q316 -124 313.5 -141.5 Q311 -159 302.5 -174 Q294 -189 279.5 -201.5 Q265 -214 241 -223 L217 -189 Z " />
<glyph glyph-name="Ugrave" unicode="&#xd9;" horiz-adv-x="699" d="M65 706 L198 706 L198 255 Q198 231 200.5 214 Q203 197 207 188 Q217 162 234 146.5 Q251 131 271 123 Q291 115 312 112.5 Q333 110 350 110 Q368 110 389 113 Q410 116 430 125 Q450 134 467.5 150.5 Q485 167 494 194 Q499 210 500.5 228.5 Q502 247 502 279 L502 706 L634 706 L634 299 L634 255 Q634 227 632.5 198 Q631 169 623 146 Q612 111 588.5 81 Q565 51 529.5 29 Q494 7 447.5 -5.5 Q401 -18 344 -18 Q287 -18 241.5 -5 Q196 8 162 30.5 Q128 53 106 83.5 Q84 114 74 149 Q67 173 66 204 Q65 235 65 286 L65 706 Z M213 895 L355 895 L409 774 L320 774 L213 895 Z " />
<glyph glyph-name="Uacute" unicode="&#xda;" horiz-adv-x="699" d="M65 706 L198 706 L198 255 Q198 231 200.5 214 Q203 197 207 188 Q217 162 234 146.5 Q251 131 271 123 Q291 115 312 112.5 Q333 110 350 110 Q368 110 389 113 Q410 116 430 125 Q450 134 467.5 150.5 Q485 167 494 194 Q499 210 500.5 228.5 Q502 247 502 279 L502 706 L634 706 L634 299 L634 255 Q634 227 632.5 198 Q631 169 623 146 Q612 111 588.5 81 Q565 51 529.5 29 Q494 7 447.5 -5.5 Q401 -18 344 -18 Q287 -18 241.5 -5 Q196 8 162 30.5 Q128 53 106 83.5 Q84 114 74 149 Q67 173 66 204 Q65 235 65 286 L65 706 Z M346 895 L489 895 L382 775 L292 775 L346 895 Z " />
<glyph glyph-name="Ucircumflex" unicode="&#xdb;" horiz-adv-x="699" d="M65 706 L198 706 L198 255 Q198 231 200.5 214 Q203 197 207 188 Q217 162 234 146.5 Q251 131 271 123 Q291 115 312 112.5 Q333 110 350 110 Q368 110 389 113 Q410 116 430 125 Q450 134 467.5 150.5 Q485 167 494 194 Q499 210 500.5 228.5 Q502 247 502 279 L502 706 L634 706 L634 299 L634 255 Q634 227 632.5 198 Q631 169 623 146 Q612 111 588.5 81 Q565 51 529.5 29 Q494 7 447.5 -5.5 Q401 -18 344 -18 Q287 -18 241.5 -5 Q196 8 162 30.5 Q128 53 106 83.5 Q84 114 74 149 Q67 173 66 204 Q65 235 65 286 L65 706 Z M288 895 L406 895 L511 773 L389 773 L347 829 L305 773 L187 773 L288 895 Z " />
<glyph glyph-name="Udieresis" unicode="&#xdc;" horiz-adv-x="699" d="M65 706 L198 706 L198 255 Q198 231 200.5 214 Q203 197 207 188 Q217 162 234 146.5 Q251 131 271 123 Q291 115 312 112.5 Q333 110 350 110 Q368 110 389 113 Q410 116 430 125 Q450 134 467.5 150.5 Q485 167 494 194 Q499 210 500.5 228.5 Q502 247 502 279 L502 706 L634 706 L634 299 L634 255 Q634 227 632.5 198 Q631 169 623 146 Q612 111 588.5 81 Q565 51 529.5 29 Q494 7 447.5 -5.5 Q401 -18 344 -18 Q287 -18 241.5 -5 Q196 8 162 30.5 Q128 53 106 83.5 Q84 114 74 149 Q67 173 66 204 Q65 235 65 286 L65 706 Z M392 895 L506 895 L506 772 L392 772 L392 895 Z M192 895 L305 895 L305 772 L192 772 L192 895 Z " />
<glyph glyph-name="Umacron" unicode="&#x16a;" horiz-adv-x="699" d="M65 706 L198 706 L198 255 Q198 231 200.5 214 Q203 197 207 188 Q217 162 234 146.5 Q251 131 271 123 Q291 115 312 112.5 Q333 110 350 110 Q368 110 389 113 Q410 116 430 125 Q450 134 467.5 150.5 Q485 167 494 194 Q499 210 500.5 228.5 Q502 247 502 279 L502 706 L634 706 L634 299 L634 255 Q634 227 632.5 198 Q631 169 623 146 Q612 111 588.5 81 Q565 51 529.5 29 Q494 7 447.5 -5.5 Q401 -18 344 -18 Q287 -18 241.5 -5 Q196 8 162 30.5 Q128 53 106 83.5 Q84 114 74 149 Q67 173 66 204 Q65 235 65 286 L65 706 Z M179 868 L520 868 L520 778 L179 778 L179 868 Z " />
<glyph glyph-name="Uring" unicode="&#x16e;" horiz-adv-x="699" d="M65 706 L198 706 L198 255 Q198 231 200.5 214 Q203 197 207 188 Q217 162 234 146.5 Q251 131 271 123 Q291 115 312 112.5 Q333 110 350 110 Q368 110 389 113 Q410 116 430 125 Q450 134 467.5 150.5 Q485 167 494 194 Q499 210 500.5 228.5 Q502 247 502 279 L502 706 L634 706 L634 299 L634 255 Q634 227 632.5 198 Q631 169 623 146 Q612 111 588.5 81 Q565 51 529.5 29 Q494 7 447.5 -5.5 Q401 -18 344 -18 Q287 -18 241.5 -5 Q196 8 162 30.5 Q128 53 106 83.5 Q84 114 74 149 Q67 173 66 204 Q65 235 65 286 L65 706 Z M248 862 Q248 883 256 901.5 Q264 920 277.5 933.5 Q291 947 309.5 955 Q328 963 349 963 Q370 963 388.5 955 Q407 947 420.5 933.5 Q434 920 442 901.5 Q450 883 450 862 Q450 841 442 822.5 Q434 804 420.5 790.5 Q407 777 388.5 769 Q370 761 349 761 Q328 761 309.5 769 Q291 777 277.5 790.5 Q264 804 256 822.5 Q248 841 248 862 Z M349 820 Q366 820 378.5 832.5 Q391 845 391 862 Q391 879 378.5 891.5 Q366 904 349 904 Q332 904 319.5 891.5 Q307 879 307 862 Q307 845 319.5 832.5 Q332 820 349 820 Z " />
<glyph glyph-name="Uhungarumlaut" unicode="&#x170;" horiz-adv-x="699" d="M65 706 L198 706 L198 255 Q198 231 200.5 214 Q203 197 207 188 Q217 162 234 146.5 Q251 131 271 123 Q291 115 312 112.5 Q333 110 350 110 Q368 110 389 113 Q410 116 430 125 Q450 134 467.5 150.5 Q485 167 494 194 Q499 210 500.5 228.5 Q502 247 502 279 L502 706 L634 706 L634 299 L634 255 Q634 227 632.5 198 Q631 169 623 146 Q612 111 588.5 81 Q565 51 529.5 29 Q494 7 447.5 -5.5 Q401 -18 344 -18 Q287 -18 241.5 -5 Q196 8 162 30.5 Q128 53 106 83.5 Q84 114 74 149 Q67 173 66 204 Q65 235 65 286 L65 706 Z M480 775 L390 775 L444 895 L587 895 L480 775 Z M296 775 L206 775 L260 895 L403 895 L296 775 Z " />
<glyph glyph-name="Uogonek" unicode="&#x172;" horiz-adv-x="699" d="M375 -197 Q353 -197 327.5 -192 Q302 -187 282 -161 Q271 -146 269 -132.5 Q267 -119 267 -114 Q267 -96 277 -72.5 Q287 -49 312 -17 Q212 -9 152 37 Q92 83 74 149 Q67 173 66 204 Q65 235 65 286 L65 706 L198 706 L198 255 Q198 231 200.5 214 Q203 197 207 188 Q217 162 234 146.5 Q251 131 271 123 Q291 115 312 112.5 Q333 110 350 110 Q368 110 389 113 Q410 116 430 125 Q450 134 467.5 150.5 Q485 167 494 194 Q499 210 500.5 228.5 Q502 247 502 279 L502 706 L634 706 L634 255 Q634 227 632.5 198 Q631 169 623 146 Q603 83 545.5 39.5 Q488 -4 396 -15 Q384 -29 375.5 -42.5 Q367 -56 367 -73 Q367 -84 372 -90.5 Q377 -97 384 -100 Q391 -103 399 -104 Q407 -105 413 -105 L449 -105 L449 -197 L375 -197 Z " />
<glyph glyph-name="Yacute" unicode="&#xdd;" horiz-adv-x="605" d="M236 279 L0 706 L150 706 L303 414 L457 706 L605 706 L367 279 L367 0 L236 0 L236 279 Z M307 895 L450 895 L343 775 L253 775 L307 895 Z " />
<glyph glyph-name="Ydieresis" unicode="&#x178;" horiz-adv-x="605" d="M236 279 L0 706 L150 706 L303 414 L457 706 L605 706 L367 279 L367 0 L236 0 L236 279 Z M346 895 L460 895 L460 772 L346 772 L346 895 Z M146 895 L259 895 L259 772 L146 772 L146 895 Z " />
<glyph glyph-name="Zacute" unicode="&#x179;" horiz-adv-x="604" d="M24 108 L410 588 L57 588 L57 706 L575 706 L575 594 L204 119 L575 119 L575 0 L24 0 L24 108 Z M290 895 L433 895 L326 775 L236 775 L290 895 Z " />
<glyph glyph-name="Zcaron" unicode="&#x17d;" horiz-adv-x="604" d="M24 108 L410 588 L57 588 L57 706 L575 706 L575 594 L204 119 L575 119 L575 0 L24 0 L24 108 Z M157 895 L276 895 L319 838 L361 895 L479 895 L379 771 L261 771 L157 895 Z " />
<glyph glyph-name="Zdotaccent" unicode="&#x17b;" horiz-adv-x="604" d="M24 108 L410 588 L57 588 L57 706 L575 706 L575 594 L204 119 L575 119 L575 0 L24 0 L24 108 Z M235 892 L369 892 L369 772 L235 772 L235 892 Z " />
<glyph glyph-name="Eth" unicode="&#xd0;" horiz-adv-x="720" d="M75 326 L7 326 L7 416 L75 416 L75 706 L328 706 Q377 706 409 701.5 Q441 697 462 690 Q504 676 542.5 648 Q581 620 610 577 Q639 534 656 476.5 Q673 419 673 346 Q673 277 658.5 228 Q644 179 629 150 Q599 94 558.5 64 Q518 34 474 19.5 Q430 5 384.5 2.5 Q339 0 300 0 L75 0 L75 326 Z M263 119 Q317 119 351.5 121 Q386 123 410 130 Q473 147 503 198.5 Q533 250 533 347 L533 360 Q533 376 529.5 407.5 Q526 439 511.5 473 Q497 507 468.5 536.5 Q440 566 390 579 Q372 584 345 585.5 Q318 587 277 587 L207 587 L207 416 L361 416 L361 326 L207 326 L207 119 L263 119 Z " />
<glyph glyph-name="Thorn" unicode="&#xde;" horiz-adv-x="623" d="M75 706 L207 706 L207 606 L313 606 Q340 606 371 604.5 Q402 603 433 594.5 Q464 586 494.5 568.5 Q525 551 551 519 Q569 497 579 474 Q589 451 593.5 430.5 Q598 410 599 395.5 Q600 381 600 375 Q600 341 592 304 Q584 267 561 234 Q538 201 509.5 182 Q481 163 450.5 154 Q420 145 389.5 142.5 Q359 140 334 140 L207 140 L207 0 L75 0 L75 706 Z M302 248 Q363 248 398 261 Q433 274 452 315 Q461 335 462.5 353.5 Q464 372 464 377 Q464 400 459 416 Q454 432 447 442 Q426 474 393.5 483.5 Q361 493 308 493 L207 493 L207 248 L302 248 Z " />
<glyph glyph-name="a" unicode="a" horiz-adv-x="542" d="M358 0 Q357 11 356.5 19.5 Q356 28 356 39 Q347 31 332 22.5 Q317 14 298 6 Q279 -2 256 -7 Q233 -12 208 -12 Q175 -12 142 -2.5 Q109 7 83.5 26.5 Q58 46 42 75.5 Q26 105 26 145 Q26 177 36 199.5 Q46 222 57 236 Q75 258 96 272 Q117 286 141.5 294 Q166 302 192.5 307.5 Q219 313 248 319 Q279 325 303.5 331.5 Q328 338 358 347 Q358 377 349 391 Q327 422 268 422 Q254 422 237 419 Q220 416 205.5 408.5 Q191 401 181 387.5 Q171 374 171 353 L171 347 L49 354 Q49 359 52.5 381 Q56 403 67 424 Q91 469 141.5 492 Q192 515 272 515 Q291 515 319 512.5 Q347 510 375.5 501.5 Q404 493 429 476 Q454 459 467 430 Q475 414 476.5 394 Q478 374 478 357 L478 70 Q478 48 482 34.5 Q486 21 500 0 L358 0 Z M358 249 Q324 234 294 227.5 Q264 221 239 216.5 Q214 212 195 205.5 Q176 199 164 183 Q156 172 154.5 162.5 Q153 153 153 150 Q153 124 172.5 107.5 Q192 91 234 91 Q247 91 263.5 93.5 Q280 96 296.5 102.5 Q313 109 328 120.5 Q343 132 352 150 Q356 158 357 168.5 Q358 179 358 184 L358 249 Z " />
<glyph glyph-name="b" unicode="b" horiz-adv-x="582" d="M62 706 L181 706 L181 458 Q216 489 252 502 Q288 515 326 515 Q362 515 389 503.5 Q416 492 430 484 Q452 470 473 449 Q494 428 510 399.5 Q526 371 535.5 335.5 Q545 300 545 257 Q545 174 515 116.5 Q485 59 446 29 Q426 14 406 5.5 Q386 -3 369 -7.5 Q352 -12 339 -13.5 Q326 -15 320 -15 L313 -15 Q303 -15 288.5 -13 Q274 -11 257 -4 Q240 3 220.5 16 Q201 29 181 52 L181 0 L62 0 L62 706 Z M235 120 Q245 113 262 106 Q279 99 302 99 Q337 99 360.5 115 Q384 131 397.5 155.5 Q411 180 416.5 208 Q422 236 422 260 Q422 299 410.5 326.5 Q399 354 381 372 Q363 390 340.5 398 Q318 406 296 406 Q276 406 255.5 398 Q235 390 218.5 372 Q202 354 191 326 Q180 298 180 258 Q180 207 194 173.5 Q208 140 235 120 Z " />
<glyph glyph-name="c" unicode="c" horiz-adv-x="513" d="M510 141 Q503 118 485.5 91 Q468 64 440.5 40.5 Q413 17 375 1 Q337 -15 288 -15 Q243 -15 211 -4 Q179 7 161 18 Q100 53 68.5 116 Q37 179 37 250 Q37 302 54.5 350 Q72 398 105 435 Q138 472 184.5 493.5 Q231 515 289 515 Q336 515 372.5 501 Q409 487 435 466 Q461 445 478.5 420 Q496 395 505 373 L398 323 Q388 352 372 369 Q356 386 339.5 394.5 Q323 403 308.5 405.5 Q294 408 287 408 Q251 408 227 393 Q203 378 188 355 Q173 332 167 305 Q161 278 161 253 Q161 228 167.5 200.5 Q174 173 189 150 Q204 127 228 112 Q252 97 288 97 Q318 97 338.5 107.5 Q359 118 372.5 133 Q386 148 394 165 Q402 182 408 195 L510 141 Z " />
<glyph glyph-name="d" unicode="d" horiz-adv-x="579" d="M398 49 Q378 24 345 4.5 Q312 -15 259 -15 Q221 -15 193.5 -5.5 Q166 4 151 13 Q101 42 69 98 Q37 154 37 243 Q37 272 42 302.5 Q47 333 58 362 Q66 383 81 409.5 Q96 436 120.5 459.5 Q145 483 179.5 499 Q214 515 261 515 Q293 515 330 504.5 Q367 494 398 459 L398 706 L517 706 L517 0 L398 0 L398 49 Z M278 94 Q301 94 322.5 103 Q344 112 360.5 130.5 Q377 149 387 178 Q397 207 397 247 Q397 276 391 305 Q385 337 371.5 356.5 Q358 376 342 386.5 Q326 397 310 400.5 Q294 404 283 404 Q248 404 224.5 388.5 Q201 373 187 350 Q173 327 167.5 300 Q162 273 162 250 Q162 228 167 201 Q172 174 185.5 150 Q199 126 221 110 Q243 94 278 94 Z " />
<glyph glyph-name="e" unicode="e" horiz-adv-x="565" d="M538 112 Q530 103 520.5 90.5 Q511 78 493 61 Q478 48 458.5 34.5 Q439 21 414.5 10 Q390 -1 360 -8 Q330 -15 294 -15 Q246 -15 208 -2.5 Q170 10 141.5 30 Q113 50 93.5 74.5 Q74 99 63 123 Q54 143 48.5 163.5 Q43 184 40.5 201.5 Q38 219 37.5 232 Q37 245 37 250 Q37 296 44.5 326.5 Q52 357 61 377 Q72 401 91 426 Q110 451 137.5 470.5 Q165 490 201.5 502.5 Q238 515 286 515 Q363 515 412.5 485 Q462 455 489 413 Q505 387 514 356 Q523 325 527.5 297 Q532 269 533 249 Q534 229 534 226 L164 226 Q171 184 188.5 159.5 Q206 135 227 122 Q248 109 269 105.5 Q290 102 304 102 Q339 102 374 116 Q409 130 436 171 L538 112 Z M402 314 Q397 349 384 369.5 Q371 390 354.5 401 Q338 412 320.5 415.5 Q303 419 289 419 Q282 419 268.5 417.5 Q255 416 239 409.5 Q223 403 206.5 388.5 Q190 374 178 348 Q173 338 170.5 327.5 Q168 317 168 314 L402 314 Z " />
<glyph glyph-name="f" unicode="f" horiz-adv-x="309" d="M80 415 L5 415 L5 500 L80 500 L80 568 Q80 599 85.5 624.5 Q91 650 108 668.5 Q125 687 156.5 697 Q188 707 241 707 Q260 707 275 705.5 Q290 704 309 702 L309 600 Q301 602 293 602.5 Q285 603 270 603 Q246 603 232 597.5 Q218 592 211 582.5 Q204 573 202 561.5 Q200 550 200 538 L200 500 L309 500 L309 415 L200 415 L200 0 L80 0 L80 415 Z " />
<glyph glyph-name="g" unicode="g" horiz-adv-x="585" d="M185 -10 Q189 -22 192 -28.5 Q195 -35 200 -41 Q209 -52 220.5 -58 Q232 -64 244.5 -67.5 Q257 -71 269 -72 Q281 -73 291 -73 Q330 -73 352.5 -61.5 Q375 -50 387 -33 Q399 -16 402 3.5 Q405 23 405 39 L405 83 Q387 64 347.5 46.5 Q308 29 255 29 Q234 29 209.5 33.5 Q185 38 161 48.5 Q137 59 114.5 76.5 Q92 94 75 121 Q58 148 47.5 184.5 Q37 221 37 270 Q37 319 48.5 356.5 Q60 394 79 421 Q98 448 122 466 Q146 484 171.5 495 Q197 506 221 510.5 Q245 515 264 515 Q321 515 352.5 494 Q384 473 404 447 L404 500 L523 500 L523 49 Q523 12 517 -27.5 Q511 -67 486 -97 Q469 -117 449.5 -128.5 Q430 -140 425 -142 Q405 -151 383 -156 Q361 -161 340.5 -163.5 Q320 -166 304 -166.5 Q288 -167 281 -167 Q238 -167 200 -160.5 Q162 -154 132.5 -136.5 Q103 -119 82.5 -88.5 Q62 -58 53 -10 L185 -10 Z M286 138 Q346 138 376.5 173.5 Q407 209 407 265 Q407 281 405 296.5 Q403 312 398 327 Q393 339 385 353.5 Q377 368 364 380 Q351 392 332 400 Q313 408 287 408 Q270 408 248.5 402.5 Q227 397 207 382 Q187 367 173.5 340.5 Q160 314 160 272 Q160 213 192 175.5 Q224 138 286 138 Z " />
<glyph glyph-name="h" unicode="h" horiz-adv-x="581" d="M62 706 L182 706 L182 449 Q193 460 208 472 Q223 484 241.5 493.5 Q260 503 283.5 509 Q307 515 335 515 Q374 515 401.5 506.5 Q429 498 445 488 Q472 471 487 451 Q502 431 509 409 Q516 387 517.5 364 Q519 341 519 319 L519 0 L401 0 L401 275 Q401 301 400 317 Q399 333 394 345 Q386 365 374 376.5 Q362 388 349.5 393.5 Q337 399 326 400 Q315 401 309 401 L306 401 Q279 401 258 391.5 Q237 382 222 368.5 Q207 355 198 339 Q189 323 186 311 Q184 304 183 292 Q182 280 182 247 L182 0 L62 0 L62 706 Z " />
<glyph glyph-name="i" unicode="i" horiz-adv-x="243" d="M62 699 L181 699 L181 578 L62 578 L62 699 Z M62 500 L181 500 L181 0 L62 0 L62 500 Z " />
<glyph glyph-name="j" unicode="j" horiz-adv-x="241" d="M61 701 L179 701 L179 579 L61 579 L61 701 Z M-5 -52 Q16 -49 29 -45.5 Q42 -42 49 -34.5 Q56 -27 58.5 -13.5 Q61 0 61 22 L61 500 L179 500 L179 -7 Q179 -36 178.5 -56.5 Q178 -77 173 -89 Q165 -111 149 -125 Q133 -139 112.5 -147.5 Q92 -156 68.5 -159 Q45 -162 22 -162 Q14 -162 8.5 -162 Q3 -162 -5 -161 L-5 -52 Z " />
<glyph glyph-name="k" unicode="k" horiz-adv-x="535" d="M62 706 L181 706 L181 309 L376 500 L529 500 L338 309 L548 0 L402 0 L251 224 L181 155 L181 0 L62 0 L62 706 Z " />
<glyph glyph-name="l" unicode="l" horiz-adv-x="246" d="M62 706 L184 706 L184 0 L62 0 L62 706 Z " />
<glyph glyph-name="m" unicode="m" horiz-adv-x="874" d="M62 500 L182 500 L182 444 Q197 463 217.5 477 Q238 491 259.5 499 Q281 507 302 511 Q323 515 339 515 Q393 515 429 491 Q465 467 479 438 Q499 469 541.5 492 Q584 515 644 515 Q667 515 691.5 509.5 Q716 504 738 491.5 Q760 479 777.5 458 Q795 437 804 406 Q809 390 810.5 374 Q812 358 812 327 L812 0 L693 0 L693 279 Q693 297 691.5 319 Q690 341 682 359.5 Q674 378 657.5 390.5 Q641 403 610 403 Q604 403 584 400 Q564 397 542 378 Q525 363 515.5 344.5 Q506 326 501.5 307 Q497 288 496.5 269 Q496 250 496 235 L496 0 L377 0 L377 300 Q377 321 372 344.5 Q367 368 345 386 Q338 392 326 397 Q314 402 297 402 Q274 402 257 393.5 Q240 385 231 377 Q213 362 203.5 342 Q194 322 189 301 Q184 280 183 259.5 Q182 239 182 222 L182 0 L62 0 L62 500 Z " />
<glyph glyph-name="n" unicode="n" horiz-adv-x="561" d="M62 500 L183 500 L183 441 Q202 468 226.5 483 Q251 498 273.5 505 Q296 512 313.5 513.5 Q331 515 337 515 L338 515 Q370 515 393 507 Q416 499 429 491 Q450 478 463.5 462 Q477 446 485 425 Q493 404 496 377 Q499 350 499 314 L499 0 L381 0 L381 255 L381 283 Q381 307 376 333 Q371 359 349 379 Q341 387 327 392.5 Q313 398 293 398 Q273 398 257.5 391 Q242 384 235 379 Q216 365 205.5 347 Q195 329 190 310.5 Q185 292 184 274 Q183 256 183 241 L183 0 L62 0 L62 500 Z " />
<glyph glyph-name="o" unicode="o" horiz-adv-x="588" d="M296 -15 Q237 -15 189.5 5.5 Q142 26 108 62 Q74 98 55.5 147.5 Q37 197 37 254 Q37 308 55 355.5 Q73 403 106.5 438.5 Q140 474 187 494.5 Q234 515 293 515 Q351 515 398.5 495 Q446 475 480 439 Q514 403 532.5 353.5 Q551 304 551 246 Q551 216 544.5 183 Q538 150 522 119 Q510 96 491 72.5 Q472 49 444 29.5 Q416 10 379.5 -2.5 Q343 -15 296 -15 Z M300 95 Q334 95 358 109.5 Q382 124 397 146.5 Q412 169 419 195.5 Q426 222 426 247 Q426 270 422 289 Q418 308 411 325 Q399 352 383 368.5 Q367 385 350 393.5 Q333 402 317 404.5 Q301 407 290 407 Q257 407 233 393.5 Q209 380 193 358 Q177 336 169.5 309.5 Q162 283 162 256 Q162 227 170 198 Q178 169 195 146 Q212 123 238 109 Q264 95 300 95 Z " />
<glyph glyph-name="p" unicode="p" horiz-adv-x="583" d="M62 500 L182 500 L182 455 Q205 478 237 496.5 Q269 515 323 515 Q381 515 423 490 Q465 465 492.5 426 Q520 387 533 339 Q546 291 546 246 Q546 199 532 152.5 Q518 106 490 68.5 Q462 31 419 8 Q376 -15 319 -15 Q293 -15 272 -9.5 Q251 -4 234.5 4 Q218 12 205 22 Q192 32 182 41 L182 -163 L62 -163 L62 500 Z M193 177 Q209 136 238 117.5 Q267 99 302 99 Q324 99 345.5 107 Q367 115 384 133 Q401 151 412 179.5 Q423 208 423 249 Q423 289 412 318 Q401 347 383.5 365 Q366 383 345 391.5 Q324 400 303 400 Q283 400 261 392.5 Q239 385 221 367.5 Q203 350 191.5 322 Q180 294 180 253 Q180 212 193 177 Z " />
<glyph glyph-name="q" unicode="q" horiz-adv-x="582" d="M401 47 Q376 22 343.5 3.5 Q311 -15 257 -15 Q198 -15 156.5 8 Q115 31 88.5 68 Q62 105 49.5 151 Q37 197 37 242 Q37 296 49.5 338.5 Q62 381 82.5 412.5 Q103 444 129.5 465.5 Q156 487 185 499 Q196 504 218 509.5 Q240 515 269 515 Q273 515 287.5 513.5 Q302 512 321.5 505.5 Q341 499 362.5 485 Q384 471 401 447 L401 500 L520 500 L520 -163 L401 -163 L401 47 Z M278 95 Q300 95 322.5 103 Q345 111 362 129 Q379 147 390 176.5 Q401 206 401 249 Q401 269 398 288 Q395 307 387 324 Q371 361 343.5 379.5 Q316 398 284 398 Q263 398 241 390 Q219 382 201 364.5 Q183 347 171.5 318.5 Q160 290 160 249 Q160 223 165.5 196 Q171 169 184.5 146.5 Q198 124 221 109.5 Q244 95 278 95 Z " />
<glyph glyph-name="r" unicode="r" horiz-adv-x="346" d="M62 500 L178 500 L178 429 Q196 465 232 488 Q268 511 331 511 L337 511 L337 388 L329 388 Q275 388 244.5 370 Q214 352 199.5 326.5 Q185 301 181.5 273.5 Q178 246 178 226 L178 0 L62 0 L62 500 Z " />
<glyph glyph-name="s" unicode="s" horiz-adv-x="521" d="M111 148 Q143 110 182 97 Q221 84 259 84 Q298 84 326 100.5 Q354 117 354 141 Q354 149 351.5 156.5 Q349 164 340 171 Q331 178 317.5 182 Q304 186 281 191 L199 207 Q167 213 138.5 225 Q110 237 89 255 Q68 273 56 297.5 Q44 322 44 353 Q44 382 57.5 411 Q71 440 98 463 Q125 486 165.5 500.5 Q206 515 261 515 Q285 515 312 511 Q339 507 366.5 496.5 Q394 486 421.5 468 Q449 450 474 422 L389 343 Q374 373 342 396 Q310 419 253 419 Q217 419 193.5 405.5 Q170 392 170 369 Q170 342 194.5 331.5 Q219 321 257 313 Q273 310 296.5 306.5 Q320 303 345.5 297.5 Q371 292 395 283.5 Q419 275 435 263 Q454 248 464.5 231 Q475 214 480 199 Q485 184 486 172 Q487 160 487 154 Q487 123 472.5 92.5 Q458 62 429 38 Q400 14 357.5 -0.5 Q315 -15 258 -15 Q231 -15 200.5 -10.5 Q170 -6 139 4.5 Q108 15 78 32 Q48 49 22 75 L111 148 Z " />
<glyph glyph-name="t" unicode="t" horiz-adv-x="318" d="M79 415 L6 415 L6 500 L79 500 L79 678 L199 678 L199 500 L306 500 L306 415 L199 415 L199 165 Q199 134 208.5 116.5 Q218 99 257 99 Q277 99 286.5 101 Q296 103 306 105 L306 4 Q295 2 273.5 -1 Q252 -4 223 -4 Q169 -4 135 9.5 Q101 23 87 57 Q82 67 80.5 88.5 Q79 110 79 136 L79 415 Z " />
<glyph glyph-name="u" unicode="u" horiz-adv-x="579" d="M183 500 L183 216 Q183 170 193.5 147.5 Q204 125 233 111 Q239 108 251.5 104.5 Q264 101 280 101 Q306 101 324 109.5 Q342 118 352 126 Q384 153 390.5 189.5 Q397 226 397 267 L397 500 L517 500 L517 0 L397 0 L397 52 Q383 40 367.5 28.5 Q352 17 332.5 8 Q313 -1 289 -6.5 Q265 -12 235 -12 Q171 -12 136 10.5 Q101 33 84.5 64 Q68 95 65 127 Q62 159 62 178 L62 500 L183 500 Z " />
<glyph glyph-name="v" unicode="v" horiz-adv-x="455" d="M0 500 L124 500 L228 156 L330 500 L455 500 L290 0 L162 0 L0 500 Z " />
<glyph glyph-name="w" unicode="w" horiz-adv-x="718" d="M0 500 L125 500 L212 158 L305 500 L412 500 L504 158 L593 500 L718 500 L568 0 L449 0 L359 319 L264 0 L145 0 L0 500 Z " />
<glyph glyph-name="x" unicode="x" horiz-adv-x="485" d="M172 268 L20 500 L161 500 L243 374 L322 500 L465 500 L314 268 L485 0 L347 0 L243 158 L143 0 L0 0 L172 268 Z " />
<glyph glyph-name="y" unicode="y" horiz-adv-x="458" d="M67 -61 Q76 -62 83 -63 Q90 -64 99 -64 Q140 -64 157 -48.5 Q174 -33 181 -10 L0 500 L129 500 L241 127 L335 500 L458 500 L331 64 Q320 27 311.5 -3.5 Q303 -34 293 -59.5 Q283 -85 271.5 -105 Q260 -125 243 -140 Q217 -163 188.5 -167.5 Q160 -172 134 -172 Q132 -172 125 -172 Q118 -172 108.5 -171 Q99 -170 87.5 -169 Q76 -168 67 -165 L67 -61 Z " />
<glyph glyph-name="z" unicode="z" horiz-adv-x="494" d="M25 92 L295 393 L52 393 L52 500 L453 500 L453 407 L189 106 L453 106 L453 0 L25 0 L25 92 Z " />
<glyph glyph-name="agrave" unicode="&#xe0;" horiz-adv-x="542" d="M358 0 Q357 11 356.5 19.5 Q356 28 356 39 Q347 31 332 22.5 Q317 14 298 6 Q279 -2 256 -7 Q233 -12 208 -12 Q175 -12 142 -2.5 Q109 7 83.5 26.5 Q58 46 42 75.5 Q26 105 26 145 Q26 177 36 199.5 Q46 222 57 236 Q75 258 96 272 Q117 286 141.5 294 Q166 302 192.5 307.5 Q219 313 248 319 Q279 325 303.5 331.5 Q328 338 358 347 Q358 377 349 391 Q327 422 268 422 Q254 422 237 419 Q220 416 205.5 408.5 Q191 401 181 387.5 Q171 374 171 353 L171 347 L49 354 Q49 359 52.5 381 Q56 403 67 424 Q91 469 141.5 492 Q192 515 272 515 Q291 515 319 512.5 Q347 510 375.5 501.5 Q404 493 429 476 Q454 459 467 430 Q475 414 476.5 394 Q478 374 478 357 L478 70 Q478 48 482 34.5 Q486 21 500 0 L358 0 Z M358 249 Q324 234 294 227.5 Q264 221 239 216.5 Q214 212 195 205.5 Q176 199 164 183 Q156 172 154.5 162.5 Q153 153 153 150 Q153 124 172.5 107.5 Q192 91 234 91 Q247 91 263.5 93.5 Q280 96 296.5 102.5 Q313 109 328 120.5 Q343 132 352 150 Q356 158 357 168.5 Q358 179 358 184 L358 249 Z M132 706 L281 706 L332 573 L243 573 L132 706 Z " />
<glyph glyph-name="aacute" unicode="&#xe1;" horiz-adv-x="542" d="M358 0 Q357 11 356.5 19.5 Q356 28 356 39 Q347 31 332 22.5 Q317 14 298 6 Q279 -2 256 -7 Q233 -12 208 -12 Q175 -12 142 -2.5 Q109 7 83.5 26.5 Q58 46 42 75.5 Q26 105 26 145 Q26 177 36 199.5 Q46 222 57 236 Q75 258 96 272 Q117 286 141.5 294 Q166 302 192.5 307.5 Q219 313 248 319 Q279 325 303.5 331.5 Q328 338 358 347 Q358 377 349 391 Q327 422 268 422 Q254 422 237 419 Q220 416 205.5 408.5 Q191 401 181 387.5 Q171 374 171 353 L171 347 L49 354 Q49 359 52.5 381 Q56 403 67 424 Q91 469 141.5 492 Q192 515 272 515 Q291 515 319 512.5 Q347 510 375.5 501.5 Q404 493 429 476 Q454 459 467 430 Q475 414 476.5 394 Q478 374 478 357 L478 70 Q478 48 482 34.5 Q486 21 500 0 L358 0 Z M358 249 Q324 234 294 227.5 Q264 221 239 216.5 Q214 212 195 205.5 Q176 199 164 183 Q156 172 154.5 162.5 Q153 153 153 150 Q153 124 172.5 107.5 Q192 91 234 91 Q247 91 263.5 93.5 Q280 96 296.5 102.5 Q313 109 328 120.5 Q343 132 352 150 Q356 158 357 168.5 Q358 179 358 184 L358 249 Z M258 706 L406 706 L298 573 L208 573 L258 706 Z " />
<glyph glyph-name="acircumflex" unicode="&#xe2;" horiz-adv-x="542" d="M358 0 Q357 11 356.5 19.5 Q356 28 356 39 Q347 31 332 22.5 Q317 14 298 6 Q279 -2 256 -7 Q233 -12 208 -12 Q175 -12 142 -2.5 Q109 7 83.5 26.5 Q58 46 42 75.5 Q26 105 26 145 Q26 177 36 199.5 Q46 222 57 236 Q75 258 96 272 Q117 286 141.5 294 Q166 302 192.5 307.5 Q219 313 248 319 Q279 325 303.5 331.5 Q328 338 358 347 Q358 377 349 391 Q327 422 268 422 Q254 422 237 419 Q220 416 205.5 408.5 Q191 401 181 387.5 Q171 374 171 353 L171 347 L49 354 Q49 359 52.5 381 Q56 403 67 424 Q91 469 141.5 492 Q192 515 272 515 Q291 515 319 512.5 Q347 510 375.5 501.5 Q404 493 429 476 Q454 459 467 430 Q475 414 476.5 394 Q478 374 478 357 L478 70 Q478 48 482 34.5 Q486 21 500 0 L358 0 Z M358 249 Q324 234 294 227.5 Q264 221 239 216.5 Q214 212 195 205.5 Q176 199 164 183 Q156 172 154.5 162.5 Q153 153 153 150 Q153 124 172.5 107.5 Q192 91 234 91 Q247 91 263.5 93.5 Q280 96 296.5 102.5 Q313 109 328 120.5 Q343 132 352 150 Q356 158 357 168.5 Q358 179 358 184 L358 249 Z M210 706 L328 706 L440 572 L317 572 L270 639 L220 572 L99 572 L210 706 Z " />
<glyph glyph-name="atilde" unicode="&#xe3;" horiz-adv-x="542" d="M358 0 Q357 11 356.5 19.5 Q356 28 356 39 Q347 31 332 22.5 Q317 14 298 6 Q279 -2 256 -7 Q233 -12 208 -12 Q175 -12 142 -2.5 Q109 7 83.5 26.5 Q58 46 42 75.5 Q26 105 26 145 Q26 177 36 199.5 Q46 222 57 236 Q75 258 96 272 Q117 286 141.5 294 Q166 302 192.5 307.5 Q219 313 248 319 Q279 325 303.5 331.5 Q328 338 358 347 Q358 377 349 391 Q327 422 268 422 Q254 422 237 419 Q220 416 205.5 408.5 Q191 401 181 387.5 Q171 374 171 353 L171 347 L49 354 Q49 359 52.5 381 Q56 403 67 424 Q91 469 141.5 492 Q192 515 272 515 Q291 515 319 512.5 Q347 510 375.5 501.5 Q404 493 429 476 Q454 459 467 430 Q475 414 476.5 394 Q478 374 478 357 L478 70 Q478 48 482 34.5 Q486 21 500 0 L358 0 Z M358 249 Q324 234 294 227.5 Q264 221 239 216.5 Q214 212 195 205.5 Q176 199 164 183 Q156 172 154.5 162.5 Q153 153 153 150 Q153 124 172.5 107.5 Q192 91 234 91 Q247 91 263.5 93.5 Q280 96 296.5 102.5 Q313 109 328 120.5 Q343 132 352 150 Q356 158 357 168.5 Q358 179 358 184 L358 249 Z M88 584 Q90 598 91.5 609 Q93 620 98 634 Q101 642 107.5 655 Q114 668 125.5 680 Q137 692 153 701 Q169 710 192 710 Q205 710 219.5 707 Q234 704 247 700 Q260 696 269 692 Q278 688 281 687 Q282 687 287.5 684.5 Q293 682 300.5 679.5 Q308 677 317 675 Q326 673 333 673 Q344 673 350.5 677 Q357 681 361 686 Q365 691 366.5 697 Q368 703 370 706 L448 706 L447 702 Q446 700 443 681 Q440 662 430 640 Q420 618 400.5 600.5 Q381 583 347 583 Q333 583 318 586.5 Q303 590 290.5 594 Q278 598 268.5 602 Q259 606 256 607 Q253 609 235.5 615.5 Q218 622 201 622 Q190 622 183.5 616.5 Q177 611 173 604 Q169 597 167.5 591 Q166 585 166 584 L88 584 Z " />
<glyph glyph-name="adieresis" unicode="&#xe4;" horiz-adv-x="542" d="M358 0 Q357 11 356.5 19.5 Q356 28 356 39 Q347 31 332 22.5 Q317 14 298 6 Q279 -2 256 -7 Q233 -12 208 -12 Q175 -12 142 -2.5 Q109 7 83.5 26.5 Q58 46 42 75.5 Q26 105 26 145 Q26 177 36 199.5 Q46 222 57 236 Q75 258 96 272 Q117 286 141.5 294 Q166 302 192.5 307.5 Q219 313 248 319 Q279 325 303.5 331.5 Q328 338 358 347 Q358 377 349 391 Q327 422 268 422 Q254 422 237 419 Q220 416 205.5 408.5 Q191 401 181 387.5 Q171 374 171 353 L171 347 L49 354 Q49 359 52.5 381 Q56 403 67 424 Q91 469 141.5 492 Q192 515 272 515 Q291 515 319 512.5 Q347 510 375.5 501.5 Q404 493 429 476 Q454 459 467 430 Q475 414 476.5 394 Q478 374 478 357 L478 70 Q478 48 482 34.5 Q486 21 500 0 L358 0 Z M358 249 Q324 234 294 227.5 Q264 221 239 216.5 Q214 212 195 205.5 Q176 199 164 183 Q156 172 154.5 162.5 Q153 153 153 150 Q153 124 172.5 107.5 Q192 91 234 91 Q247 91 263.5 93.5 Q280 96 296.5 102.5 Q313 109 328 120.5 Q343 132 352 150 Q356 158 357 168.5 Q358 179 358 184 L358 249 Z M315 706 L429 706 L429 587 L315 587 L315 706 Z M115 706 L228 706 L228 587 L115 587 L115 706 Z " />
<glyph glyph-name="amacron" unicode="&#x101;" horiz-adv-x="542" d="M358 0 Q357 11 356.5 19.5 Q356 28 356 39 Q347 31 332 22.5 Q317 14 298 6 Q279 -2 256 -7 Q233 -12 208 -12 Q175 -12 142 -2.5 Q109 7 83.5 26.5 Q58 46 42 75.5 Q26 105 26 145 Q26 177 36 199.5 Q46 222 57 236 Q75 258 96 272 Q117 286 141.5 294 Q166 302 192.5 307.5 Q219 313 248 319 Q279 325 303.5 331.5 Q328 338 358 347 Q358 377 349 391 Q327 422 268 422 Q254 422 237 419 Q220 416 205.5 408.5 Q191 401 181 387.5 Q171 374 171 353 L171 347 L49 354 Q49 359 52.5 381 Q56 403 67 424 Q91 469 141.5 492 Q192 515 272 515 Q291 515 319 512.5 Q347 510 375.5 501.5 Q404 493 429 476 Q454 459 467 430 Q475 414 476.5 394 Q478 374 478 357 L478 70 Q478 48 482 34.5 Q486 21 500 0 L358 0 Z M358 249 Q324 234 294 227.5 Q264 221 239 216.5 Q214 212 195 205.5 Q176 199 164 183 Q156 172 154.5 162.5 Q153 153 153 150 Q153 124 172.5 107.5 Q192 91 234 91 Q247 91 263.5 93.5 Q280 96 296.5 102.5 Q313 109 328 120.5 Q343 132 352 150 Q356 158 357 168.5 Q358 179 358 184 L358 249 Z M101 676 L442 676 L442 586 L101 586 L101 676 Z " />
<glyph glyph-name="abreve" unicode="&#x103;" horiz-adv-x="542" d="M358 0 Q357 11 356.5 19.5 Q356 28 356 39 Q347 31 332 22.5 Q317 14 298 6 Q279 -2 256 -7 Q233 -12 208 -12 Q175 -12 142 -2.5 Q109 7 83.5 26.5 Q58 46 42 75.5 Q26 105 26 145 Q26 177 36 199.5 Q46 222 57 236 Q75 258 96 272 Q117 286 141.5 294 Q166 302 192.5 307.5 Q219 313 248 319 Q279 325 303.5 331.5 Q328 338 358 347 Q358 377 349 391 Q327 422 268 422 Q254 422 237 419 Q220 416 205.5 408.5 Q191 401 181 387.5 Q171 374 171 353 L171 347 L49 354 Q49 359 52.5 381 Q56 403 67 424 Q91 469 141.5 492 Q192 515 272 515 Q291 515 319 512.5 Q347 510 375.5 501.5 Q404 493 429 476 Q454 459 467 430 Q475 414 476.5 394 Q478 374 478 357 L478 70 Q478 48 482 34.5 Q486 21 500 0 L358 0 Z M358 249 Q324 234 294 227.5 Q264 221 239 216.5 Q214 212 195 205.5 Q176 199 164 183 Q156 172 154.5 162.5 Q153 153 153 150 Q153 124 172.5 107.5 Q192 91 234 91 Q247 91 263.5 93.5 Q280 96 296.5 102.5 Q313 109 328 120.5 Q343 132 352 150 Q356 158 357 168.5 Q358 179 358 184 L358 249 Z M212 706 Q213 698 216 689 Q219 680 226 672 Q233 664 244 658.5 Q255 653 273 653 Q291 653 301.5 659 Q312 665 318.5 673 Q325 681 327.5 690.5 Q330 700 332 706 L418 706 Q414 690 406 667.5 Q398 645 381.5 624.5 Q365 604 337.5 589.5 Q310 575 267 575 Q226 575 199.5 590.5 Q173 606 157 627.5 Q141 649 134 671 Q127 693 124 706 L212 706 Z " />
<glyph glyph-name="aring" unicode="&#xe5;" horiz-adv-x="542" d="M358 0 Q357 11 356.5 19.5 Q356 28 356 39 Q347 31 332 22.5 Q317 14 298 6 Q279 -2 256 -7 Q233 -12 208 -12 Q175 -12 142 -2.5 Q109 7 83.5 26.5 Q58 46 42 75.5 Q26 105 26 145 Q26 177 36 199.5 Q46 222 57 236 Q75 258 96 272 Q117 286 141.5 294 Q166 302 192.5 307.5 Q219 313 248 319 Q279 325 303.5 331.5 Q328 338 358 347 Q358 377 349 391 Q327 422 268 422 Q254 422 237 419 Q220 416 205.5 408.5 Q191 401 181 387.5 Q171 374 171 353 L171 347 L49 354 Q49 359 52.5 381 Q56 403 67 424 Q91 469 141.5 492 Q192 515 272 515 Q291 515 319 512.5 Q347 510 375.5 501.5 Q404 493 429 476 Q454 459 467 430 Q475 414 476.5 394 Q478 374 478 357 L478 70 Q478 48 482 34.5 Q486 21 500 0 L358 0 Z M358 249 Q324 234 294 227.5 Q264 221 239 216.5 Q214 212 195 205.5 Q176 199 164 183 Q156 172 154.5 162.5 Q153 153 153 150 Q153 124 172.5 107.5 Q192 91 234 91 Q247 91 263.5 93.5 Q280 96 296.5 102.5 Q313 109 328 120.5 Q343 132 352 150 Q356 158 357 168.5 Q358 179 358 184 L358 249 Z M177 661 Q177 682 185 700.5 Q193 719 206.5 732.5 Q220 746 238.5 754 Q257 762 278 762 Q299 762 317.5 754 Q336 746 349.5 732.5 Q363 719 371 700.5 Q379 682 379 661 Q379 640 371 621.5 Q363 603 349.5 589.5 Q336 576 317.5 568 Q299 560 278 560 Q257 560 238.5 568 Q220 576 206.5 589.5 Q193 603 185 621.5 Q177 640 177 661 Z M278 619 Q295 619 307.5 631.5 Q320 644 320 661 Q320 678 307.5 690.5 Q295 703 278 703 Q261 703 248.5 690.5 Q236 678 236 661 Q236 644 248.5 631.5 Q261 619 278 619 Z " />
<glyph glyph-name="aogonek" unicode="&#x105;" horiz-adv-x="542" d="M428 -197 Q406 -197 380.5 -192 Q355 -187 335 -161 Q324 -146 322 -132.5 Q320 -119 320 -114 Q320 -94 333 -66 Q346 -38 378 0 L358 0 Q357 11 356.5 19.5 Q356 28 356 39 Q347 31 332 22.5 Q317 14 298 6 Q279 -2 256 -7 Q233 -12 208 -12 Q175 -12 142 -2.5 Q109 7 83.5 26.5 Q58 46 42 75.5 Q26 105 26 145 Q26 177 36 199.5 Q46 222 57 236 Q75 258 96 272 Q117 286 141.5 294 Q166 302 192.5 307.5 Q219 313 248 319 Q279 325 303.5 331.5 Q328 338 358 347 Q358 377 349 391 Q327 422 268 422 Q254 422 237 419 Q220 416 205.5 408.5 Q191 401 181 387.5 Q171 374 171 353 L171 347 L49 354 Q49 359 52.5 381 Q56 403 67 424 Q91 469 141.5 492 Q192 515 272 515 Q291 515 319 512.5 Q347 510 375.5 501.5 Q404 493 429 476 Q454 459 467 430 Q475 414 476.5 394 Q478 374 478 357 L478 70 Q478 48 482 34.5 Q486 21 500 0 L462 0 Q446 -20 433 -36 Q420 -52 420 -73 Q420 -84 425 -90.5 Q430 -97 437 -100 Q444 -103 452 -104 Q460 -105 466 -105 L502 -105 L502 -197 L428 -197 Z M358 249 Q324 234 294 227.5 Q264 221 239 216.5 Q214 212 195 205.5 Q176 199 164 183 Q156 172 154.5 162.5 Q153 153 153 150 Q153 124 172.5 107.5 Q192 91 234 91 Q247 91 263.5 93.5 Q280 96 296.5 102.5 Q313 109 328 120.5 Q343 132 352 150 Q356 158 357 168.5 Q358 179 358 184 L358 249 Z " />
<glyph glyph-name="ae" unicode="&#xe6;" horiz-adv-x="870" d="M51 347 Q53 377 64.5 407 Q76 437 100.5 461 Q125 485 164.5 500 Q204 515 263 515 Q293 515 328.5 508.5 Q364 502 394 482 Q408 472 417 463 Q426 454 431 450 Q446 463 461.5 475 Q477 487 496 496 Q515 505 539 510 Q563 515 595 515 Q662 515 709 491 Q756 467 786 428 Q816 389 829.5 338.5 Q843 288 843 235 L843 227 L478 227 Q482 185 496 159 Q510 133 529 118 Q548 103 568.5 97.5 Q589 92 607 92 Q634 92 653 98.5 Q672 105 686.5 115 Q701 125 712 137 Q723 149 733 160 L829 102 Q812 81 790.5 60.5 Q769 40 741 23 Q713 6 676.5 -4.5 Q640 -15 594 -15 Q543 -15 511.5 -2.5 Q480 10 456 24 Q454 25 438 35.5 Q422 46 409 59 Q380 33 351.5 18 Q323 3 298 -4.5 Q273 -12 252 -13.5 Q231 -15 218 -15 L206 -15 Q188 -15 167.5 -12.5 Q147 -10 126.5 -3 Q106 4 87 17 Q68 30 53 51 Q45 63 35.5 84 Q26 105 26 134 Q26 188 53.5 220.5 Q81 253 120.5 272 Q160 291 203.5 300 Q247 309 279 316 Q298 320 308 322.5 Q318 325 325.5 327.5 Q333 330 340.5 332.5 Q348 335 361 340 Q361 352 359.5 363.5 Q358 375 352 386 Q337 414 312.5 421 Q288 428 268 428 Q240 428 221 421 Q202 414 190 402.5 Q178 391 172.5 376.5 Q167 362 167 347 L51 347 Z M701 313 Q693 359 664 388.5 Q635 418 589 419 Q543 418 513 388.5 Q483 359 479 313 L701 313 Z M361 240 Q350 234 339 230.5 Q328 227 314.5 224 Q301 221 284 218 Q267 215 244 210 Q233 208 219 204.5 Q205 201 195 196 Q191 194 183 190 Q175 186 167 177 Q157 165 155 153.5 Q153 142 153 139 Q153 115 172 94 Q191 73 236 73 Q283 73 310 95 Q337 117 348 142 Q351 148 353.5 159 Q356 170 357.5 181.5 Q359 193 360 204.5 Q361 216 361 224 L361 240 Z " />
<glyph glyph-name="cacute" unicode="&#x107;" horiz-adv-x="513" d="M510 141 Q503 118 485.5 91 Q468 64 440.5 40.5 Q413 17 375 1 Q337 -15 288 -15 Q243 -15 211 -4 Q179 7 161 18 Q100 53 68.5 116 Q37 179 37 250 Q37 302 54.5 350 Q72 398 105 435 Q138 472 184.5 493.5 Q231 515 289 515 Q336 515 372.5 501 Q409 487 435 466 Q461 445 478.5 420 Q496 395 505 373 L398 323 Q388 352 372 369 Q356 386 339.5 394.5 Q323 403 308.5 405.5 Q294 408 287 408 Q251 408 227 393 Q203 378 188 355 Q173 332 167 305 Q161 278 161 253 Q161 228 167.5 200.5 Q174 173 189 150 Q204 127 228 112 Q252 97 288 97 Q318 97 338.5 107.5 Q359 118 372.5 133 Q386 148 394 165 Q402 182 408 195 L510 141 Z M266 706 L414 706 L306 573 L216 573 L266 706 Z " />
<glyph glyph-name="ccaron" unicode="&#x10d;" horiz-adv-x="513" d="M510 141 Q503 118 485.5 91 Q468 64 440.5 40.5 Q413 17 375 1 Q337 -15 288 -15 Q243 -15 211 -4 Q179 7 161 18 Q100 53 68.5 116 Q37 179 37 250 Q37 302 54.5 350 Q72 398 105 435 Q138 472 184.5 493.5 Q231 515 289 515 Q336 515 372.5 501 Q409 487 435 466 Q461 445 478.5 420 Q496 395 505 373 L398 323 Q388 352 372 369 Q356 386 339.5 394.5 Q323 403 308.5 405.5 Q294 408 287 408 Q251 408 227 393 Q203 378 188 355 Q173 332 167 305 Q161 278 161 253 Q161 228 167.5 200.5 Q174 173 189 150 Q204 127 228 112 Q252 97 288 97 Q318 97 338.5 107.5 Q359 118 372.5 133 Q386 148 394 165 Q402 182 408 195 L510 141 Z M108 706 L229 706 L277 642 L326 706 L447 706 L335 572 L220 572 L108 706 Z " />
<glyph glyph-name="ccedilla" unicode="&#xe7;" horiz-adv-x="513" d="M175 -154 Q181 -155 185.5 -155 Q190 -155 192 -155 Q203 -155 214.5 -154 Q226 -153 235 -150.5 Q244 -148 250 -143 Q256 -138 256 -130 Q256 -112 235 -108.5 Q214 -105 190 -105 Q176 -105 170 -107 L170 -92 L247 -12 Q218 -7 196.5 1.5 Q175 10 161 18 Q100 53 68.5 116 Q37 179 37 250 Q37 302 54.5 350 Q72 398 105 435 Q138 472 184.5 493.5 Q231 515 289 515 Q336 515 372.5 501 Q409 487 435 466 Q461 445 478.5 420 Q496 395 505 373 L398 323 Q388 352 372 369 Q356 386 339.5 394.5 Q323 403 308.5 405.5 Q294 408 287 408 Q251 408 227 393 Q203 378 188 355 Q173 332 167 305 Q161 278 161 253 Q161 228 167.5 200.5 Q174 173 189 150 Q204 127 228 112 Q252 97 288 97 Q318 97 338.5 107.5 Q359 118 372.5 133 Q386 148 394 165 Q402 182 408 195 L510 141 Q503 119 486 92 Q469 65 442 42 Q415 19 378 2.5 Q341 -14 294 -15 L270 -46 L278 -46 Q289 -46 305 -48.5 Q321 -51 335.5 -58 Q350 -65 360.5 -77.5 Q371 -90 371 -109 Q371 -126 364.5 -136.5 Q358 -147 353 -152 Q341 -164 322.5 -171 Q304 -178 284.5 -181.5 Q265 -185 247 -185.5 Q229 -186 217 -186 Q203 -186 192 -186 Q181 -186 175 -185 L175 -154 Z " />
<glyph glyph-name="dcaron" unicode="&#x10f;" horiz-adv-x="579" d="M398 49 Q378 24 345 4.5 Q312 -15 259 -15 Q221 -15 193.5 -5.5 Q166 4 151 13 Q101 42 69 98 Q37 154 37 243 Q37 272 42 302.5 Q47 333 58 362 Q66 383 81 409.5 Q96 436 120.5 459.5 Q145 483 179.5 499 Q214 515 261 515 Q293 515 330 504.5 Q367 494 398 459 L398 706 L517 706 L517 0 L398 0 L398 49 Z M278 94 Q301 94 322.5 103 Q344 112 360.5 130.5 Q377 149 387 178 Q397 207 397 247 Q397 276 391 305 Q385 337 371.5 356.5 Q358 376 342 386.5 Q326 397 310 400.5 Q294 404 283 404 Q248 404 224.5 388.5 Q201 373 187 350 Q173 327 167.5 300 Q162 273 162 250 Q162 228 167 201 Q172 174 185.5 150 Q199 126 221 110 Q243 94 278 94 Z M561 522 Q593 535 604 558 Q615 581 616 616 L569 616 L569 706 L666 706 L666 616 Q666 570 649 538 Q632 506 585 488 L561 522 Z " />
<glyph glyph-name="dcroat" unicode="&#x111;" horiz-adv-x="579" d="M398 49 Q378 24 345 4.5 Q312 -15 259 -15 Q221 -15 193.5 -5.5 Q166 4 151 13 Q101 42 69 98 Q37 154 37 243 Q37 272 42 302.5 Q47 333 58 362 Q66 383 81 409.5 Q96 436 120.5 459.5 Q145 483 179.5 499 Q214 515 261 515 Q293 515 330 504.5 Q367 494 398 459 L398 564 L256 564 L256 654 L398 654 L398 706 L517 706 L517 654 L562 654 L562 564 L517 564 L517 0 L398 0 L398 49 Z M278 94 Q301 94 322.5 103 Q344 112 360.5 130.5 Q377 149 387 178 Q397 207 397 247 Q397 276 391 305 Q385 337 371.5 356.5 Q358 376 342 386.5 Q326 397 310 400.5 Q294 404 283 404 Q248 404 224.5 388.5 Q201 373 187 350 Q173 327 167.5 300 Q162 273 162 250 Q162 228 167 201 Q172 174 185.5 150 Q199 126 221 110 Q243 94 278 94 Z " />
<glyph glyph-name="egrave" unicode="&#xe8;" horiz-adv-x="565" d="M538 112 Q530 103 520.5 90.5 Q511 78 493 61 Q478 48 458.5 34.5 Q439 21 414.5 10 Q390 -1 360 -8 Q330 -15 294 -15 Q246 -15 208 -2.5 Q170 10 141.5 30 Q113 50 93.5 74.5 Q74 99 63 123 Q54 143 48.5 163.5 Q43 184 40.5 201.5 Q38 219 37.5 232 Q37 245 37 250 Q37 296 44.5 326.5 Q52 357 61 377 Q72 401 91 426 Q110 451 137.5 470.5 Q165 490 201.5 502.5 Q238 515 286 515 Q363 515 412.5 485 Q462 455 489 413 Q505 387 514 356 Q523 325 527.5 297 Q532 269 533 249 Q534 229 534 226 L164 226 Q171 184 188.5 159.5 Q206 135 227 122 Q248 109 269 105.5 Q290 102 304 102 Q339 102 374 116 Q409 130 436 171 L538 112 Z M402 314 Q397 349 384 369.5 Q371 390 354.5 401 Q338 412 320.5 415.5 Q303 419 289 419 Q282 419 268.5 417.5 Q255 416 239 409.5 Q223 403 206.5 388.5 Q190 374 178 348 Q173 338 170.5 327.5 Q168 317 168 314 L402 314 Z M156 706 L305 706 L356 573 L267 573 L156 706 Z " />
<glyph glyph-name="eacute" unicode="&#xe9;" horiz-adv-x="565" d="M538 112 Q530 103 520.5 90.5 Q511 78 493 61 Q478 48 458.5 34.5 Q439 21 414.5 10 Q390 -1 360 -8 Q330 -15 294 -15 Q246 -15 208 -2.5 Q170 10 141.5 30 Q113 50 93.5 74.5 Q74 99 63 123 Q54 143 48.5 163.5 Q43 184 40.5 201.5 Q38 219 37.5 232 Q37 245 37 250 Q37 296 44.5 326.5 Q52 357 61 377 Q72 401 91 426 Q110 451 137.5 470.5 Q165 490 201.5 502.5 Q238 515 286 515 Q363 515 412.5 485 Q462 455 489 413 Q505 387 514 356 Q523 325 527.5 297 Q532 269 533 249 Q534 229 534 226 L164 226 Q171 184 188.5 159.5 Q206 135 227 122 Q248 109 269 105.5 Q290 102 304 102 Q339 102 374 116 Q409 130 436 171 L538 112 Z M402 314 Q397 349 384 369.5 Q371 390 354.5 401 Q338 412 320.5 415.5 Q303 419 289 419 Q282 419 268.5 417.5 Q255 416 239 409.5 Q223 403 206.5 388.5 Q190 374 178 348 Q173 338 170.5 327.5 Q168 317 168 314 L402 314 Z M274 706 L422 706 L314 573 L224 573 L274 706 Z " />
<glyph glyph-name="ecircumflex" unicode="&#xea;" horiz-adv-x="565" d="M538 112 Q530 103 520.5 90.5 Q511 78 493 61 Q478 48 458.5 34.5 Q439 21 414.5 10 Q390 -1 360 -8 Q330 -15 294 -15 Q246 -15 208 -2.5 Q170 10 141.5 30 Q113 50 93.5 74.5 Q74 99 63 123 Q54 143 48.5 163.5 Q43 184 40.5 201.5 Q38 219 37.5 232 Q37 245 37 250 Q37 296 44.5 326.5 Q52 357 61 377 Q72 401 91 426 Q110 451 137.5 470.5 Q165 490 201.5 502.5 Q238 515 286 515 Q363 515 412.5 485 Q462 455 489 413 Q505 387 514 356 Q523 325 527.5 297 Q532 269 533 249 Q534 229 534 226 L164 226 Q171 184 188.5 159.5 Q206 135 227 122 Q248 109 269 105.5 Q290 102 304 102 Q339 102 374 116 Q409 130 436 171 L538 112 Z M402 314 Q397 349 384 369.5 Q371 390 354.5 401 Q338 412 320.5 415.5 Q303 419 289 419 Q282 419 268.5 417.5 Q255 416 239 409.5 Q223 403 206.5 388.5 Q190 374 178 348 Q173 338 170.5 327.5 Q168 317 168 314 L402 314 Z M226 706 L344 706 L456 572 L333 572 L286 639 L236 572 L115 572 L226 706 Z " />
<glyph glyph-name="ecaron" unicode="&#x11b;" horiz-adv-x="565" d="M538 112 Q530 103 520.5 90.5 Q511 78 493 61 Q478 48 458.5 34.5 Q439 21 414.5 10 Q390 -1 360 -8 Q330 -15 294 -15 Q246 -15 208 -2.5 Q170 10 141.5 30 Q113 50 93.5 74.5 Q74 99 63 123 Q54 143 48.5 163.5 Q43 184 40.5 201.5 Q38 219 37.5 232 Q37 245 37 250 Q37 296 44.5 326.5 Q52 357 61 377 Q72 401 91 426 Q110 451 137.5 470.5 Q165 490 201.5 502.5 Q238 515 286 515 Q363 515 412.5 485 Q462 455 489 413 Q505 387 514 356 Q523 325 527.5 297 Q532 269 533 249 Q534 229 534 226 L164 226 Q171 184 188.5 159.5 Q206 135 227 122 Q248 109 269 105.5 Q290 102 304 102 Q339 102 374 116 Q409 130 436 171 L538 112 Z M402 314 Q397 349 384 369.5 Q371 390 354.5 401 Q338 412 320.5 415.5 Q303 419 289 419 Q282 419 268.5 417.5 Q255 416 239 409.5 Q223 403 206.5 388.5 Q190 374 178 348 Q173 338 170.5 327.5 Q168 317 168 314 L402 314 Z M113 706 L234 706 L282 642 L331 706 L452 706 L340 572 L225 572 L113 706 Z " />
<glyph glyph-name="edieresis" unicode="&#xeb;" horiz-adv-x="565" d="M538 112 Q530 103 520.5 90.5 Q511 78 493 61 Q478 48 458.5 34.5 Q439 21 414.5 10 Q390 -1 360 -8 Q330 -15 294 -15 Q246 -15 208 -2.5 Q170 10 141.5 30 Q113 50 93.5 74.5 Q74 99 63 123 Q54 143 48.5 163.5 Q43 184 40.5 201.5 Q38 219 37.5 232 Q37 245 37 250 Q37 296 44.5 326.5 Q52 357 61 377 Q72 401 91 426 Q110 451 137.5 470.5 Q165 490 201.5 502.5 Q238 515 286 515 Q363 515 412.5 485 Q462 455 489 413 Q505 387 514 356 Q523 325 527.5 297 Q532 269 533 249 Q534 229 534 226 L164 226 Q171 184 188.5 159.5 Q206 135 227 122 Q248 109 269 105.5 Q290 102 304 102 Q339 102 374 116 Q409 130 436 171 L538 112 Z M402 314 Q397 349 384 369.5 Q371 390 354.5 401 Q338 412 320.5 415.5 Q303 419 289 419 Q282 419 268.5 417.5 Q255 416 239 409.5 Q223 403 206.5 388.5 Q190 374 178 348 Q173 338 170.5 327.5 Q168 317 168 314 L402 314 Z M339 706 L453 706 L453 587 L339 587 L339 706 Z M139 706 L252 706 L252 587 L139 587 L139 706 Z " />
<glyph glyph-name="emacron" unicode="&#x113;" horiz-adv-x="565" d="M538 112 Q530 103 520.5 90.5 Q511 78 493 61 Q478 48 458.5 34.5 Q439 21 414.5 10 Q390 -1 360 -8 Q330 -15 294 -15 Q246 -15 208 -2.5 Q170 10 141.5 30 Q113 50 93.5 74.5 Q74 99 63 123 Q54 143 48.5 163.5 Q43 184 40.5 201.5 Q38 219 37.5 232 Q37 245 37 250 Q37 296 44.5 326.5 Q52 357 61 377 Q72 401 91 426 Q110 451 137.5 470.5 Q165 490 201.5 502.5 Q238 515 286 515 Q363 515 412.5 485 Q462 455 489 413 Q505 387 514 356 Q523 325 527.5 297 Q532 269 533 249 Q534 229 534 226 L164 226 Q171 184 188.5 159.5 Q206 135 227 122 Q248 109 269 105.5 Q290 102 304 102 Q339 102 374 116 Q409 130 436 171 L538 112 Z M402 314 Q397 349 384 369.5 Q371 390 354.5 401 Q338 412 320.5 415.5 Q303 419 289 419 Q282 419 268.5 417.5 Q255 416 239 409.5 Q223 403 206.5 388.5 Q190 374 178 348 Q173 338 170.5 327.5 Q168 317 168 314 L402 314 Z M116 676 L457 676 L457 586 L116 586 L116 676 Z " />
<glyph glyph-name="edotaccent" unicode="&#x117;" horiz-adv-x="565" d="M538 112 Q530 103 520.5 90.5 Q511 78 493 61 Q478 48 458.5 34.5 Q439 21 414.5 10 Q390 -1 360 -8 Q330 -15 294 -15 Q246 -15 208 -2.5 Q170 10 141.5 30 Q113 50 93.5 74.5 Q74 99 63 123 Q54 143 48.5 163.5 Q43 184 40.5 201.5 Q38 219 37.5 232 Q37 245 37 250 Q37 296 44.5 326.5 Q52 357 61 377 Q72 401 91 426 Q110 451 137.5 470.5 Q165 490 201.5 502.5 Q238 515 286 515 Q363 515 412.5 485 Q462 455 489 413 Q505 387 514 356 Q523 325 527.5 297 Q532 269 533 249 Q534 229 534 226 L164 226 Q171 184 188.5 159.5 Q206 135 227 122 Q248 109 269 105.5 Q290 102 304 102 Q339 102 374 116 Q409 130 436 171 L538 112 Z M402 314 Q397 349 384 369.5 Q371 390 354.5 401 Q338 412 320.5 415.5 Q303 419 289 419 Q282 419 268.5 417.5 Q255 416 239 409.5 Q223 403 206.5 388.5 Q190 374 178 348 Q173 338 170.5 327.5 Q168 317 168 314 L402 314 Z M215 706 L349 706 L349 586 L215 586 L215 706 Z " />
<glyph glyph-name="eogonek" unicode="&#x119;" horiz-adv-x="565" d="M362 -197 Q340 -197 314.5 -192 Q289 -187 269 -161 Q258 -146 256 -132.5 Q254 -119 254 -114 Q254 -95 264.5 -71 Q275 -47 301 -15 L294 -15 Q246 -15 208 -2.5 Q170 10 141.5 30 Q113 50 93.5 74.5 Q74 99 63 123 Q54 143 48.5 163.5 Q43 184 40.5 201.5 Q38 219 37.5 232 Q37 245 37 250 Q37 296 44.5 326.5 Q52 357 61 377 Q72 401 91 426 Q110 451 137.5 470.5 Q165 490 201.5 502.5 Q238 515 286 515 Q363 515 412.5 485 Q462 455 489 413 Q505 387 514 356 Q523 325 527.5 297 Q532 269 533 249 Q534 229 534 226 L164 226 Q171 184 188.5 159.5 Q206 135 227 122 Q248 109 269 105.5 Q290 102 304 102 Q339 102 374 116 Q409 130 436 171 L538 112 Q530 103 520.5 90.5 Q511 78 493 61 Q476 46 452.5 30 Q429 14 399 3 Q382 -17 368 -34 Q354 -51 354 -73 Q354 -84 359 -90.5 Q364 -97 371 -100 Q378 -103 386 -104 Q394 -105 400 -105 L436 -105 L436 -197 L362 -197 Z M402 314 Q397 349 384 369.5 Q371 390 354.5 401 Q338 412 320.5 415.5 Q303 419 289 419 Q282 419 268.5 417.5 Q255 416 239 409.5 Q223 403 206.5 388.5 Q190 374 178 348 Q173 338 170.5 327.5 Q168 317 168 314 L402 314 Z " />
<glyph glyph-name="gbreve" unicode="&#x11f;" horiz-adv-x="585" d="M185 -10 Q189 -22 192 -28.5 Q195 -35 200 -41 Q209 -52 220.5 -58 Q232 -64 244.5 -67.5 Q257 -71 269 -72 Q281 -73 291 -73 Q330 -73 352.5 -61.5 Q375 -50 387 -33 Q399 -16 402 3.5 Q405 23 405 39 L405 83 Q387 64 347.5 46.5 Q308 29 255 29 Q234 29 209.5 33.5 Q185 38 161 48.5 Q137 59 114.5 76.5 Q92 94 75 121 Q58 148 47.5 184.5 Q37 221 37 270 Q37 319 48.5 356.5 Q60 394 79 421 Q98 448 122 466 Q146 484 171.5 495 Q197 506 221 510.5 Q245 515 264 515 Q321 515 352.5 494 Q384 473 404 447 L404 500 L523 500 L523 49 Q523 12 517 -27.5 Q511 -67 486 -97 Q469 -117 449.5 -128.5 Q430 -140 425 -142 Q405 -151 383 -156 Q361 -161 340.5 -163.5 Q320 -166 304 -166.5 Q288 -167 281 -167 Q238 -167 200 -160.5 Q162 -154 132.5 -136.5 Q103 -119 82.5 -88.5 Q62 -58 53 -10 L185 -10 Z M286 138 Q346 138 376.5 173.5 Q407 209 407 265 Q407 281 405 296.5 Q403 312 398 327 Q393 339 385 353.5 Q377 368 364 380 Q351 392 332 400 Q313 408 287 408 Q270 408 248.5 402.5 Q227 397 207 382 Q187 367 173.5 340.5 Q160 314 160 272 Q160 213 192 175.5 Q224 138 286 138 Z M233 706 Q234 698 237 689 Q240 680 247 672 Q254 664 265 658.5 Q276 653 294 653 Q312 653 322.5 659 Q333 665 339.5 673 Q346 681 348.5 690.5 Q351 700 353 706 L439 706 Q435 690 427 667.5 Q419 645 402.5 624.5 Q386 604 358.5 589.5 Q331 575 288 575 Q247 575 220.5 590.5 Q194 606 178 627.5 Q162 649 155 671 Q148 693 145 706 L233 706 Z " />
<glyph glyph-name="gcommaaccent" unicode="&#x123;" horiz-adv-x="585" d="M185 -10 Q189 -22 192 -28.5 Q195 -35 200 -41 Q209 -52 220.5 -58 Q232 -64 244.5 -67.5 Q257 -71 269 -72 Q281 -73 291 -73 Q330 -73 352.5 -61.5 Q375 -50 387 -33 Q399 -16 402 3.5 Q405 23 405 39 L405 83 Q387 64 347.5 46.5 Q308 29 255 29 Q234 29 209.5 33.5 Q185 38 161 48.5 Q137 59 114.5 76.5 Q92 94 75 121 Q58 148 47.5 184.5 Q37 221 37 270 Q37 319 48.5 356.5 Q60 394 79 421 Q98 448 122 466 Q146 484 171.5 495 Q197 506 221 510.5 Q245 515 264 515 Q321 515 352.5 494 Q384 473 404 447 L404 500 L523 500 L523 49 Q523 12 517 -27.5 Q511 -67 486 -97 Q469 -117 449.5 -128.5 Q430 -140 425 -142 Q405 -151 383 -156 Q361 -161 340.5 -163.5 Q320 -166 304 -166.5 Q288 -167 281 -167 Q238 -167 200 -160.5 Q162 -154 132.5 -136.5 Q103 -119 82.5 -88.5 Q62 -58 53 -10 L185 -10 Z M286 138 Q346 138 376.5 173.5 Q407 209 407 265 Q407 281 405 296.5 Q403 312 398 327 Q393 339 385 353.5 Q377 368 364 380 Q351 392 332 400 Q313 408 287 408 Q270 408 248.5 402.5 Q227 397 207 382 Q187 367 173.5 340.5 Q160 314 160 272 Q160 213 192 175.5 Q224 138 286 138 Z M242 620 Q242 638 244.5 655.5 Q247 673 255.5 688 Q264 703 278.5 715.5 Q293 728 317 737 L341 703 Q315 692 306 677.5 Q297 663 293 644 L335 644 L335 573 L242 573 L242 620 Z " />
<glyph glyph-name="igrave" unicode="&#xec;" horiz-adv-x="243" d="M62 500 L181 500 L181 0 L62 0 L62 500 Z M-14 706 L135 706 L186 573 L97 573 L-14 706 Z " />
<glyph glyph-name="iacute" unicode="&#xed;" horiz-adv-x="243" d="M62 500 L181 500 L181 0 L62 0 L62 500 Z M96 706 L244 706 L136 573 L46 573 L96 706 Z " />
<glyph glyph-name="icircumflex" unicode="&#xee;" horiz-adv-x="243" d="M62 500 L181 500 L181 0 L62 0 L62 500 Z M63 706 L181 706 L293 572 L170 572 L123 639 L73 572 L-48 572 L63 706 Z " />
<glyph glyph-name="idieresis" unicode="&#xef;" horiz-adv-x="243" d="M62 500 L181 500 L181 0 L62 0 L62 500 Z M166 706 L280 706 L280 587 L166 587 L166 706 Z M-34 706 L79 706 L79 587 L-34 587 L-34 706 Z " />
<glyph glyph-name="imacron" unicode="&#x12b;" horiz-adv-x="243" d="M62 500 L181 500 L181 0 L62 0 L62 500 Z M-48 676 L293 676 L293 586 L-48 586 L-48 676 Z " />
<glyph glyph-name="iogonek" unicode="&#x12f;" horiz-adv-x="243" d="M138 -197 Q116 -197 90.5 -192 Q65 -187 45 -161 Q34 -146 32 -132.5 Q30 -119 30 -114 Q30 -94 43 -66 Q56 -38 88 0 L62 0 L62 500 L181 500 L181 0 L172 0 Q156 -20 143 -36 Q130 -52 130 -73 Q130 -84 135 -90.5 Q140 -97 147 -100 Q154 -103 162 -104 Q170 -105 176 -105 L212 -105 L212 -197 L138 -197 Z M62 699 L181 699 L181 578 L62 578 L62 699 Z " />
<glyph glyph-name="dotlessi" unicode="&#x131;" horiz-adv-x="243" d="M62 500 L181 500 L181 0 L62 0 L62 500 Z " />
<glyph glyph-name="kcommaaccent" unicode="&#x137;" horiz-adv-x="535" d="M62 706 L181 706 L181 309 L376 500 L529 500 L338 309 L548 0 L402 0 L251 224 L181 155 L181 0 L62 0 L62 706 Z M218 -189 Q244 -178 253 -163.5 Q262 -149 266 -130 L224 -130 L224 -59 L317 -59 L317 -106 Q317 -124 314.5 -141.5 Q312 -159 303.5 -174 Q295 -189 280.5 -201.5 Q266 -214 242 -223 L218 -189 Z " />
<glyph glyph-name="lacute" unicode="&#x13a;" horiz-adv-x="246" d="M62 706 L184 706 L184 0 L62 0 L62 706 Z M110 885 L258 885 L150 752 L60 752 L110 885 Z " />
<glyph glyph-name="lcaron" unicode="&#x13e;" horiz-adv-x="246" d="M62 706 L184 706 L184 0 L62 0 L62 706 Z M227 522 Q259 535 270 558 Q281 581 282 616 L235 616 L235 706 L332 706 L332 616 Q332 570 315 538 Q298 506 251 488 L227 522 Z " />
<glyph glyph-name="lcommaaccent" unicode="&#x13c;" horiz-adv-x="246" d="M62 706 L184 706 L184 0 L62 0 L62 706 Z M75 -189 Q101 -178 110 -163.5 Q119 -149 123 -130 L81 -130 L81 -59 L174 -59 L174 -106 Q174 -124 171.5 -141.5 Q169 -159 160.5 -174 Q152 -189 137.5 -201.5 Q123 -214 99 -223 L75 -189 Z " />
<glyph glyph-name="lslash" unicode="&#x142;" horiz-adv-x="246" d="M62 297 L9 238 L9 351 L62 410 L62 706 L184 706 L184 546 L234 602 L234 487 L184 432 L184 0 L62 0 L62 297 Z " />
<glyph glyph-name="nacute" unicode="&#x144;" horiz-adv-x="561" d="M62 500 L183 500 L183 441 Q202 468 226.5 483 Q251 498 273.5 505 Q296 512 313.5 513.5 Q331 515 337 515 L338 515 Q370 515 393 507 Q416 499 429 491 Q450 478 463.5 462 Q477 446 485 425 Q493 404 496 377 Q499 350 499 314 L499 0 L381 0 L381 255 L381 283 Q381 307 376 333 Q371 359 349 379 Q341 387 327 392.5 Q313 398 293 398 Q273 398 257.5 391 Q242 384 235 379 Q216 365 205.5 347 Q195 329 190 310.5 Q185 292 184 274 Q183 256 183 241 L183 0 L62 0 L62 500 Z M282 706 L430 706 L322 573 L232 573 L282 706 Z " />
<glyph glyph-name="ncaron" unicode="&#x148;" horiz-adv-x="561" d="M62 500 L183 500 L183 441 Q202 468 226.5 483 Q251 498 273.5 505 Q296 512 313.5 513.5 Q331 515 337 515 L338 515 Q370 515 393 507 Q416 499 429 491 Q450 478 463.5 462 Q477 446 485 425 Q493 404 496 377 Q499 350 499 314 L499 0 L381 0 L381 255 L381 283 Q381 307 376 333 Q371 359 349 379 Q341 387 327 392.5 Q313 398 293 398 Q273 398 257.5 391 Q242 384 235 379 Q216 365 205.5 347 Q195 329 190 310.5 Q185 292 184 274 Q183 256 183 241 L183 0 L62 0 L62 500 Z M111 706 L232 706 L280 642 L329 706 L450 706 L338 572 L223 572 L111 706 Z " />
<glyph glyph-name="ntilde" unicode="&#xf1;" horiz-adv-x="561" d="M62 500 L183 500 L183 441 Q202 468 226.5 483 Q251 498 273.5 505 Q296 512 313.5 513.5 Q331 515 337 515 L338 515 Q370 515 393 507 Q416 499 429 491 Q450 478 463.5 462 Q477 446 485 425 Q493 404 496 377 Q499 350 499 314 L499 0 L381 0 L381 255 L381 283 Q381 307 376 333 Q371 359 349 379 Q341 387 327 392.5 Q313 398 293 398 Q273 398 257.5 391 Q242 384 235 379 Q216 365 205.5 347 Q195 329 190 310.5 Q185 292 184 274 Q183 256 183 241 L183 0 L62 0 L62 500 Z M104 584 Q106 598 107.5 609 Q109 620 114 634 Q117 642 123.5 655 Q130 668 141.5 680 Q153 692 169 701 Q185 710 208 710 Q221 710 235.5 707 Q250 704 263 700 Q276 696 285 692 Q294 688 297 687 Q298 687 303.5 684.5 Q309 682 316.5 679.5 Q324 677 333 675 Q342 673 349 673 Q360 673 366.5 677 Q373 681 377 686 Q381 691 382.5 697 Q384 703 386 706 L464 706 L463 702 Q462 700 459 681 Q456 662 446 640 Q436 618 416.5 600.5 Q397 583 363 583 Q349 583 334 586.5 Q319 590 306.5 594 Q294 598 284.5 602 Q275 606 272 607 Q269 609 251.5 615.5 Q234 622 217 622 Q206 622 199.5 616.5 Q193 611 189 604 Q185 597 183.5 591 Q182 585 182 584 L104 584 Z " />
<glyph glyph-name="ncommaaccent" unicode="&#x146;" horiz-adv-x="561" d="M62 500 L183 500 L183 441 Q202 468 226.5 483 Q251 498 273.5 505 Q296 512 313.5 513.5 Q331 515 337 515 L338 515 Q370 515 393 507 Q416 499 429 491 Q450 478 463.5 462 Q477 446 485 425 Q493 404 496 377 Q499 350 499 314 L499 0 L381 0 L381 255 L381 283 Q381 307 376 333 Q371 359 349 379 Q341 387 327 392.5 Q313 398 293 398 Q273 398 257.5 391 Q242 384 235 379 Q216 365 205.5 347 Q195 329 190 310.5 Q185 292 184 274 Q183 256 183 241 L183 0 L62 0 L62 500 Z M231 -189 Q257 -178 266 -163.5 Q275 -149 279 -130 L237 -130 L237 -59 L330 -59 L330 -106 Q330 -124 327.5 -141.5 Q325 -159 316.5 -174 Q308 -189 293.5 -201.5 Q279 -214 255 -223 L231 -189 Z " />
<glyph glyph-name="ograve" unicode="&#xf2;" horiz-adv-x="588" d="M296 -15 Q237 -15 189.5 5.5 Q142 26 108 62 Q74 98 55.5 147.5 Q37 197 37 254 Q37 308 55 355.5 Q73 403 106.5 438.5 Q140 474 187 494.5 Q234 515 293 515 Q351 515 398.5 495 Q446 475 480 439 Q514 403 532.5 353.5 Q551 304 551 246 Q551 216 544.5 183 Q538 150 522 119 Q510 96 491 72.5 Q472 49 444 29.5 Q416 10 379.5 -2.5 Q343 -15 296 -15 Z M300 95 Q334 95 358 109.5 Q382 124 397 146.5 Q412 169 419 195.5 Q426 222 426 247 Q426 270 422 289 Q418 308 411 325 Q399 352 383 368.5 Q367 385 350 393.5 Q333 402 317 404.5 Q301 407 290 407 Q257 407 233 393.5 Q209 380 193 358 Q177 336 169.5 309.5 Q162 283 162 256 Q162 227 170 198 Q178 169 195 146 Q212 123 238 109 Q264 95 300 95 Z M178 706 L327 706 L378 573 L289 573 L178 706 Z " />
<glyph glyph-name="oacute" unicode="&#xf3;" horiz-adv-x="588" d="M296 -15 Q237 -15 189.5 5.5 Q142 26 108 62 Q74 98 55.5 147.5 Q37 197 37 254 Q37 308 55 355.5 Q73 403 106.5 438.5 Q140 474 187 494.5 Q234 515 293 515 Q351 515 398.5 495 Q446 475 480 439 Q514 403 532.5 353.5 Q551 304 551 246 Q551 216 544.5 183 Q538 150 522 119 Q510 96 491 72.5 Q472 49 444 29.5 Q416 10 379.5 -2.5 Q343 -15 296 -15 Z M300 95 Q334 95 358 109.5 Q382 124 397 146.5 Q412 169 419 195.5 Q426 222 426 247 Q426 270 422 289 Q418 308 411 325 Q399 352 383 368.5 Q367 385 350 393.5 Q333 402 317 404.5 Q301 407 290 407 Q257 407 233 393.5 Q209 380 193 358 Q177 336 169.5 309.5 Q162 283 162 256 Q162 227 170 198 Q178 169 195 146 Q212 123 238 109 Q264 95 300 95 Z M287 706 L435 706 L327 573 L237 573 L287 706 Z " />
<glyph glyph-name="ocircumflex" unicode="&#xf4;" horiz-adv-x="588" d="M296 -15 Q237 -15 189.5 5.5 Q142 26 108 62 Q74 98 55.5 147.5 Q37 197 37 254 Q37 308 55 355.5 Q73 403 106.5 438.5 Q140 474 187 494.5 Q234 515 293 515 Q351 515 398.5 495 Q446 475 480 439 Q514 403 532.5 353.5 Q551 304 551 246 Q551 216 544.5 183 Q538 150 522 119 Q510 96 491 72.5 Q472 49 444 29.5 Q416 10 379.5 -2.5 Q343 -15 296 -15 Z M300 95 Q334 95 358 109.5 Q382 124 397 146.5 Q412 169 419 195.5 Q426 222 426 247 Q426 270 422 289 Q418 308 411 325 Q399 352 383 368.5 Q367 385 350 393.5 Q333 402 317 404.5 Q301 407 290 407 Q257 407 233 393.5 Q209 380 193 358 Q177 336 169.5 309.5 Q162 283 162 256 Q162 227 170 198 Q178 169 195 146 Q212 123 238 109 Q264 95 300 95 Z M238 706 L356 706 L468 572 L345 572 L298 639 L248 572 L127 572 L238 706 Z " />
<glyph glyph-name="otilde" unicode="&#xf5;" horiz-adv-x="588" d="M296 -15 Q237 -15 189.5 5.5 Q142 26 108 62 Q74 98 55.5 147.5 Q37 197 37 254 Q37 308 55 355.5 Q73 403 106.5 438.5 Q140 474 187 494.5 Q234 515 293 515 Q351 515 398.5 495 Q446 475 480 439 Q514 403 532.5 353.5 Q551 304 551 246 Q551 216 544.5 183 Q538 150 522 119 Q510 96 491 72.5 Q472 49 444 29.5 Q416 10 379.5 -2.5 Q343 -15 296 -15 Z M300 95 Q334 95 358 109.5 Q382 124 397 146.5 Q412 169 419 195.5 Q426 222 426 247 Q426 270 422 289 Q418 308 411 325 Q399 352 383 368.5 Q367 385 350 393.5 Q333 402 317 404.5 Q301 407 290 407 Q257 407 233 393.5 Q209 380 193 358 Q177 336 169.5 309.5 Q162 283 162 256 Q162 227 170 198 Q178 169 195 146 Q212 123 238 109 Q264 95 300 95 Z M114 584 Q116 598 117.5 609 Q119 620 124 634 Q127 642 133.5 655 Q140 668 151.5 680 Q163 692 179 701 Q195 710 218 710 Q231 710 245.5 707 Q260 704 273 700 Q286 696 295 692 Q304 688 307 687 Q308 687 313.5 684.5 Q319 682 326.5 679.5 Q334 677 343 675 Q352 673 359 673 Q370 673 376.5 677 Q383 681 387 686 Q391 691 392.5 697 Q394 703 396 706 L474 706 L473 702 Q472 700 469 681 Q466 662 456 640 Q446 618 426.5 600.5 Q407 583 373 583 Q359 583 344 586.5 Q329 590 316.5 594 Q304 598 294.5 602 Q285 606 282 607 Q279 609 261.5 615.5 Q244 622 227 622 Q216 622 209.5 616.5 Q203 611 199 604 Q195 597 193.5 591 Q192 585 192 584 L114 584 Z " />
<glyph glyph-name="odieresis" unicode="&#xf6;" horiz-adv-x="588" d="M296 -15 Q237 -15 189.5 5.5 Q142 26 108 62 Q74 98 55.5 147.5 Q37 197 37 254 Q37 308 55 355.5 Q73 403 106.5 438.5 Q140 474 187 494.5 Q234 515 293 515 Q351 515 398.5 495 Q446 475 480 439 Q514 403 532.5 353.5 Q551 304 551 246 Q551 216 544.5 183 Q538 150 522 119 Q510 96 491 72.5 Q472 49 444 29.5 Q416 10 379.5 -2.5 Q343 -15 296 -15 Z M300 95 Q334 95 358 109.5 Q382 124 397 146.5 Q412 169 419 195.5 Q426 222 426 247 Q426 270 422 289 Q418 308 411 325 Q399 352 383 368.5 Q367 385 350 393.5 Q333 402 317 404.5 Q301 407 290 407 Q257 407 233 393.5 Q209 380 193 358 Q177 336 169.5 309.5 Q162 283 162 256 Q162 227 170 198 Q178 169 195 146 Q212 123 238 109 Q264 95 300 95 Z M338 706 L452 706 L452 587 L338 587 L338 706 Z M138 706 L251 706 L251 587 L138 587 L138 706 Z " />
<glyph glyph-name="omacron" unicode="&#x14d;" horiz-adv-x="588" d="M296 -15 Q237 -15 189.5 5.5 Q142 26 108 62 Q74 98 55.5 147.5 Q37 197 37 254 Q37 308 55 355.5 Q73 403 106.5 438.5 Q140 474 187 494.5 Q234 515 293 515 Q351 515 398.5 495 Q446 475 480 439 Q514 403 532.5 353.5 Q551 304 551 246 Q551 216 544.5 183 Q538 150 522 119 Q510 96 491 72.5 Q472 49 444 29.5 Q416 10 379.5 -2.5 Q343 -15 296 -15 Z M300 95 Q334 95 358 109.5 Q382 124 397 146.5 Q412 169 419 195.5 Q426 222 426 247 Q426 270 422 289 Q418 308 411 325 Q399 352 383 368.5 Q367 385 350 393.5 Q333 402 317 404.5 Q301 407 290 407 Q257 407 233 393.5 Q209 380 193 358 Q177 336 169.5 309.5 Q162 283 162 256 Q162 227 170 198 Q178 169 195 146 Q212 123 238 109 Q264 95 300 95 Z M124 676 L465 676 L465 586 L124 586 L124 676 Z " />
<glyph glyph-name="ohungarumlaut" unicode="&#x151;" horiz-adv-x="588" d="M296 -15 Q237 -15 189.5 5.5 Q142 26 108 62 Q74 98 55.5 147.5 Q37 197 37 254 Q37 308 55 355.5 Q73 403 106.5 438.5 Q140 474 187 494.5 Q234 515 293 515 Q351 515 398.5 495 Q446 475 480 439 Q514 403 532.5 353.5 Q551 304 551 246 Q551 216 544.5 183 Q538 150 522 119 Q510 96 491 72.5 Q472 49 444 29.5 Q416 10 379.5 -2.5 Q343 -15 296 -15 Z M300 95 Q334 95 358 109.5 Q382 124 397 146.5 Q412 169 419 195.5 Q426 222 426 247 Q426 270 422 289 Q418 308 411 325 Q399 352 383 368.5 Q367 385 350 393.5 Q333 402 317 404.5 Q301 407 290 407 Q257 407 233 393.5 Q209 380 193 358 Q177 336 169.5 309.5 Q162 283 162 256 Q162 227 170 198 Q178 169 195 146 Q212 123 238 109 Q264 95 300 95 Z M376 706 L508 706 L412 574 L323 574 L376 706 Z M203 706 L336 706 L240 574 L151 574 L203 706 Z " />
<glyph glyph-name="oslash" unicode="&#xf8;" horiz-adv-x="588" d="M11 77 L67 122 Q53 151 45 184 Q37 217 37 254 Q37 308 55 355.5 Q73 403 106.5 438.5 Q140 474 187 494.5 Q234 515 293 515 Q347 515 392 497.5 Q437 480 471 448 L521 488 L567 432 L515 390 Q532 359 541.5 323 Q551 287 551 246 Q551 216 544.5 183 Q538 150 522 119 Q510 96 491 72.5 Q472 49 444 29.5 Q416 10 379.5 -2.5 Q343 -15 296 -15 Q237 -15 189.5 5.5 Q142 26 107 63 L54 21 L11 77 Z M378 373 Q355 395 330.5 401 Q306 407 290 407 Q257 407 233 393.5 Q209 380 193 358 Q177 336 169.5 309.5 Q162 283 162 256 Q162 232 169 204 L378 373 Z M201 138 Q218 118 242.5 106.5 Q267 95 300 95 Q334 95 358 109.5 Q382 124 397 146.5 Q412 169 419 195.5 Q426 222 426 247 Q426 266 423.5 281.5 Q421 297 416 311 L201 138 Z " />
<glyph glyph-name="oe" unicode="&#x153;" horiz-adv-x="915" d="M37 242 Q37 257 40 292 Q43 327 60 367 Q70 390 88.5 416 Q107 442 134.5 464 Q162 486 199.5 500.5 Q237 515 285 515 Q318 515 345.5 508 Q373 501 395 490.5 Q417 480 434 466.5 Q451 453 462 440 Q510 482 551.5 498.5 Q593 515 638 515 Q695 515 735.5 497 Q776 479 804 452 Q832 425 848 394.5 Q864 364 872 339 Q878 321 881 302 Q884 283 885.5 266.5 Q887 250 887.5 237.5 Q888 225 888 221 L529 221 Q530 216 532.5 202 Q535 188 541 173 Q553 144 570.5 128 Q588 112 605 104 Q622 96 637 94 Q652 92 659 92 Q691 92 723 107.5 Q755 123 780 160 L877 102 Q867 88 855 74 Q843 60 817 39 Q788 16 750 0.5 Q712 -15 649 -15 Q610 -15 573.5 -5 Q537 5 499 40 Q496 43 486 53 Q476 63 468 76 Q435 34 389 9.5 Q343 -15 286 -15 Q245 -15 217.5 -8.5 Q190 -2 173 6 Q147 18 122.5 38.5 Q98 59 79 88 Q60 117 48.5 155.5 Q37 194 37 242 Z M749 306 Q747 315 741.5 332.5 Q736 350 723.5 367.5 Q711 385 690.5 398 Q670 411 638 411 Q625 411 608.5 407 Q592 403 576.5 391.5 Q561 380 548 359.5 Q535 339 529 306 L749 306 Z M286 94 Q307 94 329.5 101.5 Q352 109 370.5 126.5 Q389 144 401.5 173 Q414 202 414 245 Q414 266 410.5 286 Q407 306 399 325 Q394 337 385 350.5 Q376 364 362 375.5 Q348 387 328.5 395 Q309 403 284 403 Q249 403 225 388.5 Q201 374 186 351 Q171 328 164.5 300.5 Q158 273 158 247 Q158 220 165 192.5 Q172 165 187.5 143.5 Q203 122 227.5 108 Q252 94 286 94 Z " />
<glyph glyph-name="racute" unicode="&#x155;" horiz-adv-x="346" d="M62 500 L178 500 L178 429 Q196 465 232 488 Q268 511 331 511 L337 511 L337 388 L329 388 Q275 388 244.5 370 Q214 352 199.5 326.5 Q185 301 181.5 273.5 Q178 246 178 226 L178 0 L62 0 L62 500 Z M157 706 L305 706 L197 573 L107 573 L157 706 Z " />
<glyph glyph-name="rcaron" unicode="&#x159;" horiz-adv-x="346" d="M62 500 L178 500 L178 429 Q196 465 232 488 Q268 511 331 511 L337 511 L337 388 L329 388 Q275 388 244.5 370 Q214 352 199.5 326.5 Q185 301 181.5 273.5 Q178 246 178 226 L178 0 L62 0 L62 500 Z M1 706 L122 706 L170 642 L219 706 L340 706 L228 572 L113 572 L1 706 Z " />
<glyph glyph-name="rcommaaccent" unicode="&#x157;" horiz-adv-x="346" d="M62 500 L178 500 L178 429 Q196 465 232 488 Q268 511 331 511 L337 511 L337 388 L329 388 Q275 388 244.5 370 Q214 352 199.5 326.5 Q185 301 181.5 273.5 Q178 246 178 226 L178 0 L62 0 L62 500 Z M72 -189 Q98 -178 107 -163.5 Q116 -149 120 -130 L78 -130 L78 -59 L171 -59 L171 -106 Q171 -124 168.5 -141.5 Q166 -159 157.5 -174 Q149 -189 134.5 -201.5 Q120 -214 96 -223 L72 -189 Z " />
<glyph glyph-name="sacute" unicode="&#x15b;" horiz-adv-x="521" d="M111 148 Q143 110 182 97 Q221 84 259 84 Q298 84 326 100.5 Q354 117 354 141 Q354 149 351.5 156.5 Q349 164 340 171 Q331 178 317.5 182 Q304 186 281 191 L199 207 Q167 213 138.5 225 Q110 237 89 255 Q68 273 56 297.5 Q44 322 44 353 Q44 382 57.5 411 Q71 440 98 463 Q125 486 165.5 500.5 Q206 515 261 515 Q285 515 312 511 Q339 507 366.5 496.5 Q394 486 421.5 468 Q449 450 474 422 L389 343 Q374 373 342 396 Q310 419 253 419 Q217 419 193.5 405.5 Q170 392 170 369 Q170 342 194.5 331.5 Q219 321 257 313 Q273 310 296.5 306.5 Q320 303 345.5 297.5 Q371 292 395 283.5 Q419 275 435 263 Q454 248 464.5 231 Q475 214 480 199 Q485 184 486 172 Q487 160 487 154 Q487 123 472.5 92.5 Q458 62 429 38 Q400 14 357.5 -0.5 Q315 -15 258 -15 Q231 -15 200.5 -10.5 Q170 -6 139 4.5 Q108 15 78 32 Q48 49 22 75 L111 148 Z M247 706 L395 706 L287 573 L197 573 L247 706 Z " />
<glyph glyph-name="scaron" unicode="&#x161;" horiz-adv-x="521" d="M111 148 Q143 110 182 97 Q221 84 259 84 Q298 84 326 100.5 Q354 117 354 141 Q354 149 351.5 156.5 Q349 164 340 171 Q331 178 317.5 182 Q304 186 281 191 L199 207 Q167 213 138.5 225 Q110 237 89 255 Q68 273 56 297.5 Q44 322 44 353 Q44 382 57.5 411 Q71 440 98 463 Q125 486 165.5 500.5 Q206 515 261 515 Q285 515 312 511 Q339 507 366.5 496.5 Q394 486 421.5 468 Q449 450 474 422 L389 343 Q374 373 342 396 Q310 419 253 419 Q217 419 193.5 405.5 Q170 392 170 369 Q170 342 194.5 331.5 Q219 321 257 313 Q273 310 296.5 306.5 Q320 303 345.5 297.5 Q371 292 395 283.5 Q419 275 435 263 Q454 248 464.5 231 Q475 214 480 199 Q485 184 486 172 Q487 160 487 154 Q487 123 472.5 92.5 Q458 62 429 38 Q400 14 357.5 -0.5 Q315 -15 258 -15 Q231 -15 200.5 -10.5 Q170 -6 139 4.5 Q108 15 78 32 Q48 49 22 75 L111 148 Z M102 706 L223 706 L271 642 L320 706 L441 706 L329 572 L214 572 L102 706 Z " />
<glyph glyph-name="scedilla" unicode="&#x15f;" horiz-adv-x="521" d="M111 148 Q143 110 182 97 Q221 84 259 84 Q298 84 326 100.5 Q354 117 354 141 Q354 149 351.5 156.5 Q349 164 340 171 Q331 178 317.5 182 Q304 186 281 191 L199 207 Q167 213 138.5 225 Q110 237 89 255 Q68 273 56 297.5 Q44 322 44 353 Q44 382 57.5 411 Q71 440 98 463 Q125 486 165.5 500.5 Q206 515 261 515 Q285 515 312 511 Q339 507 366.5 496.5 Q394 486 421.5 468 Q449 450 474 422 L389 343 Q374 373 342 396 Q310 419 253 419 Q217 419 193.5 405.5 Q170 392 170 369 Q170 342 194.5 331.5 Q219 321 257 313 Q273 310 296.5 306.5 Q320 303 345.5 297.5 Q371 292 395 283.5 Q419 275 435 263 Q454 248 464.5 231 Q475 214 480 199 Q485 184 486 172 Q487 160 487 154 Q487 125 474 96.5 Q461 68 435.5 44.5 Q410 21 372.5 5.5 Q335 -10 285 -14 L260 -46 L268 -46 Q279 -46 295 -48.5 Q311 -51 325.5 -58 Q340 -65 350.5 -77.5 Q361 -90 361 -109 Q361 -126 354.5 -136.5 Q348 -147 343 -152 Q331 -164 312.5 -171 Q294 -178 274.5 -181.5 Q255 -185 237 -185.5 Q219 -186 207 -186 Q193 -186 182 -186 Q171 -186 165 -185 L165 -154 Q171 -155 175.5 -155 Q180 -155 182 -155 Q193 -155 204.5 -154 Q216 -153 225 -150.5 Q234 -148 240 -143 Q246 -138 246 -130 Q246 -112 225 -108.5 Q204 -105 180 -105 Q166 -105 160 -107 L160 -92 L234 -14 Q209 -13 181 -7.5 Q153 -2 125.5 8.5 Q98 19 71.5 35.5 Q45 52 22 75 L111 148 Z " />
<glyph glyph-name="scommaaccent" unicode="&#x219;" horiz-adv-x="521" d="M111 148 Q143 110 182 97 Q221 84 259 84 Q298 84 326 100.5 Q354 117 354 141 Q354 149 351.5 156.5 Q349 164 340 171 Q331 178 317.5 182 Q304 186 281 191 L199 207 Q167 213 138.5 225 Q110 237 89 255 Q68 273 56 297.5 Q44 322 44 353 Q44 382 57.5 411 Q71 440 98 463 Q125 486 165.5 500.5 Q206 515 261 515 Q285 515 312 511 Q339 507 366.5 496.5 Q394 486 421.5 468 Q449 450 474 422 L389 343 Q374 373 342 396 Q310 419 253 419 Q217 419 193.5 405.5 Q170 392 170 369 Q170 342 194.5 331.5 Q219 321 257 313 Q273 310 296.5 306.5 Q320 303 345.5 297.5 Q371 292 395 283.5 Q419 275 435 263 Q454 248 464.5 231 Q475 214 480 199 Q485 184 486 172 Q487 160 487 154 Q487 123 472.5 92.5 Q458 62 429 38 Q400 14 357.5 -0.5 Q315 -15 258 -15 Q231 -15 200.5 -10.5 Q170 -6 139 4.5 Q108 15 78 32 Q48 49 22 75 L111 148 Z M211 -189 Q237 -178 246 -163.5 Q255 -149 259 -130 L217 -130 L217 -59 L310 -59 L310 -106 Q310 -124 307.5 -141.5 Q305 -159 296.5 -174 Q288 -189 273.5 -201.5 Q259 -214 235 -223 L211 -189 Z " />
<glyph glyph-name="germandbls" unicode="&#xdf;" horiz-adv-x="561" d="M62 517 Q62 531 62.5 541 Q63 551 63.5 559.5 Q64 568 66 576 Q68 584 71 594 Q83 631 107.5 655.5 Q132 680 161.5 693.5 Q191 707 221.5 712.5 Q252 718 277 718 Q310 718 348.5 708.5 Q387 699 420.5 678 Q454 657 476.5 623.5 Q499 590 499 542 Q499 535 497 518.5 Q495 502 486 482.5 Q477 463 459 444 Q441 425 408 413 Q422 407 434.5 401.5 Q447 396 459 385 Q488 361 506 320.5 Q524 280 524 222 Q524 169 510 126.5 Q496 84 470.5 54 Q445 24 408 8 Q371 -8 325 -8 Q321 -8 310 -7.5 Q299 -7 284.5 -5.5 Q270 -4 254.5 -0.5 Q239 3 227 8 L227 124 Q238 117 254 109.5 Q270 102 296 102 Q313 102 331 109 Q349 116 364 131 Q379 146 388.5 170 Q398 194 398 228 Q398 279 379 307 Q360 335 334.5 348 Q309 361 283.5 363.5 Q258 366 245 366 Q240 366 236 365.5 Q232 365 227 365 L227 455 Q235 454 242 453.5 Q249 453 258 453 Q275 453 293.5 457.5 Q312 462 327 472 Q342 482 352 498 Q362 514 362 537 Q362 548 358.5 561 Q355 574 345.5 585 Q336 596 320.5 603.5 Q305 611 281 611 Q261 611 245.5 606.5 Q230 602 222 597 Q208 588 200.5 576.5 Q193 565 189 552 Q185 539 184 525.5 Q183 512 183 500 L183 0 L62 0 L62 517 Z " />
<glyph glyph-name="tcaron" unicode="&#x165;" horiz-adv-x="318" d="M79 415 L6 415 L6 500 L79 500 L79 678 L199 678 L199 500 L306 500 L306 415 L199 415 L199 165 Q199 134 208.5 116.5 Q218 99 257 99 Q277 99 286.5 101 Q296 103 306 105 L306 4 Q295 2 273.5 -1 Q252 -4 223 -4 Q169 -4 135 9.5 Q101 23 87 57 Q82 67 80.5 88.5 Q79 110 79 136 L79 415 Z M251 591 Q283 604 294 627 Q305 650 306 685 L259 685 L259 775 L356 775 L356 685 Q356 639 339 607 Q322 575 275 557 L251 591 Z " />
<glyph glyph-name="tcommaaccent" unicode="&#x163;" horiz-adv-x="318" d="M93 -154 Q99 -155 103.5 -155 Q108 -155 110 -155 Q121 -155 132.5 -154 Q144 -153 153 -150.5 Q162 -148 168 -143 Q174 -138 174 -130 Q174 -112 153 -108.5 Q132 -105 108 -105 Q94 -105 88 -107 L88 -92 L175 -1 Q107 8 87 57 Q82 67 80.5 88.5 Q79 110 79 136 L79 415 L6 415 L6 500 L79 500 L79 678 L199 678 L199 500 L306 500 L306 415 L199 415 L199 165 Q199 134 208.5 116.5 Q218 99 257 99 Q277 99 286.5 101 Q296 103 306 105 L306 4 Q295 2 273.5 -1 Q252 -4 223 -4 L220 -4 L188 -46 L196 -46 Q207 -46 223 -48.5 Q239 -51 253.5 -58 Q268 -65 278.5 -77.5 Q289 -90 289 -109 Q289 -126 282.5 -136.5 Q276 -147 271 -152 Q259 -164 240.5 -171 Q222 -178 202.5 -181.5 Q183 -185 165 -185.5 Q147 -186 135 -186 Q121 -186 110 -186 Q99 -186 93 -185 L93 -154 Z " />
<glyph glyph-name="uni021B" unicode="&#x21b;" horiz-adv-x="318" d="M79 415 L6 415 L6 500 L79 500 L79 678 L199 678 L199 500 L306 500 L306 415 L199 415 L199 165 Q199 134 208.5 116.5 Q218 99 257 99 Q277 99 286.5 101 Q296 103 306 105 L306 4 Q295 2 273.5 -1 Q252 -4 223 -4 Q169 -4 135 9.5 Q101 23 87 57 Q82 67 80.5 88.5 Q79 110 79 136 L79 415 Z M136 -189 Q162 -178 171 -163.5 Q180 -149 184 -130 L142 -130 L142 -59 L235 -59 L235 -106 Q235 -124 232.5 -141.5 Q230 -159 221.5 -174 Q213 -189 198.5 -201.5 Q184 -214 160 -223 L136 -189 Z " />
<glyph glyph-name="ugrave" unicode="&#xf9;" horiz-adv-x="579" d="M183 500 L183 216 Q183 170 193.5 147.5 Q204 125 233 111 Q239 108 251.5 104.5 Q264 101 280 101 Q306 101 324 109.5 Q342 118 352 126 Q384 153 390.5 189.5 Q397 226 397 267 L397 500 L517 500 L517 0 L397 0 L397 52 Q383 40 367.5 28.5 Q352 17 332.5 8 Q313 -1 289 -6.5 Q265 -12 235 -12 Q171 -12 136 10.5 Q101 33 84.5 64 Q68 95 65 127 Q62 159 62 178 L62 500 L183 500 Z M149 706 L298 706 L349 573 L260 573 L149 706 Z " />
<glyph glyph-name="uacute" unicode="&#xfa;" horiz-adv-x="579" d="M183 500 L183 216 Q183 170 193.5 147.5 Q204 125 233 111 Q239 108 251.5 104.5 Q264 101 280 101 Q306 101 324 109.5 Q342 118 352 126 Q384 153 390.5 189.5 Q397 226 397 267 L397 500 L517 500 L517 0 L397 0 L397 52 Q383 40 367.5 28.5 Q352 17 332.5 8 Q313 -1 289 -6.5 Q265 -12 235 -12 Q171 -12 136 10.5 Q101 33 84.5 64 Q68 95 65 127 Q62 159 62 178 L62 500 L183 500 Z M282 706 L430 706 L322 573 L232 573 L282 706 Z " />
<glyph glyph-name="ucircumflex" unicode="&#xfb;" horiz-adv-x="579" d="M183 500 L183 216 Q183 170 193.5 147.5 Q204 125 233 111 Q239 108 251.5 104.5 Q264 101 280 101 Q306 101 324 109.5 Q342 118 352 126 Q384 153 390.5 189.5 Q397 226 397 267 L397 500 L517 500 L517 0 L397 0 L397 52 Q383 40 367.5 28.5 Q352 17 332.5 8 Q313 -1 289 -6.5 Q265 -12 235 -12 Q171 -12 136 10.5 Q101 33 84.5 64 Q68 95 65 127 Q62 159 62 178 L62 500 L183 500 Z M226 706 L344 706 L456 572 L333 572 L286 639 L236 572 L115 572 L226 706 Z " />
<glyph glyph-name="udieresis" unicode="&#xfc;" horiz-adv-x="579" d="M183 500 L183 216 Q183 170 193.5 147.5 Q204 125 233 111 Q239 108 251.5 104.5 Q264 101 280 101 Q306 101 324 109.5 Q342 118 352 126 Q384 153 390.5 189.5 Q397 226 397 267 L397 500 L517 500 L517 0 L397 0 L397 52 Q383 40 367.5 28.5 Q352 17 332.5 8 Q313 -1 289 -6.5 Q265 -12 235 -12 Q171 -12 136 10.5 Q101 33 84.5 64 Q68 95 65 127 Q62 159 62 178 L62 500 L183 500 Z M326 706 L440 706 L440 587 L326 587 L326 706 Z M126 706 L239 706 L239 587 L126 587 L126 706 Z " />
<glyph glyph-name="umacron" unicode="&#x16b;" horiz-adv-x="579" d="M183 500 L183 216 Q183 170 193.5 147.5 Q204 125 233 111 Q239 108 251.5 104.5 Q264 101 280 101 Q306 101 324 109.5 Q342 118 352 126 Q384 153 390.5 189.5 Q397 226 397 267 L397 500 L517 500 L517 0 L397 0 L397 52 Q383 40 367.5 28.5 Q352 17 332.5 8 Q313 -1 289 -6.5 Q265 -12 235 -12 Q171 -12 136 10.5 Q101 33 84.5 64 Q68 95 65 127 Q62 159 62 178 L62 500 L183 500 Z M119 676 L460 676 L460 586 L119 586 L119 676 Z " />
<glyph glyph-name="uring" unicode="&#x16f;" horiz-adv-x="579" d="M183 500 L183 216 Q183 170 193.5 147.5 Q204 125 233 111 Q239 108 251.5 104.5 Q264 101 280 101 Q306 101 324 109.5 Q342 118 352 126 Q384 153 390.5 189.5 Q397 226 397 267 L397 500 L517 500 L517 0 L397 0 L397 52 Q383 40 367.5 28.5 Q352 17 332.5 8 Q313 -1 289 -6.5 Q265 -12 235 -12 Q171 -12 136 10.5 Q101 33 84.5 64 Q68 95 65 127 Q62 159 62 178 L62 500 L183 500 Z M188 661 Q188 682 196 700.5 Q204 719 217.5 732.5 Q231 746 249.5 754 Q268 762 289 762 Q310 762 328.5 754 Q347 746 360.5 732.5 Q374 719 382 700.5 Q390 682 390 661 Q390 640 382 621.5 Q374 603 360.5 589.5 Q347 576 328.5 568 Q310 560 289 560 Q268 560 249.5 568 Q231 576 217.5 589.5 Q204 603 196 621.5 Q188 640 188 661 Z M289 619 Q306 619 318.5 631.5 Q331 644 331 661 Q331 678 318.5 690.5 Q306 703 289 703 Q272 703 259.5 690.5 Q247 678 247 661 Q247 644 259.5 631.5 Q272 619 289 619 Z " />
<glyph glyph-name="uhungarumlaut" unicode="&#x171;" horiz-adv-x="579" d="M183 500 L183 216 Q183 170 193.5 147.5 Q204 125 233 111 Q239 108 251.5 104.5 Q264 101 280 101 Q306 101 324 109.5 Q342 118 352 126 Q384 153 390.5 189.5 Q397 226 397 267 L397 500 L517 500 L517 0 L397 0 L397 52 Q383 40 367.5 28.5 Q352 17 332.5 8 Q313 -1 289 -6.5 Q265 -12 235 -12 Q171 -12 136 10.5 Q101 33 84.5 64 Q68 95 65 127 Q62 159 62 178 L62 500 L183 500 Z M372 706 L504 706 L408 574 L319 574 L372 706 Z M199 706 L332 706 L236 574 L147 574 L199 706 Z " />
<glyph glyph-name="uogonek" unicode="&#x173;" horiz-adv-x="579" d="M62 500 L183 500 L183 216 Q183 170 193.5 147.5 Q204 125 233 111 Q239 108 251.5 104.5 Q264 101 280 101 Q306 101 324 109.5 Q342 118 352 126 Q384 153 390.5 189.5 Q397 226 397 267 L397 500 L517 500 L517 0 L492 0 Q476 -20 463 -36 Q450 -52 450 -73 Q450 -84 455 -90.5 Q460 -97 467 -100 Q474 -103 482 -104 Q490 -105 496 -105 L532 -105 L532 -197 L458 -197 Q436 -197 410.5 -192 Q385 -187 365 -161 Q354 -146 352 -132.5 Q350 -119 350 -114 Q350 -94 363 -66 Q376 -38 408 0 L397 0 L397 52 Q383 40 367.5 28.5 Q352 17 332.5 8 Q313 -1 289 -6.5 Q265 -12 235 -12 Q171 -12 136 10.5 Q101 33 84.5 64 Q68 95 65 127 Q62 159 62 178 L62 500 Z " />
<glyph glyph-name="yacute" unicode="&#xfd;" horiz-adv-x="458" d="M67 -61 Q76 -62 83 -63 Q90 -64 99 -64 Q140 -64 157 -48.5 Q174 -33 181 -10 L0 500 L129 500 L241 127 L335 500 L458 500 L331 64 Q320 27 311.5 -3.5 Q303 -34 293 -59.5 Q283 -85 271.5 -105 Q260 -125 243 -140 Q217 -163 188.5 -167.5 Q160 -172 134 -172 Q132 -172 125 -172 Q118 -172 108.5 -171 Q99 -170 87.5 -169 Q76 -168 67 -165 L67 -61 Z M236 706 L384 706 L276 573 L186 573 L236 706 Z " />
<glyph glyph-name="ydieresis" unicode="&#xff;" horiz-adv-x="458" d="M67 -61 Q76 -62 83 -63 Q90 -64 99 -64 Q140 -64 157 -48.5 Q174 -33 181 -10 L0 500 L129 500 L241 127 L335 500 L458 500 L331 64 Q320 27 311.5 -3.5 Q303 -34 293 -59.5 Q283 -85 271.5 -105 Q260 -125 243 -140 Q217 -163 188.5 -167.5 Q160 -172 134 -172 Q132 -172 125 -172 Q118 -172 108.5 -171 Q99 -170 87.5 -169 Q76 -168 67 -165 L67 -61 Z M277 706 L391 706 L391 587 L277 587 L277 706 Z M77 706 L190 706 L190 587 L77 587 L77 706 Z " />
<glyph glyph-name="zacute" unicode="&#x17a;" horiz-adv-x="494" d="M25 92 L295 393 L52 393 L52 500 L453 500 L453 407 L189 106 L453 106 L453 0 L25 0 L25 92 Z M233 706 L381 706 L273 573 L183 573 L233 706 Z " />
<glyph glyph-name="zcaron" unicode="&#x17e;" horiz-adv-x="494" d="M25 92 L295 393 L52 393 L52 500 L453 500 L453 407 L189 106 L453 106 L453 0 L25 0 L25 92 Z M84 706 L205 706 L253 642 L302 706 L423 706 L311 572 L196 572 L84 706 Z " />
<glyph glyph-name="zdotaccent" unicode="&#x17c;" horiz-adv-x="494" d="M25 92 L295 393 L52 393 L52 500 L453 500 L453 407 L189 106 L453 106 L453 0 L25 0 L25 92 Z M180 706 L314 706 L314 586 L180 586 L180 706 Z " />
<glyph glyph-name="eth" unicode="&#xf0;" horiz-adv-x="589" d="M147 587 L290 626 Q276 639 266 649.5 Q256 660 242 673 L354 721 Q371 705 383 690.5 Q395 676 411 659 L503 684 L523 631 L447 610 Q457 594 469 574 Q481 554 497 521 Q504 506 513.5 482 Q523 458 531.5 427 Q540 396 546 359 Q552 322 552 282 Q552 201 533 150.5 Q514 100 483 64 Q468 47 450.5 32.5 Q433 18 410.5 7.5 Q388 -3 359.5 -9 Q331 -15 295 -15 Q226 -15 183 6.5 Q140 28 112 57 Q85 84 72.5 109 Q60 134 56 145 Q51 159 44 186 Q37 213 37 249 Q37 293 45 324.5 Q53 356 61 373 Q70 393 87.5 418 Q105 443 131.5 464.5 Q158 486 194 501 Q230 516 277 516 Q317 516 339 505 Q361 494 379 478 Q371 513 355 539 Q339 565 329 578 L166 534 L147 587 Z M296 95 Q332 95 357 109.5 Q382 124 397 147 Q412 170 419 198.5 Q426 227 426 254 Q426 272 422 290 Q418 308 411 325 Q399 353 382 369.5 Q365 386 348 394.5 Q331 403 316.5 405 Q302 407 295 407 Q260 407 235 393.5 Q210 380 193.5 358 Q177 336 169.5 308.5 Q162 281 162 253 Q162 225 170 196.5 Q178 168 194.5 145.5 Q211 123 236 109 Q261 95 296 95 Z " />
<glyph glyph-name="thorn" unicode="&#xfe;" horiz-adv-x="583" d="M62 706 L182 706 L182 455 Q205 478 237 496.5 Q269 515 323 515 Q381 515 423 490 Q465 465 492.5 426 Q520 387 533 339 Q546 291 546 246 Q546 199 532 152.5 Q518 106 490 68.5 Q462 31 419 8 Q376 -15 319 -15 Q267 -15 235.5 3 Q204 21 182 41 L182 -163 L62 -163 L62 706 Z M193 177 Q209 136 238 117.5 Q267 99 302 99 Q324 99 345.5 107 Q367 115 384 133 Q401 151 412 179.5 Q423 208 423 249 Q423 289 412 318 Q401 347 383.5 365 Q366 383 345 391.5 Q324 400 303 400 Q283 400 261 392.5 Q239 385 221 367.5 Q203 350 191.5 322 Q180 294 180 253 Q180 212 193 177 Z " />
<glyph glyph-name="fi" unicode="&#xfb01;" horiz-adv-x="560" d="M80 415 L5 415 L5 500 L80 500 L80 568 Q80 599 85.5 624.5 Q91 650 108 668.5 Q125 687 156.5 697 Q188 707 241 707 Q260 707 275 705.5 Q290 704 309 702 L309 600 Q301 602 293 602.5 Q285 603 270 603 Q246 603 232 597.5 Q218 592 211 582.5 Q204 573 202 561.5 Q200 550 200 538 L200 500 L309 500 L309 415 L200 415 L200 0 L80 0 L80 415 Z M378 699 L497 699 L497 578 L378 578 L378 699 Z M378 500 L497 500 L497 0 L378 0 L378 500 Z " />
<glyph glyph-name="fl" unicode="&#xfb02;" horiz-adv-x="562" d="M80 415 L5 415 L5 500 L80 500 L80 568 Q80 599 85.5 624.5 Q91 650 108 668.5 Q125 687 156.5 697 Q188 707 241 707 Q260 707 275 705.5 Q290 704 309 702 L309 600 Q301 602 293 602.5 Q285 603 270 603 Q246 603 232 597.5 Q218 592 211 582.5 Q204 573 202 561.5 Q200 550 200 538 L200 500 L309 500 L309 415 L200 415 L200 0 L80 0 L80 415 Z M378 706 L500 706 L500 0 L378 0 L378 706 Z " />
<glyph glyph-name="ampersand" unicode="&#x26;" horiz-adv-x="646" d="M191 394 Q180 414 170.5 436.5 Q161 459 161 500 Q161 536 173 565.5 Q185 595 206.5 616.5 Q228 638 258 650 Q288 662 324 662 Q355 662 384.5 651.5 Q414 641 437 621.5 Q460 602 473.5 574 Q487 546 487 512 Q487 472 465.5 436 Q444 400 402 374 Q385 363 373.5 359 Q362 355 354 351 Q368 324 387 297 Q406 270 428 240 Q433 233 437 228 Q441 223 446 217 Q458 235 468 257.5 Q478 280 482 318 L483 328 L598 328 Q597 318 593 297.5 Q589 277 580 250 Q571 223 555.5 192 Q540 161 516 129 Q530 116 544.5 107 Q559 98 587 98 Q593 98 598 98.5 Q603 99 609 100 L609 0 Q595 -1 583 -2 Q571 -3 557 -3 Q509 -3 481.5 8 Q454 19 432 38 Q405 18 378.5 7.5 Q352 -3 329.5 -8 Q307 -13 289 -14 Q271 -15 261 -15 Q196 -15 153 5.5 Q110 26 84.5 56.5 Q59 87 48.5 121.5 Q38 156 38 184 Q38 218 48.5 246 Q59 274 78.5 299 Q98 324 126.5 347 Q155 370 191 394 Z M311 442 Q315 443 326.5 447 Q338 451 350.5 459.5 Q363 468 372.5 481 Q382 494 382 514 Q382 540 365.5 554 Q349 568 328 568 Q302 568 288 553 Q274 538 274 515 Q274 501 279.5 484.5 Q285 468 304 440 Q308 442 311 442 Z M245 304 Q203 278 181 254 Q159 230 159 193 Q159 168 169 148.5 Q179 129 194.5 116 Q210 103 229.5 96 Q249 89 269 89 Q282 89 309.5 95.5 Q337 102 366 127 L245 304 Z " />
<glyph glyph-name="grave" unicode="&#x60;" horiz-adv-x="271" d="M36 706 L185 706 L236 573 L147 573 L36 706 Z " />
<glyph glyph-name="grave.cap" unicode="&#xf6ce;" horiz-adv-x="271" d="M37 895 L179 895 L233 774 L144 774 L37 895 Z " />
<glyph glyph-name="acute" unicode="&#xb4;" horiz-adv-x="271" d="M86 706 L234 706 L126 573 L36 573 L86 706 Z " />
<glyph glyph-name="acute.cap" unicode="&#xf6c9;" horiz-adv-x="271" d="M91 895 L234 895 L127 775 L37 775 L91 895 Z " />
<glyph glyph-name="circumflex" unicode="&#x2c6;" horiz-adv-x="271" d="M76 706 L194 706 L306 572 L183 572 L136 639 L86 572 L-35 572 L76 706 Z " />
<glyph glyph-name="circumflex.cap" unicode="&#xeff7;" horiz-adv-x="271" d="M74 895 L192 895 L297 773 L175 773 L133 829 L91 773 L-27 773 L74 895 Z " />
<glyph glyph-name="caron" unicode="&#x2c7;" horiz-adv-x="271" d="M-34 706 L87 706 L135 642 L184 706 L305 706 L193 572 L78 572 L-34 706 Z " />
<glyph glyph-name="caron.cap" unicode="&#xf6ca;" horiz-adv-x="271" d="M-25 895 L94 895 L137 838 L179 895 L297 895 L197 771 L79 771 L-25 895 Z " />
<glyph glyph-name="commaaccent" unicode="&#xf6c3;" horiz-adv-x="366" d="M140 -189 Q166 -178 175 -163.5 Q184 -149 188 -130 L146 -130 L146 -59 L239 -59 L239 -106 Q239 -124 236.5 -141.5 Q234 -159 225.5 -174 Q217 -189 202.5 -201.5 Q188 -214 164 -223 L140 -189 Z " />
<glyph glyph-name="tilde" unicode="&#x2dc;" horiz-adv-x="271" d="M-45 584 Q-43 598 -41.5 609 Q-40 620 -35 634 Q-32 642 -25.5 655 Q-19 668 -7.5 680 Q4 692 20 701 Q36 710 59 710 Q72 710 86.5 707 Q101 704 114 700 Q127 696 136 692 Q145 688 148 687 Q149 687 154.5 684.5 Q160 682 167.5 679.5 Q175 677 184 675 Q193 673 200 673 Q211 673 217.5 677 Q224 681 228 686 Q232 691 233.5 697 Q235 703 237 706 L315 706 L314 702 Q313 700 310 681 Q307 662 297 640 Q287 618 267.5 600.5 Q248 583 214 583 Q200 583 185 586.5 Q170 590 157.5 594 Q145 598 135.5 602 Q126 606 123 607 Q120 609 102.5 615.5 Q85 622 68 622 Q57 622 50.5 616.5 Q44 611 40 604 Q36 597 34.5 591 Q33 585 33 584 L-45 584 Z " />
<glyph glyph-name="tilde.cap" unicode="&#xeff5;" horiz-adv-x="271" d="M-45 769 Q-43 783 -41.5 793.5 Q-40 804 -35 818 Q-32 826 -25.5 839 Q-19 852 -7.5 864.5 Q4 877 20 886 Q36 895 59 895 Q72 895 87 891.5 Q102 888 114.5 884 Q127 880 136.5 876 Q146 872 148 871 Q149 871 154.5 869 Q160 867 167.5 864 Q175 861 184 859 Q193 857 200 857 Q212 857 218.5 862 Q225 867 229 873 Q233 879 234.5 885.5 Q236 892 237 895 L315 895 Q315 894 312.5 874 Q310 854 300 830.5 Q290 807 270 787.5 Q250 768 214 768 Q200 768 185 771.5 Q170 775 157.5 779 Q145 783 135.5 787 Q126 791 123 792 Q120 794 102.5 800 Q85 806 68 806 Q57 806 50.5 800.5 Q44 795 40 788.5 Q36 782 34.5 776 Q33 770 33 769 L-45 769 Z " />
<glyph glyph-name="dieresis" unicode="&#xa8;" horiz-adv-x="271" d="M179 706 L293 706 L293 587 L179 587 L179 706 Z M-21 706 L92 706 L92 587 L-21 587 L-21 706 Z " />
<glyph glyph-name="dieresis.cap" unicode="&#xf6cb;" horiz-adv-x="271" d="M178 895 L292 895 L292 772 L178 772 L178 895 Z M-22 895 L91 895 L91 772 L-22 772 L-22 895 Z " />
<glyph glyph-name="macron" unicode="&#xaf;" horiz-adv-x="271" d="M-35 676 L306 676 L306 586 L-35 586 L-35 676 Z " />
<glyph glyph-name="breve" unicode="&#x2d8;" horiz-adv-x="271" d="M77 706 Q78 698 81 689 Q84 680 91 672 Q98 664 109 658.5 Q120 653 138 653 Q156 653 166.5 659 Q177 665 183.5 673 Q190 681 192.5 690.5 Q195 700 197 706 L283 706 Q279 690 271 667.5 Q263 645 246.5 624.5 Q230 604 202.5 589.5 Q175 575 132 575 Q91 575 64.5 590.5 Q38 606 22 627.5 Q6 649 -1 671 Q-8 693 -11 706 L77 706 Z " />
<glyph glyph-name="ring" unicode="&#x2da;" horiz-adv-x="271" d="M35 661 Q35 682 43 700.5 Q51 719 64.5 732.5 Q78 746 96.5 754 Q115 762 136 762 Q157 762 175.5 754 Q194 746 207.5 732.5 Q221 719 229 700.5 Q237 682 237 661 Q237 640 229 621.5 Q221 603 207.5 589.5 Q194 576 175.5 568 Q157 560 136 560 Q115 560 96.5 568 Q78 576 64.5 589.5 Q51 603 43 621.5 Q35 640 35 661 Z M136 619 Q153 619 165.5 631.5 Q178 644 178 661 Q178 678 165.5 690.5 Q153 703 136 703 Q119 703 106.5 690.5 Q94 678 94 661 Q94 644 106.5 631.5 Q119 619 136 619 Z " />
<glyph glyph-name="hungarumlaut" unicode="&#x2dd;" horiz-adv-x="271" d="M182 706 L314 706 L218 574 L129 574 L182 706 Z M9 706 L142 706 L46 574 L-43 574 L9 706 Z " />
<glyph glyph-name="dotaccent" unicode="&#x2d9;" horiz-adv-x="271" d="M69 706 L203 706 L203 586 L69 586 L69 706 Z " />
<glyph glyph-name="cedilla" unicode="&#xb8;" horiz-adv-x="271" d="M40 -154 Q46 -155 50.5 -155 Q55 -155 57 -155 Q68 -155 79.5 -154 Q91 -153 100 -150.5 Q109 -148 115 -143 Q121 -138 121 -130 Q121 -112 100 -108.5 Q79 -105 55 -105 Q41 -105 35 -107 L35 -92 L135 12 L180 12 L135 -46 L143 -46 Q154 -46 170 -48.5 Q186 -51 200.5 -58 Q215 -65 225.5 -77.5 Q236 -90 236 -109 Q236 -126 229.5 -136.5 Q223 -147 218 -152 Q206 -164 187.5 -171 Q169 -178 149.5 -181.5 Q130 -185 112 -185.5 Q94 -186 82 -186 Q68 -186 57 -186 Q46 -186 40 -185 L40 -154 Z " />
<glyph glyph-name="ogonek" unicode="&#x2db;" horiz-adv-x="271" d="M152 -197 Q130 -197 104.5 -192 Q79 -187 59 -161 Q48 -146 46 -132.5 Q44 -119 44 -114 Q44 -93 58.5 -64.5 Q73 -36 108 6 L191 6 Q174 -16 159 -33 Q144 -50 144 -73 Q144 -84 149 -90.5 Q154 -97 161 -100 Q168 -103 176 -104 Q184 -105 190 -105 L226 -105 L226 -197 L152 -197 Z " />
<glyph glyph-name="comma" unicode="&#x2c;" horiz-adv-x="208" d="M45 -81 Q61 -79 71.5 -72 Q82 -65 88 -54.5 Q94 -44 96.5 -32 Q99 -20 99 -8 L99 0 L37 0 L37 137 L170 137 L170 2 L170 -10 Q170 -25 167.5 -43 Q165 -61 154.5 -78 Q144 -95 122.5 -110 Q101 -125 62 -135 Q57 -137 53.5 -137 Q50 -137 45 -139 L45 -81 Z " />
<glyph glyph-name="semicolon" unicode="&#x3b;" horiz-adv-x="250" d="M58 509 L191 509 L191 371 L58 371 L58 509 Z M65 -80 Q85 -77 96 -68.5 Q107 -60 112.5 -49.5 Q118 -39 119 -29 Q120 -19 120 -13 L120 -10 L120 0 L58 0 L58 137 L191 137 L191 10 L191 -9 Q191 -26 188 -44.5 Q185 -63 173.5 -80.5 Q162 -98 138.5 -113 Q115 -128 73 -138 L65 -140 L65 -80 Z " />
<glyph glyph-name="colon" unicode="&#x3a;" horiz-adv-x="250" d="M59 509 L191 509 L191 371 L59 371 L59 509 Z M59 137 L191 137 L191 0 L59 0 L59 137 Z " />
<glyph glyph-name="period" unicode="&#x2e;" horiz-adv-x="208" d="M38 137 L170 137 L170 0 L38 0 L38 137 Z " />
<glyph glyph-name="ellipsis" unicode="&#x2026;" horiz-adv-x="1000" d="M766 62 Q766 91 785.5 110.5 Q805 130 834 130 Q863 130 882.5 110.5 Q902 91 902 62 Q902 33 882.5 13.5 Q863 -6 834 -6 Q805 -6 785.5 13.5 Q766 33 766 62 Z M432 62 Q432 91 451.5 110.5 Q471 130 500 130 Q529 130 548.5 110.5 Q568 91 568 62 Q568 33 548.5 13.5 Q529 -6 500 -6 Q471 -6 451.5 13.5 Q432 33 432 62 Z M99 62 Q99 91 118.5 110.5 Q138 130 167 130 Q196 130 215.5 110.5 Q235 91 235 62 Q235 33 215.5 13.5 Q196 -6 167 -6 Q138 -6 118.5 13.5 Q99 33 99 62 Z " />
<glyph glyph-name="hyphen" unicode="&#x2d;" horiz-adv-x="354" d="M53 371 L301 371 L301 258 L53 258 L53 371 Z " />
<glyph glyph-name="exclam" unicode="&#x21;" horiz-adv-x="250" d="M60 436 L60 706 L191 706 L191 436 L153 176 L97 176 L60 436 Z M60 138 L191 138 L191 0 L60 0 L60 138 Z " />
<glyph glyph-name="exclamdown" unicode="&#xa1;" horiz-adv-x="250" d="M60 706 L191 706 L191 568 L60 568 L60 706 Z M60 271 L98 531 L154 531 L191 271 L191 0 L60 0 L60 271 Z " />
<glyph glyph-name="question" unicode="&#x3f;" horiz-adv-x="532" d="M208 207 Q208 259 215 297 Q222 335 236 355 Q244 367 253.5 375.5 Q263 384 274 393 Q292 407 310.5 417.5 Q329 428 346 450 Q360 468 362.5 484 Q365 500 365 506 Q365 529 356 547 Q347 565 332 578 Q317 591 298 597.5 Q279 604 260 604 Q219 604 195.5 586.5 Q172 569 160 546.5 Q148 524 145 502.5 Q142 481 142 473 L21 487 Q22 495 25.5 523 Q29 551 40 580 Q51 607 69.5 632 Q88 657 116 676 Q144 695 181.5 706.5 Q219 718 267 718 Q302 718 328 712 Q354 706 368 701 Q389 693 412.5 678 Q436 663 456.5 640.5 Q477 618 490 586.5 Q503 555 503 513 Q503 454 479.5 416.5 Q456 379 429 356 Q418 348 410 342.5 Q402 337 391 329 Q368 313 355 300.5 Q342 288 335.5 275 Q329 262 327.5 247 Q326 232 326 210 L326 182 L208 182 L208 207 Z M201 137 L334 137 L334 0 L201 0 L201 137 Z " />
<glyph glyph-name="questiondown" unicode="&#xbf;" horiz-adv-x="532" d="M198 706 L331 706 L331 569 L198 569 L198 706 Z M511 219 Q510 211 506.5 183 Q503 155 492 126 Q481 99 462.5 74 Q444 49 416 30 Q388 11 350.5 -0.5 Q313 -12 265 -12 Q230 -12 204 -6 Q178 0 164 5 Q143 13 119.5 28 Q96 43 75.5 65.5 Q55 88 42 119.5 Q29 151 29 193 Q29 252 52.5 289.5 Q76 327 103 350 Q114 358 122 363.5 Q130 369 141 377 Q164 393 177 405.5 Q190 418 196.5 431 Q203 444 204.5 459 Q206 474 206 496 L206 524 L324 524 L324 499 Q324 447 317 409 Q310 371 296 351 Q288 339 278.5 330.5 Q269 322 258 313 Q240 299 221.5 288.5 Q203 278 186 256 Q172 238 169.5 222 Q167 206 167 200 Q167 177 176 159 Q185 141 200 128 Q215 115 234 108.5 Q253 102 272 102 Q313 102 336.5 119.5 Q360 137 372 159.5 Q384 182 387 203.5 Q390 225 390 233 L511 219 Z " />
<glyph glyph-name="quoteleft" unicode="&#x2018;" horiz-adv-x="208" d="M39 566 L39 579 Q39 596 41.5 616.5 Q44 637 56 656.5 Q68 676 92.5 692 Q117 708 161 716 L161 660 Q132 651 120.5 637 Q109 623 109 596 L109 575 L169 575 L169 436 L39 436 L39 566 Z " />
<glyph glyph-name="quoteright" unicode="&#x2019;" horiz-adv-x="208" d="M47 482 Q76 491 87.5 505 Q99 519 99 546 L99 567 L39 567 L39 706 L169 706 L169 576 L169 563 Q169 546 166 525.5 Q163 505 151 485.5 Q139 466 114.5 450 Q90 434 47 426 L47 482 Z " />
<glyph glyph-name="quotedblleft" unicode="&#x201c;" horiz-adv-x="375" d="M218 566 L218 579 Q218 596 220.5 616.5 Q223 637 235 656.5 Q247 676 271.5 692 Q296 708 340 716 L340 660 Q311 651 299.5 637 Q288 623 288 596 L288 575 L348 575 L348 436 L218 436 L218 566 Z M27 566 L27 579 Q27 596 29.5 616.5 Q32 637 44 656.5 Q56 676 80.5 692 Q105 708 149 716 L149 660 Q120 651 108.5 637 Q97 623 97 596 L97 575 L157 575 L157 436 L27 436 L27 566 Z " />
<glyph glyph-name="quotedblright" unicode="&#x201d;" horiz-adv-x="375" d="M226 482 Q255 491 266.5 505 Q278 519 278 546 L278 567 L218 567 L218 706 L348 706 L348 576 L348 563 Q348 546 345 525.5 Q342 505 330 485.5 Q318 466 293.5 450 Q269 434 226 426 L226 482 Z M35 482 Q64 491 75.5 505 Q87 519 87 546 L87 567 L27 567 L27 706 L157 706 L157 576 L157 563 Q157 546 154 525.5 Q151 505 139 485.5 Q127 466 102.5 450 Q78 434 35 426 L35 482 Z " />
<glyph glyph-name="quotesinglbase" unicode="&#x201a;" horiz-adv-x="208" d="M47 -86 Q66 -80 77 -72 Q88 -64 92.5 -55 Q97 -46 98 -37.5 Q99 -29 99 -21 L99 0 L39 0 L39 139 L169 139 L169 9 L169 -5 Q169 -22 166 -42.5 Q163 -63 151 -82.5 Q139 -102 114.5 -118 Q90 -134 47 -142 L47 -86 Z " />
<glyph glyph-name="quotedblbase" unicode="&#x201e;" horiz-adv-x="375" d="M226 -86 Q245 -80 256 -72 Q267 -64 271.5 -55 Q276 -46 277 -37.5 Q278 -29 278 -21 L278 0 L218 0 L218 139 L348 139 L348 9 L348 -5 Q348 -22 345 -42.5 Q342 -63 330 -82.5 Q318 -102 293.5 -118 Q269 -134 226 -142 L226 -86 Z M35 -86 Q54 -80 65 -72 Q76 -64 80.5 -55 Q85 -46 86 -37.5 Q87 -29 87 -21 L87 0 L27 0 L27 139 L157 139 L157 9 L157 -5 Q157 -22 154 -42.5 Q151 -63 139 -82.5 Q127 -102 102.5 -118 Q78 -134 35 -142 L35 -86 Z " />
<glyph glyph-name="guilsinglleft" unicode="&#x2039;" horiz-adv-x="250" d="M54 385 L196 499 L196 385 L110 314 L196 244 L196 132 L54 244 L54 385 Z " />
<glyph glyph-name="guilsinglright" unicode="&#x203a;" horiz-adv-x="250" d="M54 242 L140 314 L54 383 L54 496 L196 383 L196 242 L54 129 L54 242 Z " />
<glyph glyph-name="guillemotleft" unicode="&#xab;" horiz-adv-x="432" d="M235 385 L378 499 L378 385 L292 314 L378 244 L378 132 L235 244 L235 385 Z M54 385 L196 497 L196 385 L108 313 L196 244 L196 133 L54 244 L54 385 Z " />
<glyph glyph-name="guillemotright" unicode="&#xbb;" horiz-adv-x="433" d="M237 242 L324 315 L237 383 L237 495 L379 383 L379 242 L237 131 L237 242 Z M54 242 L140 314 L54 383 L54 496 L197 383 L197 242 L54 129 L54 242 Z " />
<glyph glyph-name="slash" unicode="&#x2f;" horiz-adv-x="479" d="M348 706 L467 706 L132 0 L13 0 L348 706 Z " />
<glyph glyph-name="bar" unicode="&#x7c;" horiz-adv-x="229" d="M63 748 L166 748 L166 -250 L63 -250 L63 748 Z " />
<glyph glyph-name="endash" unicode="&#x2013;" horiz-adv-x="500" d="M42 370 L458 370 L458 258 L42 258 L42 370 Z " />
<glyph glyph-name="emdash" unicode="&#x2014;" horiz-adv-x="1000" d="M42 370 L958 370 L958 258 L42 258 L42 370 Z " />
<glyph glyph-name="bullet" unicode="&#x2022;" horiz-adv-x="334" d="M25 352 Q25 381 36 407 Q47 433 66.5 452.5 Q86 472 112 483 Q138 494 167 494 Q196 494 222 483 Q248 472 267.5 452.5 Q287 433 298 407 Q309 381 309 352 Q309 323 298 297 Q287 271 267.5 251.5 Q248 232 222 221 Q196 210 167 210 Q138 210 112 221 Q86 232 66.5 251.5 Q47 271 36 297 Q25 323 25 352 Z " />
<glyph glyph-name="periodcentered" unicode="&#xb7;" horiz-adv-x="208" d="M38 383 L170 383 L170 246 L38 246 L38 383 Z " />
<glyph glyph-name="parenleft" unicode="&#x28;" horiz-adv-x="354" d="M299 -91 Q267 -75 236.5 -48.5 Q206 -22 180 7 Q106 89 76.5 174 Q47 259 47 344 Q47 366 50 403 Q53 440 68 488 Q83 536 115.5 592 Q148 648 207 709 Q235 738 258.5 758 Q282 778 293 786 L327 736 Q282 691 254.5 635.5 Q227 580 212 522.5 Q197 465 192 409 Q187 353 187 308 Q187 246 199 192 Q211 138 231 93.5 Q251 49 276 15 Q301 -19 327 -41 L299 -91 Z " />
<glyph glyph-name="parenright" unicode="&#x29;" horiz-adv-x="354" d="M27 -41 Q41 -27 50 -16 Q59 -5 64 3 Q95 46 115.5 95 Q136 144 147 194.5 Q158 245 162.5 294.5 Q167 344 167 387 Q167 449 155 503 Q143 557 123 601.5 Q103 646 78 680 Q53 714 27 736 L56 786 Q77 774 108.5 750.5 Q140 727 180 681 Q202 656 224.5 623.5 Q247 591 265 550 Q283 509 295 459.5 Q307 410 307 351 L307 349 Q307 295 299 257 Q291 219 283 197 Q276 177 262 146 Q248 115 222 77 Q196 39 157 -4 Q118 -47 61 -91 L27 -41 Z " />
<glyph glyph-name="bracketleft" unicode="&#x5b;" horiz-adv-x="354" d="M61 759 L326 759 L326 663 L191 663 L191 40 L326 40 L326 -58 L61 -58 L61 759 Z " />
<glyph glyph-name="bracketright" unicode="&#x5d;" horiz-adv-x="354" d="M28 39 L163 39 L163 662 L28 662 L28 759 L293 759 L293 -58 L28 -58 L28 39 Z " />
<glyph glyph-name="braceleft" unicode="&#x7b;" horiz-adv-x="354" d="M101 103 Q101 167 82.5 199.5 Q64 232 17 244 L17 302 Q64 314 82 347 Q100 380 100 444 L100 575 Q100 598 102.5 630.5 Q105 663 115 686 Q128 716 148 732 Q168 748 195 755.5 Q222 763 257 764 Q292 765 337 765 L337 701 Q310 694 290 685.5 Q270 677 257.5 661 Q245 645 239 618.5 Q233 592 233 550 L233 500 Q233 477 233.5 456.5 Q234 436 234 419 Q234 389 231.5 365.5 Q229 342 220 324 Q211 306 193.5 293.5 Q176 281 147 273 Q157 270 163 266 Q169 262 178 256 Q198 243 209 226.5 Q220 210 225.5 188.5 Q231 167 232 140 Q233 113 233 79 L233 -2 Q233 -44 239 -70.5 Q245 -97 257.5 -113 Q270 -129 289.5 -137.5 Q309 -146 337 -153 L337 -218 Q292 -217 255.5 -215.5 Q219 -214 191.5 -206 Q164 -198 144.5 -180.5 Q125 -163 113 -131 Q108 -116 104.5 -90 Q101 -64 101 -27 L101 103 Z " />
<glyph glyph-name="braceright" unicode="&#x7d;" horiz-adv-x="354" d="M17 -153 Q44 -146 63.5 -137.5 Q83 -129 95.5 -113 Q108 -97 114 -70.5 Q120 -44 120 -2 L120 79 Q120 113 121 140 Q122 167 127.5 188.5 Q133 210 144 226.5 Q155 243 175 256 Q185 262 190.5 266 Q196 270 207 273 Q178 281 160.5 293.5 Q143 306 134 324 Q125 342 122.5 365.5 Q120 389 120 419 Q120 436 120.5 456.5 Q121 477 121 500 L121 550 Q121 592 115 618.5 Q109 645 96.5 661 Q84 677 64.5 685.5 Q45 694 17 701 L17 765 Q61 765 96.5 764 Q132 763 159 755.5 Q186 748 205.5 732 Q225 716 238 686 Q248 663 250.5 630.5 Q253 598 253 575 L253 444 Q253 380 271 347 Q289 314 337 302 L337 244 Q291 232 272.5 199.5 Q254 167 254 103 L254 -27 Q254 -64 250.5 -90 Q247 -116 242 -131 Q230 -163 210.5 -180.5 Q191 -198 163 -206 Q135 -214 99 -215.5 Q63 -217 17 -218 L17 -153 Z " />
<glyph glyph-name="asterisk" unicode="&#x2a;" horiz-adv-x="345" d="M106 527 L137 546 L101 546 L20 571 L42 637 L120 612 L152 585 L137 626 L137 706 L207 706 L207 626 L189 585 L221 612 L300 642 L325 578 L243 546 L199 551 L237 527 L291 459 L237 417 L183 484 L171 527 L162 484 L113 417 L57 459 L106 527 Z " />
<glyph glyph-name="dagger" unicode="&#x2020;" horiz-adv-x="503" d="M189 366 L20 366 L20 478 L189 478 L189 706 L315 706 L315 478 L483 478 L483 366 L315 366 L315 -44 L189 -44 L189 366 Z " />
<glyph glyph-name="daggerdbl" unicode="&#x2021;" horiz-adv-x="483" d="M181 129 L20 129 L20 230 L183 230 L183 428 L20 428 L20 530 L183 530 L183 706 L302 706 L302 530 L463 530 L463 427 L301 427 L301 230 L460 230 L460 128 L299 128 L299 -47 L181 -47 L181 129 Z " />
<glyph glyph-name="section" unicode="&#xa7;" horiz-adv-x="601" d="M126 96 Q138 88 156.5 77.5 Q175 67 199 57.5 Q223 48 252 41.5 Q281 35 313 35 Q343 35 362 46 Q381 57 381 77 Q381 87 374 94 Q367 101 364 104 Q362 106 353 110.5 Q344 115 331 121 Q318 127 303.5 133.5 Q289 140 277 146 Q242 161 198 180 Q154 199 114 225.5 Q74 252 47 288.5 Q20 325 20 376 Q20 408 31.5 432.5 Q43 457 59.5 475 Q76 493 94.5 505 Q113 517 126 525 Q112 537 104 551 Q96 565 92.5 577 Q89 589 88 599 Q87 609 87 614 L87 617 Q87 653 102.5 677.5 Q118 702 138.5 717.5 Q159 733 179.5 740.5 Q200 748 210 751 Q220 754 240 756.5 Q260 759 286 759 Q296 759 320 757 Q344 755 375.5 748.5 Q407 742 443.5 728.5 Q480 715 517 692 L461 608 Q455 611 437.5 619 Q420 627 396.5 636 Q373 645 345.5 652 Q318 659 293 659 Q288 659 276 658 Q264 657 252 654 Q240 651 230.5 644.5 Q221 638 221 626 Q221 615 228 607 Q235 599 245 593 Q255 587 264.5 583 Q274 579 280 576 L373 536 Q405 522 441.5 505.5 Q478 489 509 465.5 Q540 442 560.5 410 Q581 378 581 333 Q581 303 568.5 267 Q556 231 525 203 Q508 188 493.5 180 Q479 172 474 170 Q487 156 501 134 Q515 112 515 78 Q515 51 502.5 25 Q490 -1 465 -21 Q440 -41 403 -53 Q366 -65 317 -65 Q275 -65 236.5 -57 Q198 -49 165.5 -37 Q133 -25 108 -11 Q83 3 68 14 L126 96 Z M403 230 Q415 239 431 260.5 Q447 282 447 311 Q447 325 443 335 Q439 345 434 351 Q422 367 402 380 Q382 393 356 405.5 Q330 418 298.5 430 Q267 442 233 456 L206 467 Q187 460 175.5 451 Q164 442 157.5 432 Q151 422 149 412.5 Q147 403 147 396 Q147 375 158 360.5 Q169 346 188 333.5 Q207 321 232.5 309.5 Q258 298 288 285 Q312 274 331 265 Q350 256 373 245 L403 230 Z " />
<glyph glyph-name="paragraph" unicode="&#xb6;" horiz-adv-x="527" d="M186 306 Q178 308 160 312 Q142 316 121 328 Q88 347 69.5 373 Q51 399 42 423.5 Q33 448 31.5 468 Q30 488 30 495 L30 497 Q30 542 42.5 575.5 Q55 609 74.5 633 Q94 657 117.5 672 Q141 687 163 694 Q189 702 213 704 Q237 706 249 706 L254 706 L493 706 L493 640 L458 640 L458 -167 L388 -167 L388 640 L256 640 L256 -167 L186 -167 L186 306 Z " />
<glyph glyph-name="asciicircum" unicode="&#x5e;" horiz-adv-x="513" d="M215 706 L306 706 L493 323 L375 323 L258 569 L137 323 L20 323 L215 706 Z " />
<glyph glyph-name="asciitilde" unicode="&#x7e;" horiz-adv-x="543" d="M20 295 Q29 308 42 323.5 Q55 339 73 352.5 Q91 366 113.5 375 Q136 384 165 384 Q176 384 186.5 382.5 Q197 381 209 377.5 Q221 374 236 368 Q251 362 272 352 L306 336 Q325 327 343 321 Q361 315 380 315 Q398 315 413.5 323 Q429 331 442 341.5 Q455 352 463.5 362 Q472 372 477 377 L523 288 Q514 279 500.5 265 Q487 251 469 238.5 Q451 226 428.5 216.5 Q406 207 379 207 Q350 207 326 216 Q302 225 273 239 L244 253 Q224 263 205.5 269.5 Q187 276 167 276 Q150 276 137.5 271 Q125 266 113.5 257 Q102 248 91.5 235.5 Q81 223 68 208 L20 295 Z " />
<glyph glyph-name="brokenbar" unicode="&#xa6;" horiz-adv-x="229" d="M63 689 L166 689 L166 308 L63 308 L63 689 Z M63 190 L166 190 L166 -191 L63 -191 L63 190 Z " />
<glyph glyph-name="backslash" unicode="&#x5c;" horiz-adv-x="479" d="M13 706 L132 706 L467 0 L348 0 L13 706 Z " />
<glyph glyph-name="underscore" unicode="&#x5f;" horiz-adv-x="500" d="M-10 -125 L510 -125 L510 -228 L-10 -228 L-10 -125 Z " />
<glyph glyph-name="quotesingle" unicode="&#x27;" horiz-adv-x="208" d="M43 706 L165 706 L147 419 L62 419 L43 706 Z " />
<glyph glyph-name="quotedbl" unicode="&#x22;" horiz-adv-x="396" d="M230 706 L353 706 L334 419 L249 419 L230 706 Z M43 706 L165 706 L147 419 L62 419 L43 706 Z " />
<glyph glyph-name="at" unicode="&#x40;" horiz-adv-x="896" d="M830 41 Q751 -37 655.5 -80.5 Q560 -124 457 -124 Q415 -124 374 -117 Q333 -110 291 -94 Q236 -74 197.5 -45 Q159 -16 134 16 Q109 48 95 81.5 Q81 115 74 145 Q67 175 65.5 199 Q64 223 64 236 Q64 327 97.5 413 Q131 499 192 565.5 Q253 632 339.5 672 Q426 712 531 712 Q591 712 645.5 694 Q700 676 741.5 639.5 Q783 603 807.5 548 Q832 493 832 420 Q832 408 830.5 393.5 Q829 379 827.5 365 Q826 351 823.5 339 Q821 327 820 320 Q806 259 780.5 212 Q755 165 724.5 132.5 Q694 100 660 83.5 Q626 67 596 67 Q584 67 569.5 69 Q555 71 542 78.5 Q529 86 518 99.5 Q507 113 503 136 Q494 126 482 114 Q470 102 453.5 91.5 Q437 81 416.5 74 Q396 67 371 67 Q346 67 321 76 Q296 85 276 105 Q256 125 243.5 157 Q231 189 231 235 Q231 242 232.5 265 Q234 288 242 319.5 Q250 351 267 387 Q284 423 314 456 Q335 479 356 492 Q377 505 395 512 Q413 519 427.5 520.5 Q442 522 451 522 Q484 522 511.5 507.5 Q539 493 559 460 L569 502 L658 502 Q657 495 651.5 471.5 Q646 448 639 416 Q632 384 624.5 347 Q617 310 610.5 276.5 Q604 243 600 216.5 Q596 190 596 178 Q596 161 601.5 154 Q607 147 616 147 Q624 147 635 152.5 Q646 158 664 177 Q678 192 693.5 216 Q709 240 721.5 271 Q734 302 742.5 339.5 Q751 377 751 418 Q751 469 737.5 505 Q724 541 702.5 565 Q681 589 655 603 Q629 617 603.5 624.5 Q578 632 557 634 Q536 636 525 636 Q462 636 416.5 619.5 Q371 603 348 590 Q292 558 253 515 Q214 472 189.5 424.5 Q165 377 154 329 Q143 281 143 239 Q143 167 167.5 113 Q192 59 234.5 23 Q277 -13 333.5 -30.5 Q390 -48 455 -48 Q510 -48 560 -34 Q610 -20 652 2 Q694 24 727 49.5 Q760 75 783 99 L830 41 Z M368 160 Q377 155 384 154 Q391 153 396 153 L399 153 Q411 153 422 157 Q433 161 442.5 167 Q452 173 459 179.5 Q466 186 470 190 Q485 205 495.5 226 Q506 247 513 269 Q520 291 523.5 312 Q527 333 527 348 Q527 366 523 381 Q516 408 497.5 422.5 Q479 437 455 437 Q435 437 421 429 Q407 421 398 413 Q380 397 368 375 Q356 353 348 329.5 Q340 306 336 283.5 Q332 261 332 244 L332 239 Q332 206 341.5 187.5 Q351 169 368 160 Z " />
<glyph glyph-name="copyright" unicode="&#xa9;" horiz-adv-x="783" d="M20 353 Q20 430 49.5 497.5 Q79 565 129 615.5 Q179 666 246.5 695 Q314 724 391 724 Q468 724 535.5 695 Q603 666 653.5 615.5 Q704 565 733.5 497.5 Q763 430 763 353 Q763 276 733.5 208.5 Q704 141 654 90.5 Q604 40 536 11 Q468 -18 392 -18 Q315 -18 247.5 11 Q180 40 129.5 90.5 Q79 141 49.5 208.5 Q20 276 20 353 Z M391 60 Q452 60 505 83 Q558 106 598 145.5 Q638 185 661 238.5 Q684 292 684 353 Q684 414 661 467 Q638 520 598 560 Q558 600 505 623 Q452 646 391 646 Q331 646 277.5 623 Q224 600 184.5 560 Q145 520 122 467 Q99 414 99 353 Q99 292 122 238.5 Q145 185 184.5 145.5 Q224 106 277.5 83 Q331 60 391 60 Z M187 360 Q187 368 189.5 392.5 Q192 417 202 444 Q215 479 235.5 504 Q256 529 281.5 545 Q307 561 336 568.5 Q365 576 395 576 Q451 576 486.5 555 Q522 534 541 507 Q552 491 559 474 Q566 457 572 439 L483 417 Q481 428 476 441.5 Q471 455 461 467 Q451 479 435 487 Q419 495 395 495 Q376 495 356 487.5 Q336 480 320 463.5 Q304 447 293.5 420.5 Q283 394 283 357 Q283 319 292.5 292 Q302 265 318 247.5 Q334 230 354 222 Q374 214 395 214 Q419 214 436.5 223.5 Q454 233 466 246 Q478 259 485 273.5 Q492 288 495 299 L580 264 L576 254 Q558 209 530.5 184 Q503 159 475 147 Q447 135 423 132.5 Q399 130 389 130 Q344 130 308 146 Q272 162 246.5 189 Q221 216 206 253 Q191 290 188 332 Q187 342 187 349 Q187 356 187 359 L187 360 Z " />
<glyph glyph-name="registered" unicode="&#xae;" horiz-adv-x="783" d="M20 353 Q20 430 49.5 497.5 Q79 565 129 615.5 Q179 666 246.5 695 Q314 724 391 724 Q468 724 535.5 695 Q603 666 653.5 615.5 Q704 565 733.5 497.5 Q763 430 763 353 Q763 276 733.5 208.5 Q704 141 654 90.5 Q604 40 536 11 Q468 -18 392 -18 Q315 -18 247.5 11 Q180 40 129.5 90.5 Q79 141 49.5 208.5 Q20 276 20 353 Z M391 60 Q452 60 505 83 Q558 106 598 145.5 Q638 185 661 238.5 Q684 292 684 353 Q684 414 661 467 Q638 520 598 560 Q558 600 505 623 Q452 646 391 646 Q331 646 277.5 623 Q224 600 184.5 560 Q145 520 122 467 Q99 414 99 353 Q99 292 122 238.5 Q145 185 184.5 145.5 Q224 106 277.5 83 Q331 60 391 60 Z M232 565 L372 565 L388 565 Q405 565 420 564.5 Q435 564 451 560 Q500 549 528 514 Q556 479 556 431 Q556 404 548.5 384 Q541 364 529 349.5 Q517 335 502.5 325.5 Q488 316 475 312 L570 141 L468 141 L384 295 L321 295 L321 141 L232 141 L232 565 Z M364 369 Q394 369 408 370.5 Q422 372 433 377 Q446 382 455.5 394 Q465 406 465 429 Q465 455 452.5 467 Q440 479 424 484 Q416 487 409 487.5 Q402 488 394 488 L380 488 L321 488 L321 369 L364 369 Z " />
<glyph glyph-name="trademark" unicode="&#x2122;" horiz-adv-x="687" d="M309 706 L401 706 L481 455 L557 706 L650 706 L650 374 L581 374 L583 565 Q583 566 583.5 573.5 Q584 581 584.5 591 Q585 601 586 612.5 Q587 624 588 633 L585 621 Q582 609 579.5 599.5 Q577 590 573 578 L511 374 L448 374 L384 579 Q379 593 376.5 605.5 Q374 618 369 632 Q371 621 372.5 598.5 Q374 576 374 565 L378 374 L309 374 L309 706 Z M108 648 L3 648 L3 706 L281 706 L281 648 L179 648 L179 374 L108 374 L108 648 Z " />
<glyph glyph-name="currency" unicode="&#xa4;" horiz-adv-x="556" d="M20 146 L77 207 Q53 234 40 270.5 Q27 307 27 349 Q27 391 39 429.5 Q51 468 77 493 L20 554 L77 611 L134 555 Q159 576 198.5 588.5 Q238 601 280 601 Q320 601 357 588.5 Q394 576 417 556 L475 613 L536 552 L480 494 Q503 470 515 431.5 Q527 393 527 351 Q527 309 514.5 271 Q502 233 479 205 L534 146 L479 91 L422 149 Q397 125 359 112 Q321 99 279 99 Q235 99 196.5 111.5 Q158 124 132 148 L76 90 L20 146 Z M279 201 Q309 201 335 213 Q361 225 379.5 245.5 Q398 266 408.5 293.5 Q419 321 419 351 Q419 381 408.5 407.5 Q398 434 379.5 454.5 Q361 475 335.5 487 Q310 499 280 499 Q249 499 222.5 487 Q196 475 176.5 455 Q157 435 146 407.5 Q135 380 135 349 Q135 318 146 291 Q157 264 176.5 244 Q196 224 222.5 212.5 Q249 201 279 201 Z " />
<glyph glyph-name="Euro" unicode="&#x20ac;" horiz-adv-x="588" d="M57 304 L93 304 Q92 314 92 323 Q92 332 92 343 Q92 351 92 360 Q92 369 93 378 L17 378 L57 471 L110 471 Q130 538 169.5 583 Q209 628 255.5 655 Q302 682 349.5 693 Q397 704 434 704 Q491 704 530.5 694.5 Q570 685 593 672 L544 573 Q533 577 523 580.5 Q513 584 501.5 586.5 Q490 589 476 590 Q462 591 443 591 Q420 591 394.5 585 Q369 579 345 564.5 Q321 550 299.5 527 Q278 504 263 471 L509 471 L469 378 L241 378 Q240 370 240 361.5 Q240 353 240 343 Q240 333 240 323.5 Q240 314 241 304 L440 304 L400 211 L258 211 Q278 153 320.5 124 Q363 95 432 95 Q469 95 504 102 Q539 109 581 135 L581 11 Q555 0 516.5 -9 Q478 -18 414 -18 Q383 -18 339 -10 Q295 -2 250 23 Q205 48 166.5 92.5 Q128 137 108 211 L17 211 L57 304 Z " />
<glyph glyph-name="dollar" unicode="&#x24;" horiz-adv-x="625" d="M266 0 Q240 5 216.5 10.5 Q193 16 170 25 Q147 34 124.5 48 Q102 62 77 85 Q62 99 51 113 Q40 127 35 133 L136 210 Q141 203 153 189 Q165 175 182 160.5 Q199 146 220.5 134 Q242 122 266 120 L266 311 Q207 315 166.5 331.5 Q126 348 101 372.5 Q76 397 65 427.5 Q54 458 54 491 Q54 518 62.5 550 Q71 582 94 612 Q117 642 156.5 665 Q196 688 258 696 L266 697 L266 805 L358 805 L358 697 L368 696 Q376 695 395 692 Q414 689 439 680.5 Q464 672 493 656 Q522 640 550 613 Q558 606 563 600.5 Q568 595 574 588 L480 513 Q462 537 444 550.5 Q426 564 410 571.5 Q394 579 380.5 582 Q367 585 358 588 L358 428 Q423 417 467 397 Q511 377 537.5 350 Q564 323 575 290.5 Q586 258 586 222 Q586 173 570.5 137.5 Q555 102 531.5 77 Q508 52 481.5 37 Q455 22 433 15 Q409 7 387 4 Q365 1 358 0 L358 -114 L266 -114 L266 0 Z M266 588 Q242 584 226.5 575 Q211 566 202 555 Q193 544 189 531.5 Q185 519 185 509 Q185 481 204.5 467 Q224 453 266 444 L266 588 Z M358 118 Q386 124 404.5 134.5 Q423 145 434 158 Q445 171 449.5 185.5 Q454 200 454 213 Q454 242 431.5 265 Q409 288 358 297 L358 118 Z " />
<glyph glyph-name="cent" unicode="&#xa2;" horiz-adv-x="500" d="M234 -9 Q184 -2 149 17.5 Q114 37 90.5 63 Q67 89 53 118.5 Q39 148 32.5 175 Q26 202 24 223.5 Q22 245 22 255 Q22 301 34 344 Q46 387 72 422.5 Q98 458 138 484 Q178 510 235 522 L235 621 L313 621 L313 522 Q354 517 383 502 Q412 487 432.5 466.5 Q453 446 466.5 424 Q480 402 490 384 L384 334 Q373 361 358.5 379 Q344 397 333 405 Q326 410 311 413 L311 105 Q334 111 349 124.5 Q364 138 373 152.5 Q382 167 386.5 180 Q391 193 392 198 L494 143 Q487 126 481 113 Q475 100 464 83 Q448 59 429.5 43.5 Q411 28 394 18 Q377 8 363 3 Q349 -2 341 -4 Q333 -6 326.5 -6.5 Q320 -7 312 -9 L312 -108 L234 -108 L234 -9 Z M233 414 Q225 410 216.5 405.5 Q208 401 201 395 Q182 380 171 363 Q160 346 154 328.5 Q148 311 146.5 293.5 Q145 276 145 260 Q145 242 148 219 Q151 196 160.5 174.5 Q170 153 187 135 Q204 117 233 109 L233 414 Z " />
<glyph glyph-name="sterling" unicode="&#xa3;" horiz-adv-x="625" d="M278 34 Q242 16 217 4 Q192 -8 161 -8 Q108 -8 73.5 22.5 Q39 53 39 105 Q39 158 71 186.5 Q103 215 150 215 Q176 215 196 209 Q216 203 224 200 Q225 204 226 207.5 Q227 211 227 218 Q227 224 223 241 Q219 258 199 275 L69 275 L69 381 L150 381 Q135 400 121 430 Q107 460 107 505 Q107 509 107.5 520 Q108 531 111.5 546 Q115 561 122 578 Q129 595 142 611 Q155 627 174.5 642 Q194 657 219 669 Q244 681 274.5 688 Q305 695 340 695 Q383 695 413.5 684 Q444 673 461 663 Q508 636 532.5 591 Q557 546 557 469 Q557 459 556.5 451.5 Q556 444 556 434 L426 434 Q427 437 429 451 Q431 465 431 479 Q431 509 420.5 529 Q410 549 395 561 Q380 573 363.5 578 Q347 583 336 583 Q294 583 266.5 556 Q239 529 239 487 Q239 470 244 455 Q249 440 256 427.5 Q263 415 270 405 Q277 395 282 389 L288 381 L411 381 L411 275 L333 275 Q335 255 337 239.5 Q339 224 339 204 Q339 191 338.5 183 Q338 175 337 168.5 Q336 162 335 156 Q334 150 333 143 Q359 125 374.5 119.5 Q390 114 401 114 Q421 114 432 124.5 Q443 135 448 149.5 Q453 164 454 179.5 Q455 195 455 205 L455 208 L455 232 L584 232 L584 222 Q584 150 565 97.5 Q546 45 516 20 Q504 9 490.5 3.5 Q477 -2 465 -4.5 Q453 -7 444 -7.5 Q435 -8 432 -8 Q391 -8 360 5.5 Q329 19 288 39 L278 34 Z M200 106 Q195 111 185 117 Q175 123 161 123 Q147 123 140.5 115.5 Q134 108 134 100 Q134 93 141 86 Q148 79 161 79 Q168 79 180 83.5 Q192 88 200 106 Z " />
<glyph glyph-name="florin" unicode="&#x192;" horiz-adv-x="437" d="M27 -63 Q33 -65 40.5 -66.5 Q48 -68 62 -68 Q78 -68 83 -64 Q98 -54 103 -31.5 Q108 -9 112 23 L155 389 L78 389 L88 474 L165 474 L168 494 Q172 524 175.5 548 Q179 572 184 591.5 Q189 611 197.5 626 Q206 641 220 653 Q239 670 265.5 678 Q292 686 336 686 Q355 686 373.5 684.5 Q392 683 410 681 L418 680 L406 579 Q395 580 386.5 580.5 Q378 581 367 581 Q342 581 328.5 575.5 Q315 570 307.5 559.5 Q300 549 297.5 533.5 Q295 518 293 499 L290 474 L394 474 L384 389 L280 389 L235 -1 Q231 -34 227 -60 Q223 -86 215 -105.5 Q207 -125 194.5 -140 Q182 -155 162 -165 Q154 -170 135 -175 Q116 -180 93 -180 Q81 -180 68.5 -178.5 Q56 -177 45 -175.5 Q34 -174 26 -172 Q18 -170 15 -169 L27 -63 Z " />
<glyph glyph-name="yen" unicode="&#xa5;" horiz-adv-x="598" d="M55 270 L231 270 L200 331 L55 331 L55 430 L144 430 L0 686 L149 686 L298 401 L451 686 L598 686 L453 430 L537 430 L537 331 L395 331 L361 270 L537 270 L537 171 L361 171 L361 0 L232 0 L232 171 L55 171 L55 270 Z " />
<glyph glyph-name="ordfeminine" unicode="&#xaa;" horiz-adv-x="333" d="M230 426 Q228 433 226 437 Q224 441 223 448 Q194 428 169.5 424 Q145 420 134 420 Q115 420 97.5 426 Q80 432 66.5 443 Q53 454 44.5 471 Q36 488 36 510 Q36 533 45 548.5 Q54 564 64 572 Q76 582 97 588.5 Q118 595 141.5 600 Q165 605 186 609 Q207 613 219 618 L219 623 Q219 640 209 650 Q199 660 172 660 Q141 660 130 649 Q119 638 119 619 L49 624 Q49 626 52 641.5 Q55 657 64 670 Q78 690 104 702 Q130 714 173 714 Q182 714 196 712.5 Q210 711 226 706.5 Q242 702 256 693.5 Q270 685 279 670 Q282 665 284.5 656 Q287 647 287 635 L287 483 Q287 472 287 464 Q287 456 288.5 450 Q290 444 292 438.5 Q294 433 299 426 L230 426 Z M217 560 L148 544 Q131 540 120 531.5 Q109 523 109 510 Q109 497 119 489 Q129 481 149 481 L150 481 Q153 481 164 482 Q175 483 187 488 Q199 493 208 502.5 Q217 512 217 530 L217 560 Z " />
<glyph glyph-name="ordmasculine" unicode="&#xba;" horiz-adv-x="333" d="M165 415 Q132 415 106 427 Q80 439 62 459.5 Q44 480 34 507 Q24 534 24 564 Q24 594 34 621.5 Q44 649 62 669.5 Q80 690 106 702 Q132 714 165 714 Q199 714 225.5 702 Q252 690 270.5 670 Q289 650 299 622 Q309 594 309 563 Q309 539 301 512 Q296 497 285.5 479.5 Q275 462 258.5 448 Q242 434 219 424.5 Q196 415 165 415 Z M101 533 Q103 526 107 516.5 Q111 507 119 498.5 Q127 490 138.5 484 Q150 478 167 478 Q179 478 192 483 Q205 488 215 498.5 Q225 509 231.5 526 Q238 543 238 567 Q238 580 234.5 595 Q231 610 223.5 622.5 Q216 635 203 643.5 Q190 652 171 652 Q159 652 146 647.5 Q133 643 122 633 Q111 623 104 606 Q97 589 97 565 Q97 557 98 549 Q99 541 101 533 Z " />
<glyph glyph-name="numbersign" unicode="&#x23;" horiz-adv-x="667" d="M165 214 L43 214 L43 314 L178 314 L191 408 L65 408 L65 508 L204 508 L231 706 L335 706 L307 508 L405 508 L432 706 L533 706 L506 508 L624 508 L624 408 L493 408 L479 314 L602 314 L602 214 L467 214 L436 0 L335 0 L366 214 L267 214 L237 0 L135 0 L165 214 Z M379 314 L392 408 L293 408 L279 314 L379 314 Z " />
<glyph glyph-name="zero" unicode="0" horiz-adv-x="600" d="M297 -18 Q222 -18 170.5 14 Q119 46 86.5 98.5 Q54 151 39.5 218.5 Q25 286 25 357 Q25 425 40 491 Q55 557 88 608.5 Q121 660 174.5 692 Q228 724 306 724 Q362 724 404 705.5 Q446 687 476 657 Q506 627 525 588.5 Q544 550 555.5 509.5 Q567 469 571 431 Q575 393 575 363 Q575 329 571 288 Q567 247 556 204.5 Q545 162 525.5 122 Q506 82 475 51 Q444 20 400.5 1 Q357 -18 297 -18 Z M300 93 Q342 93 370 118 Q398 143 414.5 180.5 Q431 218 438 262 Q445 306 445 345 Q445 387 438.5 434.5 Q432 482 416 521.5 Q400 561 372.5 587 Q345 613 302 613 Q264 613 236 591 Q208 569 190 533 Q172 497 163 450 Q154 403 154 353 Q154 304 161 257.5 Q168 211 185 174.5 Q202 138 230 115.5 Q258 93 300 93 Z " />
<glyph glyph-name="one" unicode="1" horiz-adv-x="600" d="M267 537 Q242 511 204 504.5 Q166 498 118 498 L118 577 Q137 577 161.5 578 Q186 579 210.5 590.5 Q235 602 256.5 628.5 Q278 655 290 706 L390 706 L390 0 L267 0 L267 537 Z " />
<glyph glyph-name="two" unicode="2" horiz-adv-x="600" d="M37 97 Q64 118 102 144.5 Q140 171 181.5 202.5 Q223 234 264.5 268.5 Q306 303 338.5 340 Q371 377 391.5 415.5 Q412 454 412 493 Q412 542 384.5 575.5 Q357 609 289 609 Q251 609 226.5 596.5 Q202 584 187.5 563.5 Q173 543 167.5 518 Q162 493 162 469 L162 452 L37 463 L37 472 Q37 530 56.5 577 Q76 624 111 656.5 Q146 689 194.5 706.5 Q243 724 300 724 Q427 724 488.5 664 Q550 604 550 499 Q550 440 518 384 Q486 328 435 278 Q384 228 322 184 Q260 140 200 104 L562 104 L562 0 L37 0 L37 97 Z " />
<glyph glyph-name="three" unicode="3" horiz-adv-x="600" d="M160 212 Q159 206 158.5 201.5 Q158 197 158 191 Q158 167 169 148.5 Q180 130 199 117 Q218 104 243.5 97.5 Q269 91 298 91 Q340 91 367 101 Q394 111 410.5 127 Q427 143 433.5 162 Q440 181 440 198 Q440 240 422.5 264 Q405 288 380.5 299 Q356 310 330 312.5 Q304 315 287 315 Q282 315 275 315 Q268 315 261 315 Q254 315 249 314.5 Q244 314 243 314 L243 419 Q254 418 269 418 Q284 418 296 418 Q303 418 324.5 421.5 Q346 425 368 436.5 Q390 448 407.5 469 Q425 490 425 526 Q425 548 415 564.5 Q405 581 388.5 592 Q372 603 350 608 Q328 613 304 613 Q247 613 211.5 585 Q176 557 172 500 L40 528 Q52 583 76.5 620.5 Q101 658 136.5 681 Q172 704 216 714 Q260 724 310 724 Q364 724 409.5 712.5 Q455 701 488 679 Q521 657 539.5 623.5 Q558 590 558 547 Q558 511 546 480.5 Q534 450 513 427.5 Q492 405 463.5 390.5 Q435 376 402 371 Q429 368 459.5 356.5 Q490 345 515.5 323 Q541 301 557.5 268.5 Q574 236 574 191 Q574 149 557.5 111.5 Q541 74 507.5 45 Q474 16 422 -1 Q370 -18 299 -18 Q171 -18 98 33.5 Q25 85 25 179 Q25 187 25 195.5 Q25 204 27 212 L160 212 Z " />
<glyph glyph-name="four" unicode="4" horiz-adv-x="600" d="M27 258 L363 706 L486 706 L486 273 L573 273 L573 170 L486 170 L486 0 L363 0 L363 170 L27 170 L27 258 Z M363 273 L370 557 L156 273 L363 273 Z " />
<glyph glyph-name="five" unicode="5" horiz-adv-x="600" d="M169 190 Q173 144 203 119 Q233 94 293 94 Q328 94 354.5 105.5 Q381 117 398.5 136.5 Q416 156 424.5 182 Q433 208 433 238 Q433 268 423 292.5 Q413 317 395 335 Q377 353 352.5 363 Q328 373 300 373 Q257 373 221.5 358.5 Q186 344 163 308 L51 315 L98 706 L530 706 L520 593 L201 593 L178 424 Q204 452 247.5 463 Q291 474 336 474 Q396 474 439.5 453.5 Q483 433 512 400 Q541 367 555 325 Q569 283 569 240 Q569 180 548.5 132 Q528 84 490.5 50.5 Q453 17 401 -0.5 Q349 -18 286 -18 Q175 -18 107 34 Q39 86 30 180 L169 190 Z " />
<glyph glyph-name="six" unicode="6" horiz-adv-x="600" d="M444 538 Q427 578 401 596 Q375 614 323 614 Q281 614 250.5 592.5 Q220 571 200 535.5 Q180 500 170.5 455.5 Q161 411 160 365 Q191 406 236.5 426 Q282 446 340 446 Q400 446 445 427 Q490 408 520 376 Q550 344 565 302.5 Q580 261 580 216 Q580 168 562 125.5 Q544 83 510 51 Q476 19 427 0.5 Q378 -18 315 -18 Q240 -18 187 7.5 Q134 33 99.5 79 Q65 125 49 187.5 Q33 250 33 324 Q33 422 55.5 496.5 Q78 571 117.5 621.5 Q157 672 210.5 698 Q264 724 325 724 Q431 724 493 684.5 Q555 645 572 555 L444 538 Z M183 209 Q183 189 190.5 168.5 Q198 148 213.5 131.5 Q229 115 254 104.5 Q279 94 314 94 Q341 94 366 101.5 Q391 109 409.5 123.5 Q428 138 439.5 159 Q451 180 451 208 Q451 240 439 263.5 Q427 287 408 302.5 Q389 318 365 325.5 Q341 333 317 333 Q293 333 269 325.5 Q245 318 226 302.5 Q207 287 195 263.5 Q183 240 183 209 Z " />
<glyph glyph-name="seven" unicode="7" horiz-adv-x="600" d="M134 0 Q149 122 186 217.5 Q223 313 265.5 385 Q308 457 347.5 507 Q387 557 408 588 L62 588 L62 706 L551 706 L551 596 Q516 553 476 492.5 Q436 432 400 356.5 Q364 281 336.5 191 Q309 101 299 0 L134 0 Z " />
<glyph glyph-name="eight" unicode="8" horiz-adv-x="600" d="M141 364 Q126 370 109.5 384 Q93 398 79.5 418 Q66 438 57 463.5 Q48 489 48 518 Q48 569 68 607.5 Q88 646 122.5 672 Q157 698 203 711 Q249 724 302 724 Q347 724 393 713.5 Q439 703 475.5 678.5 Q512 654 535.5 614.5 Q559 575 559 517 Q559 487 549.5 462 Q540 437 526 417.5 Q512 398 495 384.5 Q478 371 462 364 Q501 350 523.5 325.5 Q546 301 557.5 275.5 Q569 250 572 228 Q575 206 575 197 Q575 136 552 95 Q529 54 490.5 29 Q452 4 403 -7 Q354 -18 302 -18 Q239 -18 187.5 -2.5 Q136 13 99.5 41.5 Q63 70 43.5 110 Q24 150 24 198 Q24 232 34.5 258.5 Q45 285 62 305.5 Q79 326 100 340.5 Q121 355 141 364 Z M176 516 Q176 496 184 477.5 Q192 459 207.5 444.5 Q223 430 246.5 421 Q270 412 301 412 Q365 412 396.5 442.5 Q428 473 428 516 Q428 533 420.5 550.5 Q413 568 397.5 582 Q382 596 358.5 605 Q335 614 303 614 Q279 614 256 608 Q233 602 215.5 590 Q198 578 187 559.5 Q176 541 176 516 Z M165 198 Q165 172 177 152.5 Q189 133 208.5 120 Q228 107 252 100.5 Q276 94 301 94 Q324 94 349 100 Q374 106 394.5 118.5 Q415 131 428 150.5 Q441 170 441 197 Q441 213 434 232.5 Q427 252 410.5 268 Q394 284 368 295 Q342 306 303 306 Q277 306 252 301 Q227 296 207.5 283.5 Q188 271 176.5 250 Q165 229 165 198 Z " />
<glyph glyph-name="nine" unicode="9" horiz-adv-x="600" d="M162 172 Q176 126 205.5 109.5 Q235 93 284 93 Q329 93 358 112.5 Q387 132 404 163.5 Q421 195 428 234.5 Q435 274 436 314 Q410 282 363.5 268.5 Q317 255 259 255 Q211 255 168.5 271.5 Q126 288 94 317 Q62 346 43.5 386 Q25 426 25 473 Q25 520 40 565 Q55 610 88 645.5 Q121 681 172.5 702.5 Q224 724 298 724 Q360 724 405 704.5 Q450 685 480.5 654.5 Q511 624 529.5 586.5 Q548 549 558 512 Q568 475 571 442.5 Q574 410 574 391 Q574 321 563.5 248.5 Q553 176 520.5 116.5 Q488 57 428.5 19.5 Q369 -18 271 -18 Q168 -18 106.5 25 Q45 68 25 153 L162 172 Z M155 484 Q155 463 162.5 441.5 Q170 420 186 402.5 Q202 385 228 374 Q254 363 290 363 Q312 363 336.5 368.5 Q361 374 380.5 387.5 Q400 401 413 424 Q426 447 426 482 Q426 510 416.5 534.5 Q407 559 389.5 577 Q372 595 347.5 605 Q323 615 293 615 Q232 615 193.5 579.5 Q155 544 155 484 Z " />
<glyph glyph-name="one.superior" unicode="&#xb9;" horiz-adv-x="375" d="M157 507 Q157 519 150 523 Q143 527 124 527 L49 527 L49 596 Q69 597 90 598 Q111 599 129 608 Q144 615 156 631 Q168 647 171 680 L252 680 L252 233 L157 233 L157 507 Z " />
<glyph glyph-name="two.superior" unicode="&#xb2;" horiz-adv-x="375" d="M31 305 Q65 327 94.5 351 Q124 375 147 397 Q170 419 186 437.5 Q202 456 210 468 Q224 491 227.5 511 Q231 531 231 538 Q231 555 226 566 Q221 577 213.5 583 Q206 589 197.5 591.5 Q189 594 182 594 Q165 594 155.5 588.5 Q146 583 140.5 574 Q135 565 132.5 553.5 Q130 542 129 530 Q128 528 127 515 Q126 502 126 496 L30 502 Q31 529 34.5 554 Q38 579 50 604 Q64 634 95 657.5 Q126 681 183 681 Q229 681 258 666 Q287 651 304 630 Q321 609 327.5 586 Q334 563 334 546 Q334 516 326 490 Q318 464 298.5 437.5 Q279 411 246.5 380.5 Q214 350 164 311 L343 311 L343 232 L31 232 L31 305 Z " />
<glyph glyph-name="three.superior" unicode="&#xb3;" horiz-adv-x="375" d="M121 386 Q122 374 123 362.5 Q124 351 129 340 Q135 327 147.5 316.5 Q160 306 184 306 Q213 306 231.5 322.5 Q250 339 250 367 Q250 395 235 408 Q220 421 196 425 Q191 426 185 426.5 Q179 427 165 427 L148 427 L148 506 L180 506 Q188 506 196.5 506.5 Q205 507 213 510 Q224 514 232.5 524 Q241 534 241 552 Q241 568 235 578 Q229 588 221 593.5 Q213 599 204.5 600.5 Q196 602 191 602 Q158 602 145 581 Q132 560 130 534 L35 555 Q49 613 87.5 647 Q126 681 193 681 Q242 681 273 663.5 Q304 646 321 621 Q331 607 335.5 590.5 Q340 574 340 559 Q340 529 324.5 505.5 Q309 482 274 469 L273 468 Q283 464 296.5 457.5 Q310 451 321.5 440 Q333 429 341 411 Q349 393 349 367 Q349 331 335.5 304.5 Q322 278 299.5 260 Q277 242 247.5 233.5 Q218 225 187 225 Q167 225 145 228.5 Q123 232 102 242 Q81 252 63 269 Q45 286 34 312 Q27 329 25.5 343 Q24 357 24 373 L24 386 L121 386 Z " />
<glyph glyph-name="uni00A0" unicode="&#xa0;" horiz-adv-x="271" d="" />
<glyph glyph-name="fraction" unicode="&#x2044;" horiz-adv-x="125" d="M184 680 L261 644 L-58 -39 L-136 -4 L184 680 Z " />
<glyph glyph-name="onequarter" unicode="&#xbc;" horiz-adv-x="875" d="M501 167 L697 442 L788 442 L788 178 L844 178 L844 99 L785 99 L785 0 L695 0 L695 99 L501 99 L501 167 Z M531 680 L608 644 L289 -39 L211 -4 L531 680 Z M127 507 Q127 519 120 523 Q113 527 94 527 L19 527 L19 596 Q39 597 60 598 Q81 599 99 608 Q114 615 126 631 Q138 647 141 680 L222 680 L222 233 L127 233 L127 507 Z M698 178 L700 330 L592 178 L698 178 Z " />
<glyph glyph-name="onehalf" unicode="&#xbd;" horiz-adv-x="875" d="M506 73 Q540 95 569.5 119 Q599 143 622 165 Q645 187 661 205.5 Q677 224 685 236 Q699 259 702.5 279 Q706 299 706 306 Q706 323 701 334 Q696 345 688.5 351 Q681 357 672.5 359.5 Q664 362 657 362 Q640 362 630.5 356.5 Q621 351 615.5 342 Q610 333 607.5 321.5 Q605 310 604 298 Q603 296 602 283 Q601 270 601 264 L505 270 Q506 297 509.5 322 Q513 347 525 372 Q539 402 570 425.5 Q601 449 658 449 Q704 449 733 434 Q762 419 779 398 Q796 377 802.5 354 Q809 331 809 314 Q809 284 801 258 Q793 232 773.5 205.5 Q754 179 721.5 148.5 Q689 118 639 79 L818 79 L818 0 L506 0 L506 73 Z M507 680 L584 644 L265 -39 L187 -4 L507 680 Z M122 507 Q122 519 115 523 Q108 527 89 527 L14 527 L14 596 Q34 597 55 598 Q76 599 94 608 Q109 615 121 631 Q133 647 136 680 L217 680 L217 233 L122 233 L122 507 Z " />
<glyph glyph-name="threequarters" unicode="&#xbe;" horiz-adv-x="875" d="M531 167 L727 442 L818 442 L818 177 L874 177 L874 97 L815 97 L815 0 L725 0 L725 99 L531 99 L531 167 Z M589 680 L665 644 L347 -39 L269 -4 L589 680 Z M127 386 Q128 374 129 362.5 Q130 351 135 340 Q141 327 153.5 316.5 Q166 306 190 306 Q219 306 237.5 322.5 Q256 339 256 367 Q256 395 241 408 Q226 421 202 425 Q197 426 191 426.5 Q185 427 171 427 L154 427 L154 506 L186 506 Q194 506 202.5 506.5 Q211 507 219 510 Q230 514 238.5 524 Q247 534 247 552 Q247 568 241 578 Q235 588 227 593.5 Q219 599 210.5 600.5 Q202 602 197 602 Q164 602 151 581 Q138 560 136 534 L41 555 Q55 613 93.5 647 Q132 681 199 681 Q248 681 279 663.5 Q310 646 327 621 Q337 607 341.5 590.5 Q346 574 346 559 Q346 529 330.5 505.5 Q315 482 280 469 L279 468 Q289 464 302.5 457.5 Q316 451 327.5 440 Q339 429 347 411 Q355 393 355 367 Q355 331 341.5 304.5 Q328 278 305.5 260 Q283 242 253.5 233.5 Q224 225 193 225 Q173 225 151 228.5 Q129 232 108 242 Q87 252 69 269 Q51 286 40 312 Q33 329 31.5 343 Q30 357 30 373 L30 386 L127 386 Z M728 178 L730 330 L622 178 L728 178 Z " />
<glyph glyph-name="percent" unicode="&#x25;" horiz-adv-x="904" d="M550 138 Q545 158 544.5 179 Q544 200 544 221 Q544 242 545.5 269.5 Q547 297 555.5 325.5 Q564 354 580.5 381 Q597 408 627 427 Q639 435 660.5 442.5 Q682 450 712 450 Q790 450 834.5 394.5 Q879 339 879 221 Q879 195 877 164.5 Q875 134 864 105 Q858 87 846.5 67.5 Q835 48 817 31.5 Q799 15 772.5 4.5 Q746 -6 710 -6 Q664 -6 634.5 11 Q605 28 587 51.5 Q569 75 561 99 Q553 123 550 138 Z M565 680 L642 644 L323 -39 L245 -4 L565 680 Z M31 369 Q26 389 25.5 410 Q25 431 25 452 Q25 473 26.5 500.5 Q28 528 36.5 556.5 Q45 585 61.5 612 Q78 639 108 658 Q120 666 141.5 673.5 Q163 681 193 681 Q271 681 315.5 625.5 Q360 570 360 452 Q360 426 358 395.5 Q356 365 345 336 Q339 318 327.5 298.5 Q316 279 298 262.5 Q280 246 253.5 235.5 Q227 225 191 225 Q145 225 115.5 242 Q86 259 68 282.5 Q50 306 42 330 Q34 354 31 369 Z M712 80 Q736 80 749.5 94.5 Q763 109 769.5 130.5 Q776 152 777.5 176 Q779 200 779 218 L779 226 Q779 243 778.5 261 Q778 279 774 298 Q766 338 748.5 352 Q731 366 711 366 Q691 366 678 354.5 Q665 343 657.5 323.5 Q650 304 647 277 Q644 250 644 220 Q644 203 645 179 Q646 155 652.5 133 Q659 111 673 95.5 Q687 80 712 80 Z M193 311 Q217 311 230.5 325.5 Q244 340 250.5 361.5 Q257 383 258.5 407 Q260 431 260 449 L260 457 Q260 474 259.5 492 Q259 510 255 529 Q247 569 229.5 583 Q212 597 192 597 Q172 597 159 585.5 Q146 574 138.5 554.5 Q131 535 128 508 Q125 481 125 451 Q125 434 126 410 Q127 386 133.5 364 Q140 342 154 326.5 Q168 311 193 311 Z " />
<glyph glyph-name="perthousand" unicode="&#x2030;" horiz-adv-x="1289" d="M935 138 Q930 158 929.5 179 Q929 200 929 221 Q929 242 930.5 269.5 Q932 297 940.5 325.5 Q949 354 965.5 381 Q982 408 1012 427 Q1024 435 1045.5 442.5 Q1067 450 1097 450 Q1175 450 1219.5 394.5 Q1264 339 1264 221 Q1264 195 1262 164.5 Q1260 134 1249 105 Q1243 87 1231.5 67.5 Q1220 48 1202 31.5 Q1184 15 1157.5 4.5 Q1131 -6 1095 -6 Q1049 -6 1019.5 11 Q990 28 972 51.5 Q954 75 946 99 Q938 123 935 138 Z M550 138 Q545 158 544.5 179 Q544 200 544 221 Q544 242 545.5 269.5 Q547 297 555.5 325.5 Q564 354 580.5 381 Q597 408 627 427 Q639 435 660.5 442.5 Q682 450 712 450 Q790 450 834.5 394.5 Q879 339 879 221 Q879 195 877 164.5 Q875 134 864 105 Q858 87 846.5 67.5 Q835 48 817 31.5 Q799 15 772.5 4.5 Q746 -6 710 -6 Q664 -6 634.5 11 Q605 28 587 51.5 Q569 75 561 99 Q553 123 550 138 Z M565 680 L642 644 L323 -39 L245 -4 L565 680 Z M31 369 Q26 389 25.5 410 Q25 431 25 452 Q25 473 26.5 500.5 Q28 528 36.5 556.5 Q45 585 61.5 612 Q78 639 108 658 Q120 666 141.5 673.5 Q163 681 193 681 Q271 681 315.5 625.5 Q360 570 360 452 Q360 426 358 395.5 Q356 365 345 336 Q339 318 327.5 298.5 Q316 279 298 262.5 Q280 246 253.5 235.5 Q227 225 191 225 Q145 225 115.5 242 Q86 259 68 282.5 Q50 306 42 330 Q34 354 31 369 Z M1097 80 Q1121 80 1134.5 94.5 Q1148 109 1154.5 130.5 Q1161 152 1162.5 176 Q1164 200 1164 218 L1164 226 Q1164 243 1163.5 261 Q1163 279 1159 298 Q1151 338 1133.5 352 Q1116 366 1096 366 Q1076 366 1063 354.5 Q1050 343 1042.5 323.5 Q1035 304 1032 277 Q1029 250 1029 220 Q1029 203 1030 179 Q1031 155 1037.5 133 Q1044 111 1058 95.5 Q1072 80 1097 80 Z M712 80 Q736 80 749.5 94.5 Q763 109 769.5 130.5 Q776 152 777.5 176 Q779 200 779 218 L779 226 Q779 243 778.5 261 Q778 279 774 298 Q766 338 748.5 352 Q731 366 711 366 Q691 366 678 354.5 Q665 343 657.5 323.5 Q650 304 647 277 Q644 250 644 220 Q644 203 645 179 Q646 155 652.5 133 Q659 111 673 95.5 Q687 80 712 80 Z M193 311 Q217 311 230.5 325.5 Q244 340 250.5 361.5 Q257 383 258.5 407 Q260 431 260 449 L260 457 Q260 474 259.5 492 Q259 510 255 529 Q247 569 229.5 583 Q212 597 192 597 Q172 597 159 585.5 Q146 574 138.5 554.5 Q131 535 128 508 Q125 481 125 451 Q125 434 126 410 Q127 386 133.5 364 Q140 342 154 326.5 Q168 311 193 311 Z " />
<glyph glyph-name="plus" unicode="&#x2b;" horiz-adv-x="562" d="M6 324 L233 324 L233 549 L330 549 L330 324 L556 324 L556 226 L330 226 L330 0 L233 0 L233 226 L6 226 L6 324 Z " />
<glyph glyph-name="minus" unicode="&#x2212;" horiz-adv-x="562" d="M6 324 L556 324 L556 226 L6 226 L6 324 Z " />
<glyph glyph-name="plusminus" unicode="&#xb1;" horiz-adv-x="562" d="M6 437 L234 437 L234 646 L330 646 L330 437 L556 437 L556 339 L330 339 L330 130 L234 130 L234 339 L6 339 L6 437 Z M6 97 L556 97 L556 0 L6 0 L6 97 Z " />
<glyph glyph-name="multiply" unicode="&#xd7;" horiz-adv-x="562" d="M213 280 L33 460 L100 528 L281 347 L463 528 L529 460 L349 280 L530 98 L463 32 L281 212 L101 32 L32 98 L213 280 Z " />
<glyph glyph-name="divide" unicode="&#xf7;" horiz-adv-x="562" d="M220 412 Q220 438 237.5 455.5 Q255 473 281 473 Q307 473 324.5 455.5 Q342 438 342 412 Q342 386 324.5 368.5 Q307 351 281 351 Q255 351 237.5 368.5 Q220 386 220 412 Z M6 322 L556 322 L556 229 L6 229 L6 322 Z M220 139 Q220 165 237.5 182.5 Q255 200 281 200 Q307 200 324.5 182.5 Q342 165 342 139 Q342 113 324.5 95.5 Q307 78 281 78 Q255 78 237.5 95.5 Q220 113 220 139 Z " />
<glyph glyph-name="equal" unicode="&#x3d;" horiz-adv-x="562" d="M6 414 L556 414 L556 316 L6 316 L6 414 Z M6 243 L556 243 L556 145 L6 145 L6 243 Z " />
<glyph glyph-name="notequal" unicode="&#x2260;" horiz-adv-x="561" d="M51 210 L220 210 L286 355 L51 355 L51 406 L306 406 L359 521 L399 503 L355 406 L510 406 L510 355 L335 355 L268 210 L510 210 L510 159 L248 159 L194 42 L154 60 L199 159 L51 159 L51 210 Z " />
<glyph glyph-name="approxequal" unicode="&#x2248;" horiz-adv-x="561" d="M45 336 Q68 381 103.5 406.5 Q139 432 183 432 Q220 432 247 417.5 Q274 403 294 392 Q321 377 341 367 Q361 357 388 357 Q419 357 440.5 376 Q462 395 483 431 L515 403 Q494 362 462.5 334.5 Q431 307 386 307 Q355 307 330 318 Q305 329 269 349 Q246 363 224 373 Q202 383 176 383 Q159 383 145 377 Q131 371 119 360.5 Q107 350 97 336.5 Q87 323 78 309 L45 336 Z M45 165 Q68 209 103.5 235 Q139 261 183 261 Q220 261 247 246.5 Q274 232 294 221 Q319 207 340 196.5 Q361 186 388 186 Q419 186 440 204.5 Q461 223 483 259 L515 231 Q494 191 463 163.5 Q432 136 386 136 Q355 136 330 147 Q305 158 269 178 Q246 192 224 202 Q202 212 177 212 Q159 212 145 206 Q131 200 119 189.5 Q107 179 97 165.5 Q87 152 78 137 L45 165 Z " />
<glyph glyph-name="less" unicode="&#x3c;" horiz-adv-x="562" d="M6 316 L556 561 L556 455 L152 275 L556 94 L556 -12 L6 234 L6 316 Z " />
<glyph glyph-name="greater" unicode="&#x3e;" horiz-adv-x="562" d="M6 94 L410 275 L6 455 L6 561 L556 316 L556 234 L6 -12 L6 94 Z " />
<glyph glyph-name="lessequal" unicode="&#x2264;" horiz-adv-x="561" d="M56 374 L507 598 L507 537 L110 349 L110 347 L507 156 L507 96 L56 320 L56 374 Z M51 55 L510 55 L510 3 L51 3 L51 55 Z " />
<glyph glyph-name="greaterequal" unicode="&#x2265;" horiz-adv-x="561" d="M57 156 L453 346 L453 348 L57 537 L57 598 L508 374 L508 320 L57 96 L57 156 Z M52 55 L509 55 L509 3 L52 3 L52 55 Z " />
<glyph glyph-name="logicalnot" unicode="&#xac;" horiz-adv-x="562" d="M6 414 L556 414 L556 145 L459 145 L459 316 L6 316 L6 414 Z " />
<glyph glyph-name="uni00AD" unicode="&#xad;" horiz-adv-x="354" d="M53 371 L301 371 L301 258 L53 258 L53 371 Z " />
<glyph glyph-name="Delta" unicode="&#x2206;" horiz-adv-x="647" d="M31 53 L279 713 L372 713 L617 54 L617 0 L31 0 L31 53 Z M531 65 L389 437 Q383 457 373.5 482 Q364 507 355 532.5 Q346 558 337.5 581.5 Q329 605 324 622 L320 622 Q317 608 309.5 587.5 Q302 567 293.5 544 Q285 521 276.5 497 Q268 473 261 453 L112 65 L531 65 Z " />
<glyph glyph-name="uni0394" unicode="&#x394;" horiz-adv-x="647" d="M31 53 L279 713 L372 713 L617 54 L617 0 L31 0 L31 53 Z M531 65 L389 437 Q383 457 373.5 482 Q364 507 355 532.5 Q346 558 337.5 581.5 Q329 605 324 622 L320 622 Q317 608 309.5 587.5 Q302 567 293.5 544 Q285 521 276.5 497 Q268 473 261 453 L112 65 L531 65 Z " />
<glyph glyph-name="Omega" unicode="&#x2126;" horiz-adv-x="719" d="M48 66 L196 66 L196 68 Q170 91 145.5 122.5 Q121 154 102.5 192.5 Q84 231 73 277 Q62 323 62 375 Q62 447 85 508 Q108 569 148 613 Q188 657 243 681.5 Q298 706 362 706 Q430 706 484.5 679 Q539 652 577 606.5 Q615 561 635.5 502 Q656 443 656 379 Q656 325 644 278 Q632 231 613 191.5 Q594 152 569.5 120.5 Q545 89 520 68 L520 66 L669 66 L669 0 L427 0 L427 48 Q455 66 481.5 95.5 Q508 125 529 164.5 Q550 204 562.5 254 Q575 304 575 364 Q575 413 561.5 462 Q548 511 521 550.5 Q494 590 454 614.5 Q414 639 361 639 Q311 639 271 617.5 Q231 596 202.5 558.5 Q174 521 158.5 470 Q143 419 143 361 Q143 305 155.5 256 Q168 207 188.5 166.5 Q209 126 235.5 96 Q262 66 290 48 L290 0 L48 0 L48 66 Z " />
<glyph glyph-name="uni03A9" unicode="&#x3a9;" horiz-adv-x="719" d="M48 66 L196 66 L196 68 Q170 91 145.5 122.5 Q121 154 102.5 192.5 Q84 231 73 277 Q62 323 62 375 Q62 447 85 508 Q108 569 148 613 Q188 657 243 681.5 Q298 706 362 706 Q430 706 484.5 679 Q539 652 577 606.5 Q615 561 635.5 502 Q656 443 656 379 Q656 325 644 278 Q632 231 613 191.5 Q594 152 569.5 120.5 Q545 89 520 68 L520 66 L669 66 L669 0 L427 0 L427 48 Q455 66 481.5 95.5 Q508 125 529 164.5 Q550 204 562.5 254 Q575 304 575 364 Q575 413 561.5 462 Q548 511 521 550.5 Q494 590 454 614.5 Q414 639 361 639 Q311 639 271 617.5 Q231 596 202.5 558.5 Q174 521 158.5 470 Q143 419 143 361 Q143 305 155.5 256 Q168 207 188.5 166.5 Q209 126 235.5 96 Q262 66 290 48 L290 0 L48 0 L48 66 Z " />
<glyph glyph-name="mu" unicode="&#xb5;" horiz-adv-x="579" d="M62 500 L183 500 L183 242 Q183 218 186.5 193 Q190 168 201 147.5 Q212 127 233 114 Q254 101 289 101 Q312 101 327.5 107 Q343 113 353 121 Q380 142 388.5 176.5 Q397 211 397 264 L397 500 L517 500 L517 0 L397 0 L397 52 Q392 47 389 43 Q386 39 381 34 Q367 20 355.5 11 Q344 2 333 -3 Q322 -8 309.5 -10 Q297 -12 282 -12 Q242 -12 220.5 3.5 Q199 19 183 39 L183 -163 L62 -163 L62 500 Z " />
<glyph glyph-name="uni03BC" unicode="&#x3bc;" horiz-adv-x="579" d="M62 500 L183 500 L183 242 Q183 218 186.5 193 Q190 168 201 147.5 Q212 127 233 114 Q254 101 289 101 Q312 101 327.5 107 Q343 113 353 121 Q380 142 388.5 176.5 Q397 211 397 264 L397 500 L517 500 L517 0 L397 0 L397 52 Q392 47 389 43 Q386 39 381 34 Q367 20 355.5 11 Q344 2 333 -3 Q322 -8 309.5 -10 Q297 -12 282 -12 Q242 -12 220.5 3.5 Q199 19 183 39 L183 -163 L62 -163 L62 500 Z " />
<glyph glyph-name="pi" unicode="&#x3c0;" horiz-adv-x="690" d="M159 447 L22 447 L22 519 L668 519 L668 447 L550 447 L550 0 L462 0 L462 447 L247 447 L247 0 L159 0 L159 447 Z " />
<glyph glyph-name="degree" unicode="&#xb0;" horiz-adv-x="404" d="M30 534 Q30 570 43.5 601 Q57 632 80.5 655.5 Q104 679 135 692.5 Q166 706 202 706 Q238 706 269 692.5 Q300 679 323.5 655.5 Q347 632 360.5 601 Q374 570 374 534 Q374 498 360.5 467 Q347 436 323.5 412.5 Q300 389 269 375.5 Q238 362 202 362 Q166 362 135 375.5 Q104 389 80.5 412.5 Q57 436 43.5 467 Q30 498 30 534 Z M202 450 Q237 450 261.5 474.5 Q286 499 286 534 Q286 569 261.5 593.5 Q237 618 202 618 Q167 618 142.5 593.5 Q118 569 118 534 Q118 499 142.5 474.5 Q167 450 202 450 Z " />
<glyph glyph-name="infinity" unicode="&#x221e;" horiz-adv-x="774" d="M724 288 Q724 251 711 221.5 Q698 192 677 171 Q656 150 628.5 139 Q601 128 571 128 Q524 128 482.5 157 Q441 186 388 246 Q368 223 348 202 Q328 181 305 164.5 Q282 148 256 138 Q230 128 200 128 Q170 128 142.5 140 Q115 152 94.5 173 Q74 194 62 222.5 Q50 251 50 284 Q50 318 62 347.5 Q74 377 95 398 Q116 419 144.5 431 Q173 443 207 443 Q235 443 260 433.5 Q285 424 307.5 407.5 Q330 391 351 370 Q372 349 392 325 Q411 346 430.5 367 Q450 388 472 405 Q494 422 520 432.5 Q546 443 578 443 Q644 443 684 400.5 Q724 358 724 289 L724 288 Z M208 177 Q232 177 253 187 Q274 197 293 213 Q312 229 329 247 Q346 265 361 282 Q344 303 327 323 Q310 343 291 359.5 Q272 376 250 386 Q228 396 201 396 Q177 396 159 387 Q141 378 128 362 Q115 346 108.5 325.5 Q102 305 102 283 Q102 239 131 208 Q160 177 207 177 L208 177 Z M571 396 Q546 396 524 384 Q502 372 482.5 355 Q463 338 447 319 Q431 300 418 287 Q442 260 462 239 Q482 218 500.5 204.5 Q519 191 536.5 184 Q554 177 574 177 Q598 177 616 186.5 Q634 196 646.5 211.5 Q659 227 665.5 246 Q672 265 672 284 Q672 337 644 366.5 Q616 396 573 396 L571 396 Z " />
<glyph glyph-name="partialdiff" unicode="&#x2202;" horiz-adv-x="548" d="M75 724 Q87 734 103 744 Q119 754 140 762 Q161 770 186.5 775 Q212 780 243 780 Q292 780 338.5 757 Q385 734 420 687 Q455 640 476.5 569.5 Q498 499 498 403 Q498 316 481 240.5 Q464 165 431 110 Q398 55 348.5 23.5 Q299 -8 235 -8 Q186 -8 149.5 12.5 Q113 33 89 65.5 Q65 98 53.5 139.5 Q42 181 42 223 Q42 281 59.5 328 Q77 375 106 408 Q135 441 173.5 459 Q212 477 254 477 Q288 477 316 466.5 Q344 456 364.5 441 Q385 426 398.5 410 Q412 394 418 383 L419 383 Q420 391 420 404 Q420 417 420 425 Q420 489 405.5 542 Q391 595 366 633.5 Q341 672 307 693 Q273 714 235 714 Q188 714 155 698.5 Q122 683 102 666 L75 724 Z M243 59 Q278 59 306.5 79.5 Q335 100 356 134.5 Q377 169 391 213.5 Q405 258 410 306 Q404 322 392 340.5 Q380 359 362 375 Q344 391 320 401.5 Q296 412 268 412 Q238 412 211 397 Q184 382 164 356 Q144 330 132.5 296 Q121 262 121 223 Q121 187 129.5 157 Q138 127 154 105.5 Q170 84 192.5 71.5 Q215 59 242 59 L243 59 Z " />
<glyph glyph-name="integral" unicode="&#x222b;" horiz-adv-x="361" d="M27 -87 Q34 -90 46 -94.5 Q58 -99 72 -99 Q85 -99 97.5 -93.5 Q110 -88 118 -77 Q133 -58 142.5 -20 Q152 18 152 93 Q152 155 150 219.5 Q148 284 145 348.5 Q142 413 140 476 Q138 539 138 598 Q138 681 150.5 730 Q163 779 192 810 Q211 830 236.5 840 Q262 850 288 850 Q304 850 319.5 845.5 Q335 841 343 836 L330 781 Q324 785 314 788 Q304 791 294 791 Q281 791 267.5 785.5 Q254 780 244 767 Q225 745 217.5 703 Q210 661 210 591 Q210 532 212 470 Q214 408 217 344.5 Q220 281 222 217.5 Q224 154 224 93 Q224 13 211.5 -34.5 Q199 -82 182 -108 Q165 -135 137.5 -148 Q110 -161 80 -161 Q60 -161 41.5 -155.5 Q23 -150 14 -145 L27 -87 Z " />
<glyph glyph-name="radical" unicode="&#x221a;" horiz-adv-x="573" d="M124 311 L49 283 L34 331 L173 385 L298 19 Q303 1 308 -19 Q313 -39 316 -53 L317 -54 Q319 -40 323 -19.5 Q327 1 331 20 L515 826 L574 826 L352 -148 L282 -148 L124 311 Z " />
<glyph glyph-name="summation" unicode="&#x2211;" horiz-adv-x="554" d="M23 -43 L289 298 L34 639 L34 694 L515 694 L515 626 L144 626 L144 622 L380 310 L125 -18 L125 -21 L531 -21 L531 -96 L23 -96 L23 -43 Z " />
<glyph glyph-name="product" unicode="&#x220f;" horiz-adv-x="701" d="M134 622 L26 622 L26 694 L674 694 L674 622 L565 622 L565 -96 L487 -96 L487 622 L213 622 L213 -96 L134 -96 L134 622 Z " />
<glyph glyph-name="lozenge" unicode="&#x25ca;" horiz-adv-x="573" d="M54 347 L255 740 L320 740 L519 347 L317 -46 L253 -46 L54 347 Z M288 20 Q290 30 295.5 45 Q301 60 306 70 L446 345 L306 620 Q301 633 295.5 647.5 Q290 662 287 673 L285 673 Q281 661 276.5 647.5 Q272 634 265 620 L126 349 L267 71 Q274 56 278.5 42.5 Q283 29 285 20 L288 20 Z " />
<glyph glyph-name="one.fitted" unicode="&#xf6dc;" horiz-adv-x="417" d="M184 399 Q184 422 181.5 436 Q179 450 173 457.5 Q167 465 156 467 Q145 469 128 469 L19 469 L19 546 L32 546 L48 546 Q64 546 88 549 Q112 552 135.5 565 Q159 578 179 604 Q199 630 207 675 L307 675 L307 0 L184 0 L184 399 Z " />
<glyph glyph-name="uni2113" unicode="&#x2113;" horiz-adv-x="487" d="M28 187 Q50 205 70 221.5 Q90 238 108 255 L108 525 Q108 593 121.5 639 Q135 685 157 713.5 Q179 742 207 754 Q235 766 264 766 Q296 766 320 753 Q344 740 359.5 718 Q375 696 382.5 666.5 Q390 637 390 603 Q390 509 333.5 419.5 Q277 330 184 239 L185 206 Q185 166 194 137.5 Q203 109 217.5 91 Q232 73 251.5 64.5 Q271 56 292 56 Q315 56 335.5 65 Q356 74 373.5 88 Q391 102 404.5 119 Q418 136 427 153 L464 119 Q430 55 382.5 24 Q335 -7 276 -7 Q233 -7 202 8 Q171 23 151 47.5 Q131 72 121 105 Q111 138 109 174 L109 187 Q95 176 80.5 164 Q66 152 52 141 L28 187 Z M184 317 Q216 352 243.5 387.5 Q271 423 291.5 459 Q312 495 323.5 530.5 Q335 566 335 602 Q335 649 319 677.5 Q303 706 265 706 Q251 706 237 697.5 Q223 689 211 668.5 Q199 648 191.5 614.5 Q184 581 184 531 L184 317 Z " />
<glyph glyph-name="estimated" unicode="&#x212e;" horiz-adv-x="869" d="M181 138 Q181 126 189 115 Q237 66 300 37.5 Q363 9 435 9 Q513 9 579 41.5 Q645 74 693 128 L750 128 Q696 65 613.5 27 Q531 -11 434 -11 Q351 -11 278 17 Q205 45 151 94 Q97 143 65.5 208.5 Q34 274 34 348 Q34 423 65.5 488.5 Q97 554 151 603 Q205 652 278 680.5 Q351 709 434 709 Q517 709 590 680.5 Q663 652 717.5 603 Q772 554 803.5 488.5 Q835 423 835 348 L835 338 L186 338 Q181 338 181 334 L181 138 Z M683 358 Q685 358 686 360 Q687 362 687 364 L687 561 Q687 574 678 585 Q630 632 568.5 659.5 Q507 687 435 687 Q363 687 300.5 658.5 Q238 630 190 582 Q181 571 181 557 L181 364 Q181 362 182.5 360 Q184 358 186 358 L683 358 Z " />
<glyph glyph-name="uni2219" unicode="&#x2219;" horiz-adv-x="208" d="M38 383 L170 383 L170 246 L38 246 L38 383 Z " />
<glyph glyph-name="uni02C9" unicode="&#x2c9;" horiz-adv-x="271" d="M-35 676 L306 676 L306 586 L-35 586 L-35 676 Z " />
<glyph glyph-name="uni2215" unicode="&#x2215;" horiz-adv-x="125" d="M184 680 L261 644 L-58 -39 L-136 -4 L184 680 Z " />
<glyph glyph-name="commaaccentalt" unicode="&#xe001;" horiz-adv-x="366" d="M146 620 Q146 638 148.5 655.5 Q151 673 159.5 688 Q168 703 182.5 715.5 Q197 728 221 737 L245 703 Q219 692 210 677.5 Q201 663 197 644 L239 644 L239 573 L146 573 L146 620 Z " />
<glyph glyph-name="caronalt" unicode="&#xe000;" horiz-adv-x="175" d="M35 522 Q67 535 78 558 Q89 581 90 616 L43 616 L43 706 L140 706 L140 616 Q140 570 123 538 Q106 506 59 488 L35 522 Z " />
</font>
</svg>
